G04 #@! TF.GenerationSoftware,KiCad,Pcbnew,(5.1.8)-1*
G04 #@! TF.CreationDate,2021-02-11T17:25:07-06:00*
G04 #@! TF.ProjectId,CANDash 2,43414e44-6173-4682-9032-2e6b69636164,2A*
G04 #@! TF.SameCoordinates,Original*
G04 #@! TF.FileFunction,Soldermask,Top*
G04 #@! TF.FilePolarity,Negative*
%FSLAX46Y46*%
G04 Gerber Fmt 4.6, Leading zero omitted, Abs format (unit mm)*
G04 Created by KiCad (PCBNEW (5.1.8)-1) date 2021-02-11 17:25:07*
%MOMM*%
%LPD*%
G01*
G04 APERTURE LIST*
G04 #@! TA.AperFunction,Profile*
%ADD10C,0.508000*%
G04 #@! TD*
%ADD11R,1.000000X1.800000*%
%ADD12R,1.900000X1.400000*%
%ADD13R,1.400000X1.300000*%
%ADD14R,0.950000X1.000000*%
%ADD15R,1.500000X0.800000*%
%ADD16C,3.000000*%
%ADD17R,1.500000X3.600000*%
%ADD18C,12.000000*%
%ADD19R,3.500000X3.500000*%
%ADD20R,1.060000X0.650000*%
%ADD21C,3.300000*%
%ADD22R,2.500000X2.300000*%
%ADD23R,2.500000X1.800000*%
%ADD24C,3.200000*%
%ADD25O,1.700000X1.700000*%
%ADD26R,1.700000X1.700000*%
%ADD27R,1.200000X0.800000*%
%ADD28C,1.000000*%
%ADD29R,2.000000X2.400000*%
%ADD30R,0.900000X0.800000*%
%ADD31R,1.800000X1.800000*%
%ADD32C,1.800000*%
G04 APERTURE END LIST*
D10*
X105000000Y-65000000D02*
X195000000Y-65000000D01*
X200000000Y-70000000D02*
X200000000Y-140000000D01*
X200000000Y-70000000D02*
G75*
G03*
X195000000Y-65000000I-5000000J0D01*
G01*
X100000000Y-70000000D02*
X100000000Y-140000000D01*
X105000000Y-65000000D02*
G75*
G03*
X100000000Y-70000000I0J-5000000D01*
G01*
X195000000Y-145000000D02*
X105000000Y-145000000D01*
X195000000Y-145000000D02*
G75*
G03*
X200000000Y-140000000I0J5000000D01*
G01*
X100000000Y-140000000D02*
G75*
G03*
X105000000Y-145000000I5000000J0D01*
G01*
D11*
X142500000Y-130750000D03*
X145000000Y-130750000D03*
D12*
X101800000Y-96600000D03*
X102800000Y-83450000D03*
D13*
X115950000Y-90750000D03*
X115950000Y-85050000D03*
D14*
X116175000Y-86440000D03*
D15*
X105090000Y-84240000D03*
X105090000Y-85340000D03*
X104890000Y-86440000D03*
X105090000Y-87540000D03*
X104890000Y-88640000D03*
X105090000Y-89740000D03*
X105490000Y-90840000D03*
X105090000Y-91940000D03*
G36*
G01*
X135099550Y-115900000D02*
X136400450Y-115900000D01*
G75*
G02*
X136650000Y-116149550I0J-249550D01*
G01*
X136650000Y-116800450D01*
G75*
G02*
X136400450Y-117050000I-249550J0D01*
G01*
X135099550Y-117050000D01*
G75*
G02*
X134850000Y-116800450I0J249550D01*
G01*
X134850000Y-116149550D01*
G75*
G02*
X135099550Y-115900000I249550J0D01*
G01*
G37*
G36*
G01*
X135099999Y-112950000D02*
X136400001Y-112950000D01*
G75*
G02*
X136650000Y-113199999I0J-249999D01*
G01*
X136650000Y-113850001D01*
G75*
G02*
X136400001Y-114100000I-249999J0D01*
G01*
X135099999Y-114100000D01*
G75*
G02*
X134850000Y-113850001I0J249999D01*
G01*
X134850000Y-113199999D01*
G75*
G02*
X135099999Y-112950000I249999J0D01*
G01*
G37*
D16*
X195000000Y-134000000D03*
X105000000Y-134000000D03*
X195000000Y-76000000D03*
G36*
G01*
X136225000Y-109550000D02*
X135275000Y-109550000D01*
G75*
G02*
X135025000Y-109300000I0J250000D01*
G01*
X135025000Y-108800000D01*
G75*
G02*
X135275000Y-108550000I250000J0D01*
G01*
X136225000Y-108550000D01*
G75*
G02*
X136475000Y-108800000I0J-250000D01*
G01*
X136475000Y-109300000D01*
G75*
G02*
X136225000Y-109550000I-250000J0D01*
G01*
G37*
G36*
G01*
X136225000Y-111450000D02*
X135275000Y-111450000D01*
G75*
G02*
X135025000Y-111200000I0J250000D01*
G01*
X135025000Y-110700000D01*
G75*
G02*
X135275000Y-110450000I250000J0D01*
G01*
X136225000Y-110450000D01*
G75*
G02*
X136475000Y-110700000I0J-250000D01*
G01*
X136475000Y-111200000D01*
G75*
G02*
X136225000Y-111450000I-250000J0D01*
G01*
G37*
D17*
X132400000Y-115000000D03*
X128900000Y-115000000D03*
D18*
X178000000Y-136500000D03*
D19*
X170130000Y-136500000D03*
X185870000Y-136500000D03*
G36*
G01*
X161295000Y-76550000D02*
X161595000Y-76550000D01*
G75*
G02*
X161745000Y-76700000I0J-150000D01*
G01*
X161745000Y-78150000D01*
G75*
G02*
X161595000Y-78300000I-150000J0D01*
G01*
X161295000Y-78300000D01*
G75*
G02*
X161145000Y-78150000I0J150000D01*
G01*
X161145000Y-76700000D01*
G75*
G02*
X161295000Y-76550000I150000J0D01*
G01*
G37*
G36*
G01*
X160025000Y-76550000D02*
X160325000Y-76550000D01*
G75*
G02*
X160475000Y-76700000I0J-150000D01*
G01*
X160475000Y-78150000D01*
G75*
G02*
X160325000Y-78300000I-150000J0D01*
G01*
X160025000Y-78300000D01*
G75*
G02*
X159875000Y-78150000I0J150000D01*
G01*
X159875000Y-76700000D01*
G75*
G02*
X160025000Y-76550000I150000J0D01*
G01*
G37*
G36*
G01*
X158755000Y-76550000D02*
X159055000Y-76550000D01*
G75*
G02*
X159205000Y-76700000I0J-150000D01*
G01*
X159205000Y-78150000D01*
G75*
G02*
X159055000Y-78300000I-150000J0D01*
G01*
X158755000Y-78300000D01*
G75*
G02*
X158605000Y-78150000I0J150000D01*
G01*
X158605000Y-76700000D01*
G75*
G02*
X158755000Y-76550000I150000J0D01*
G01*
G37*
G36*
G01*
X157485000Y-76550000D02*
X157785000Y-76550000D01*
G75*
G02*
X157935000Y-76700000I0J-150000D01*
G01*
X157935000Y-78150000D01*
G75*
G02*
X157785000Y-78300000I-150000J0D01*
G01*
X157485000Y-78300000D01*
G75*
G02*
X157335000Y-78150000I0J150000D01*
G01*
X157335000Y-76700000D01*
G75*
G02*
X157485000Y-76550000I150000J0D01*
G01*
G37*
G36*
G01*
X156215000Y-76550000D02*
X156515000Y-76550000D01*
G75*
G02*
X156665000Y-76700000I0J-150000D01*
G01*
X156665000Y-78150000D01*
G75*
G02*
X156515000Y-78300000I-150000J0D01*
G01*
X156215000Y-78300000D01*
G75*
G02*
X156065000Y-78150000I0J150000D01*
G01*
X156065000Y-76700000D01*
G75*
G02*
X156215000Y-76550000I150000J0D01*
G01*
G37*
G36*
G01*
X154945000Y-76550000D02*
X155245000Y-76550000D01*
G75*
G02*
X155395000Y-76700000I0J-150000D01*
G01*
X155395000Y-78150000D01*
G75*
G02*
X155245000Y-78300000I-150000J0D01*
G01*
X154945000Y-78300000D01*
G75*
G02*
X154795000Y-78150000I0J150000D01*
G01*
X154795000Y-76700000D01*
G75*
G02*
X154945000Y-76550000I150000J0D01*
G01*
G37*
G36*
G01*
X153675000Y-76550000D02*
X153975000Y-76550000D01*
G75*
G02*
X154125000Y-76700000I0J-150000D01*
G01*
X154125000Y-78150000D01*
G75*
G02*
X153975000Y-78300000I-150000J0D01*
G01*
X153675000Y-78300000D01*
G75*
G02*
X153525000Y-78150000I0J150000D01*
G01*
X153525000Y-76700000D01*
G75*
G02*
X153675000Y-76550000I150000J0D01*
G01*
G37*
G36*
G01*
X152405000Y-76550000D02*
X152705000Y-76550000D01*
G75*
G02*
X152855000Y-76700000I0J-150000D01*
G01*
X152855000Y-78150000D01*
G75*
G02*
X152705000Y-78300000I-150000J0D01*
G01*
X152405000Y-78300000D01*
G75*
G02*
X152255000Y-78150000I0J150000D01*
G01*
X152255000Y-76700000D01*
G75*
G02*
X152405000Y-76550000I150000J0D01*
G01*
G37*
G36*
G01*
X152405000Y-81700000D02*
X152705000Y-81700000D01*
G75*
G02*
X152855000Y-81850000I0J-150000D01*
G01*
X152855000Y-83300000D01*
G75*
G02*
X152705000Y-83450000I-150000J0D01*
G01*
X152405000Y-83450000D01*
G75*
G02*
X152255000Y-83300000I0J150000D01*
G01*
X152255000Y-81850000D01*
G75*
G02*
X152405000Y-81700000I150000J0D01*
G01*
G37*
G36*
G01*
X153675000Y-81700000D02*
X153975000Y-81700000D01*
G75*
G02*
X154125000Y-81850000I0J-150000D01*
G01*
X154125000Y-83300000D01*
G75*
G02*
X153975000Y-83450000I-150000J0D01*
G01*
X153675000Y-83450000D01*
G75*
G02*
X153525000Y-83300000I0J150000D01*
G01*
X153525000Y-81850000D01*
G75*
G02*
X153675000Y-81700000I150000J0D01*
G01*
G37*
G36*
G01*
X154945000Y-81700000D02*
X155245000Y-81700000D01*
G75*
G02*
X155395000Y-81850000I0J-150000D01*
G01*
X155395000Y-83300000D01*
G75*
G02*
X155245000Y-83450000I-150000J0D01*
G01*
X154945000Y-83450000D01*
G75*
G02*
X154795000Y-83300000I0J150000D01*
G01*
X154795000Y-81850000D01*
G75*
G02*
X154945000Y-81700000I150000J0D01*
G01*
G37*
G36*
G01*
X156215000Y-81700000D02*
X156515000Y-81700000D01*
G75*
G02*
X156665000Y-81850000I0J-150000D01*
G01*
X156665000Y-83300000D01*
G75*
G02*
X156515000Y-83450000I-150000J0D01*
G01*
X156215000Y-83450000D01*
G75*
G02*
X156065000Y-83300000I0J150000D01*
G01*
X156065000Y-81850000D01*
G75*
G02*
X156215000Y-81700000I150000J0D01*
G01*
G37*
G36*
G01*
X157485000Y-81700000D02*
X157785000Y-81700000D01*
G75*
G02*
X157935000Y-81850000I0J-150000D01*
G01*
X157935000Y-83300000D01*
G75*
G02*
X157785000Y-83450000I-150000J0D01*
G01*
X157485000Y-83450000D01*
G75*
G02*
X157335000Y-83300000I0J150000D01*
G01*
X157335000Y-81850000D01*
G75*
G02*
X157485000Y-81700000I150000J0D01*
G01*
G37*
G36*
G01*
X158755000Y-81700000D02*
X159055000Y-81700000D01*
G75*
G02*
X159205000Y-81850000I0J-150000D01*
G01*
X159205000Y-83300000D01*
G75*
G02*
X159055000Y-83450000I-150000J0D01*
G01*
X158755000Y-83450000D01*
G75*
G02*
X158605000Y-83300000I0J150000D01*
G01*
X158605000Y-81850000D01*
G75*
G02*
X158755000Y-81700000I150000J0D01*
G01*
G37*
G36*
G01*
X160025000Y-81700000D02*
X160325000Y-81700000D01*
G75*
G02*
X160475000Y-81850000I0J-150000D01*
G01*
X160475000Y-83300000D01*
G75*
G02*
X160325000Y-83450000I-150000J0D01*
G01*
X160025000Y-83450000D01*
G75*
G02*
X159875000Y-83300000I0J150000D01*
G01*
X159875000Y-81850000D01*
G75*
G02*
X160025000Y-81700000I150000J0D01*
G01*
G37*
G36*
G01*
X161295000Y-81700000D02*
X161595000Y-81700000D01*
G75*
G02*
X161745000Y-81850000I0J-150000D01*
G01*
X161745000Y-83300000D01*
G75*
G02*
X161595000Y-83450000I-150000J0D01*
G01*
X161295000Y-83450000D01*
G75*
G02*
X161145000Y-83300000I0J150000D01*
G01*
X161145000Y-81850000D01*
G75*
G02*
X161295000Y-81700000I150000J0D01*
G01*
G37*
G36*
G01*
X147295000Y-76550000D02*
X147595000Y-76550000D01*
G75*
G02*
X147745000Y-76700000I0J-150000D01*
G01*
X147745000Y-78150000D01*
G75*
G02*
X147595000Y-78300000I-150000J0D01*
G01*
X147295000Y-78300000D01*
G75*
G02*
X147145000Y-78150000I0J150000D01*
G01*
X147145000Y-76700000D01*
G75*
G02*
X147295000Y-76550000I150000J0D01*
G01*
G37*
G36*
G01*
X146025000Y-76550000D02*
X146325000Y-76550000D01*
G75*
G02*
X146475000Y-76700000I0J-150000D01*
G01*
X146475000Y-78150000D01*
G75*
G02*
X146325000Y-78300000I-150000J0D01*
G01*
X146025000Y-78300000D01*
G75*
G02*
X145875000Y-78150000I0J150000D01*
G01*
X145875000Y-76700000D01*
G75*
G02*
X146025000Y-76550000I150000J0D01*
G01*
G37*
G36*
G01*
X144755000Y-76550000D02*
X145055000Y-76550000D01*
G75*
G02*
X145205000Y-76700000I0J-150000D01*
G01*
X145205000Y-78150000D01*
G75*
G02*
X145055000Y-78300000I-150000J0D01*
G01*
X144755000Y-78300000D01*
G75*
G02*
X144605000Y-78150000I0J150000D01*
G01*
X144605000Y-76700000D01*
G75*
G02*
X144755000Y-76550000I150000J0D01*
G01*
G37*
G36*
G01*
X143485000Y-76550000D02*
X143785000Y-76550000D01*
G75*
G02*
X143935000Y-76700000I0J-150000D01*
G01*
X143935000Y-78150000D01*
G75*
G02*
X143785000Y-78300000I-150000J0D01*
G01*
X143485000Y-78300000D01*
G75*
G02*
X143335000Y-78150000I0J150000D01*
G01*
X143335000Y-76700000D01*
G75*
G02*
X143485000Y-76550000I150000J0D01*
G01*
G37*
G36*
G01*
X142215000Y-76550000D02*
X142515000Y-76550000D01*
G75*
G02*
X142665000Y-76700000I0J-150000D01*
G01*
X142665000Y-78150000D01*
G75*
G02*
X142515000Y-78300000I-150000J0D01*
G01*
X142215000Y-78300000D01*
G75*
G02*
X142065000Y-78150000I0J150000D01*
G01*
X142065000Y-76700000D01*
G75*
G02*
X142215000Y-76550000I150000J0D01*
G01*
G37*
G36*
G01*
X140945000Y-76550000D02*
X141245000Y-76550000D01*
G75*
G02*
X141395000Y-76700000I0J-150000D01*
G01*
X141395000Y-78150000D01*
G75*
G02*
X141245000Y-78300000I-150000J0D01*
G01*
X140945000Y-78300000D01*
G75*
G02*
X140795000Y-78150000I0J150000D01*
G01*
X140795000Y-76700000D01*
G75*
G02*
X140945000Y-76550000I150000J0D01*
G01*
G37*
G36*
G01*
X139675000Y-76550000D02*
X139975000Y-76550000D01*
G75*
G02*
X140125000Y-76700000I0J-150000D01*
G01*
X140125000Y-78150000D01*
G75*
G02*
X139975000Y-78300000I-150000J0D01*
G01*
X139675000Y-78300000D01*
G75*
G02*
X139525000Y-78150000I0J150000D01*
G01*
X139525000Y-76700000D01*
G75*
G02*
X139675000Y-76550000I150000J0D01*
G01*
G37*
G36*
G01*
X138405000Y-76550000D02*
X138705000Y-76550000D01*
G75*
G02*
X138855000Y-76700000I0J-150000D01*
G01*
X138855000Y-78150000D01*
G75*
G02*
X138705000Y-78300000I-150000J0D01*
G01*
X138405000Y-78300000D01*
G75*
G02*
X138255000Y-78150000I0J150000D01*
G01*
X138255000Y-76700000D01*
G75*
G02*
X138405000Y-76550000I150000J0D01*
G01*
G37*
G36*
G01*
X138405000Y-81700000D02*
X138705000Y-81700000D01*
G75*
G02*
X138855000Y-81850000I0J-150000D01*
G01*
X138855000Y-83300000D01*
G75*
G02*
X138705000Y-83450000I-150000J0D01*
G01*
X138405000Y-83450000D01*
G75*
G02*
X138255000Y-83300000I0J150000D01*
G01*
X138255000Y-81850000D01*
G75*
G02*
X138405000Y-81700000I150000J0D01*
G01*
G37*
G36*
G01*
X139675000Y-81700000D02*
X139975000Y-81700000D01*
G75*
G02*
X140125000Y-81850000I0J-150000D01*
G01*
X140125000Y-83300000D01*
G75*
G02*
X139975000Y-83450000I-150000J0D01*
G01*
X139675000Y-83450000D01*
G75*
G02*
X139525000Y-83300000I0J150000D01*
G01*
X139525000Y-81850000D01*
G75*
G02*
X139675000Y-81700000I150000J0D01*
G01*
G37*
G36*
G01*
X140945000Y-81700000D02*
X141245000Y-81700000D01*
G75*
G02*
X141395000Y-81850000I0J-150000D01*
G01*
X141395000Y-83300000D01*
G75*
G02*
X141245000Y-83450000I-150000J0D01*
G01*
X140945000Y-83450000D01*
G75*
G02*
X140795000Y-83300000I0J150000D01*
G01*
X140795000Y-81850000D01*
G75*
G02*
X140945000Y-81700000I150000J0D01*
G01*
G37*
G36*
G01*
X142215000Y-81700000D02*
X142515000Y-81700000D01*
G75*
G02*
X142665000Y-81850000I0J-150000D01*
G01*
X142665000Y-83300000D01*
G75*
G02*
X142515000Y-83450000I-150000J0D01*
G01*
X142215000Y-83450000D01*
G75*
G02*
X142065000Y-83300000I0J150000D01*
G01*
X142065000Y-81850000D01*
G75*
G02*
X142215000Y-81700000I150000J0D01*
G01*
G37*
G36*
G01*
X143485000Y-81700000D02*
X143785000Y-81700000D01*
G75*
G02*
X143935000Y-81850000I0J-150000D01*
G01*
X143935000Y-83300000D01*
G75*
G02*
X143785000Y-83450000I-150000J0D01*
G01*
X143485000Y-83450000D01*
G75*
G02*
X143335000Y-83300000I0J150000D01*
G01*
X143335000Y-81850000D01*
G75*
G02*
X143485000Y-81700000I150000J0D01*
G01*
G37*
G36*
G01*
X144755000Y-81700000D02*
X145055000Y-81700000D01*
G75*
G02*
X145205000Y-81850000I0J-150000D01*
G01*
X145205000Y-83300000D01*
G75*
G02*
X145055000Y-83450000I-150000J0D01*
G01*
X144755000Y-83450000D01*
G75*
G02*
X144605000Y-83300000I0J150000D01*
G01*
X144605000Y-81850000D01*
G75*
G02*
X144755000Y-81700000I150000J0D01*
G01*
G37*
G36*
G01*
X146025000Y-81700000D02*
X146325000Y-81700000D01*
G75*
G02*
X146475000Y-81850000I0J-150000D01*
G01*
X146475000Y-83300000D01*
G75*
G02*
X146325000Y-83450000I-150000J0D01*
G01*
X146025000Y-83450000D01*
G75*
G02*
X145875000Y-83300000I0J150000D01*
G01*
X145875000Y-81850000D01*
G75*
G02*
X146025000Y-81700000I150000J0D01*
G01*
G37*
G36*
G01*
X147295000Y-81700000D02*
X147595000Y-81700000D01*
G75*
G02*
X147745000Y-81850000I0J-150000D01*
G01*
X147745000Y-83300000D01*
G75*
G02*
X147595000Y-83450000I-150000J0D01*
G01*
X147295000Y-83450000D01*
G75*
G02*
X147145000Y-83300000I0J150000D01*
G01*
X147145000Y-81850000D01*
G75*
G02*
X147295000Y-81700000I150000J0D01*
G01*
G37*
G36*
G01*
X120475000Y-83687500D02*
X121025000Y-83687500D01*
G75*
G02*
X121225000Y-83887500I0J-200000D01*
G01*
X121225000Y-84287500D01*
G75*
G02*
X121025000Y-84487500I-200000J0D01*
G01*
X120475000Y-84487500D01*
G75*
G02*
X120275000Y-84287500I0J200000D01*
G01*
X120275000Y-83887500D01*
G75*
G02*
X120475000Y-83687500I200000J0D01*
G01*
G37*
G36*
G01*
X120475000Y-82037500D02*
X121025000Y-82037500D01*
G75*
G02*
X121225000Y-82237500I0J-200000D01*
G01*
X121225000Y-82637500D01*
G75*
G02*
X121025000Y-82837500I-200000J0D01*
G01*
X120475000Y-82837500D01*
G75*
G02*
X120275000Y-82637500I0J200000D01*
G01*
X120275000Y-82237500D01*
G75*
G02*
X120475000Y-82037500I200000J0D01*
G01*
G37*
G36*
G01*
X136275000Y-82837500D02*
X135725000Y-82837500D01*
G75*
G02*
X135525000Y-82637500I0J200000D01*
G01*
X135525000Y-82237500D01*
G75*
G02*
X135725000Y-82037500I200000J0D01*
G01*
X136275000Y-82037500D01*
G75*
G02*
X136475000Y-82237500I0J-200000D01*
G01*
X136475000Y-82637500D01*
G75*
G02*
X136275000Y-82837500I-200000J0D01*
G01*
G37*
G36*
G01*
X136275000Y-84487500D02*
X135725000Y-84487500D01*
G75*
G02*
X135525000Y-84287500I0J200000D01*
G01*
X135525000Y-83887500D01*
G75*
G02*
X135725000Y-83687500I200000J0D01*
G01*
X136275000Y-83687500D01*
G75*
G02*
X136475000Y-83887500I0J-200000D01*
G01*
X136475000Y-84287500D01*
G75*
G02*
X136275000Y-84487500I-200000J0D01*
G01*
G37*
G36*
G01*
X118750000Y-83587500D02*
X119250000Y-83587500D01*
G75*
G02*
X119475000Y-83812500I0J-225000D01*
G01*
X119475000Y-84262500D01*
G75*
G02*
X119250000Y-84487500I-225000J0D01*
G01*
X118750000Y-84487500D01*
G75*
G02*
X118525000Y-84262500I0J225000D01*
G01*
X118525000Y-83812500D01*
G75*
G02*
X118750000Y-83587500I225000J0D01*
G01*
G37*
G36*
G01*
X118750000Y-82037500D02*
X119250000Y-82037500D01*
G75*
G02*
X119475000Y-82262500I0J-225000D01*
G01*
X119475000Y-82712500D01*
G75*
G02*
X119250000Y-82937500I-225000J0D01*
G01*
X118750000Y-82937500D01*
G75*
G02*
X118525000Y-82712500I0J225000D01*
G01*
X118525000Y-82262500D01*
G75*
G02*
X118750000Y-82037500I225000J0D01*
G01*
G37*
G36*
G01*
X144375000Y-133800000D02*
X144875000Y-133800000D01*
G75*
G02*
X145100000Y-134025000I0J-225000D01*
G01*
X145100000Y-134475000D01*
G75*
G02*
X144875000Y-134700000I-225000J0D01*
G01*
X144375000Y-134700000D01*
G75*
G02*
X144150000Y-134475000I0J225000D01*
G01*
X144150000Y-134025000D01*
G75*
G02*
X144375000Y-133800000I225000J0D01*
G01*
G37*
G36*
G01*
X144375000Y-132250000D02*
X144875000Y-132250000D01*
G75*
G02*
X145100000Y-132475000I0J-225000D01*
G01*
X145100000Y-132925000D01*
G75*
G02*
X144875000Y-133150000I-225000J0D01*
G01*
X144375000Y-133150000D01*
G75*
G02*
X144150000Y-132925000I0J225000D01*
G01*
X144150000Y-132475000D01*
G75*
G02*
X144375000Y-132250000I225000J0D01*
G01*
G37*
G36*
G01*
X142625000Y-133800000D02*
X143125000Y-133800000D01*
G75*
G02*
X143350000Y-134025000I0J-225000D01*
G01*
X143350000Y-134475000D01*
G75*
G02*
X143125000Y-134700000I-225000J0D01*
G01*
X142625000Y-134700000D01*
G75*
G02*
X142400000Y-134475000I0J225000D01*
G01*
X142400000Y-134025000D01*
G75*
G02*
X142625000Y-133800000I225000J0D01*
G01*
G37*
G36*
G01*
X142625000Y-132250000D02*
X143125000Y-132250000D01*
G75*
G02*
X143350000Y-132475000I0J-225000D01*
G01*
X143350000Y-132925000D01*
G75*
G02*
X143125000Y-133150000I-225000J0D01*
G01*
X142625000Y-133150000D01*
G75*
G02*
X142400000Y-132925000I0J225000D01*
G01*
X142400000Y-132475000D01*
G75*
G02*
X142625000Y-132250000I225000J0D01*
G01*
G37*
G36*
G01*
X131275000Y-105025450D02*
X131275000Y-103724550D01*
G75*
G02*
X131524550Y-103475000I249550J0D01*
G01*
X132175450Y-103475000D01*
G75*
G02*
X132425000Y-103724550I0J-249550D01*
G01*
X132425000Y-105025450D01*
G75*
G02*
X132175450Y-105275000I-249550J0D01*
G01*
X131524550Y-105275000D01*
G75*
G02*
X131275000Y-105025450I0J249550D01*
G01*
G37*
G36*
G01*
X128325000Y-105025001D02*
X128325000Y-103724999D01*
G75*
G02*
X128574999Y-103475000I249999J0D01*
G01*
X129225001Y-103475000D01*
G75*
G02*
X129475000Y-103724999I0J-249999D01*
G01*
X129475000Y-105025001D01*
G75*
G02*
X129225001Y-105275000I-249999J0D01*
G01*
X128574999Y-105275000D01*
G75*
G02*
X128325000Y-105025001I0J249999D01*
G01*
G37*
D20*
X128900000Y-110000000D03*
X128900000Y-110950000D03*
X128900000Y-109050000D03*
X131100000Y-109050000D03*
X131100000Y-110000000D03*
X131100000Y-110950000D03*
D21*
X150000000Y-105180000D03*
D16*
X145550000Y-95790000D03*
X145450000Y-100210000D03*
X154550000Y-100210000D03*
X154550000Y-95790000D03*
G36*
G01*
X133750000Y-109675000D02*
X133250000Y-109675000D01*
G75*
G02*
X133025000Y-109450000I0J225000D01*
G01*
X133025000Y-109000000D01*
G75*
G02*
X133250000Y-108775000I225000J0D01*
G01*
X133750000Y-108775000D01*
G75*
G02*
X133975000Y-109000000I0J-225000D01*
G01*
X133975000Y-109450000D01*
G75*
G02*
X133750000Y-109675000I-225000J0D01*
G01*
G37*
G36*
G01*
X133750000Y-111225000D02*
X133250000Y-111225000D01*
G75*
G02*
X133025000Y-111000000I0J225000D01*
G01*
X133025000Y-110550000D01*
G75*
G02*
X133250000Y-110325000I225000J0D01*
G01*
X133750000Y-110325000D01*
G75*
G02*
X133975000Y-110550000I0J-225000D01*
G01*
X133975000Y-111000000D01*
G75*
G02*
X133750000Y-111225000I-225000J0D01*
G01*
G37*
D22*
X133800000Y-100500000D03*
X129500000Y-100500000D03*
D23*
X129500000Y-95790000D03*
X133500000Y-95790000D03*
D24*
X195000000Y-140000000D03*
X105000000Y-140000000D03*
X195000000Y-70000000D03*
X105000000Y-70000000D03*
D25*
X138860000Y-138730000D03*
X138860000Y-141270000D03*
X136320000Y-138730000D03*
X136320000Y-141270000D03*
X133780000Y-138730000D03*
X133780000Y-141270000D03*
X131240000Y-138730000D03*
X131240000Y-141270000D03*
X128700000Y-138730000D03*
D26*
X128700000Y-141270000D03*
G36*
G01*
X181735000Y-123603750D02*
X181735000Y-124116250D01*
G75*
G02*
X181516250Y-124335000I-218750J0D01*
G01*
X181078750Y-124335000D01*
G75*
G02*
X180860000Y-124116250I0J218750D01*
G01*
X180860000Y-123603750D01*
G75*
G02*
X181078750Y-123385000I218750J0D01*
G01*
X181516250Y-123385000D01*
G75*
G02*
X181735000Y-123603750I0J-218750D01*
G01*
G37*
G36*
G01*
X180160000Y-123603750D02*
X180160000Y-124116250D01*
G75*
G02*
X179941250Y-124335000I-218750J0D01*
G01*
X179503750Y-124335000D01*
G75*
G02*
X179285000Y-124116250I0J218750D01*
G01*
X179285000Y-123603750D01*
G75*
G02*
X179503750Y-123385000I218750J0D01*
G01*
X179941250Y-123385000D01*
G75*
G02*
X180160000Y-123603750I0J-218750D01*
G01*
G37*
G36*
G01*
X180160000Y-121853750D02*
X180160000Y-122366250D01*
G75*
G02*
X179941250Y-122585000I-218750J0D01*
G01*
X179503750Y-122585000D01*
G75*
G02*
X179285000Y-122366250I0J218750D01*
G01*
X179285000Y-121853750D01*
G75*
G02*
X179503750Y-121635000I218750J0D01*
G01*
X179941250Y-121635000D01*
G75*
G02*
X180160000Y-121853750I0J-218750D01*
G01*
G37*
G36*
G01*
X181735000Y-121853750D02*
X181735000Y-122366250D01*
G75*
G02*
X181516250Y-122585000I-218750J0D01*
G01*
X181078750Y-122585000D01*
G75*
G02*
X180860000Y-122366250I0J218750D01*
G01*
X180860000Y-121853750D01*
G75*
G02*
X181078750Y-121635000I218750J0D01*
G01*
X181516250Y-121635000D01*
G75*
G02*
X181735000Y-121853750I0J-218750D01*
G01*
G37*
G36*
G01*
X186850000Y-124116250D02*
X186850000Y-123603750D01*
G75*
G02*
X187068750Y-123385000I218750J0D01*
G01*
X187506250Y-123385000D01*
G75*
G02*
X187725000Y-123603750I0J-218750D01*
G01*
X187725000Y-124116250D01*
G75*
G02*
X187506250Y-124335000I-218750J0D01*
G01*
X187068750Y-124335000D01*
G75*
G02*
X186850000Y-124116250I0J218750D01*
G01*
G37*
G36*
G01*
X185275000Y-124116250D02*
X185275000Y-123603750D01*
G75*
G02*
X185493750Y-123385000I218750J0D01*
G01*
X185931250Y-123385000D01*
G75*
G02*
X186150000Y-123603750I0J-218750D01*
G01*
X186150000Y-124116250D01*
G75*
G02*
X185931250Y-124335000I-218750J0D01*
G01*
X185493750Y-124335000D01*
G75*
G02*
X185275000Y-124116250I0J218750D01*
G01*
G37*
G36*
G01*
X186850000Y-122366250D02*
X186850000Y-121853750D01*
G75*
G02*
X187068750Y-121635000I218750J0D01*
G01*
X187506250Y-121635000D01*
G75*
G02*
X187725000Y-121853750I0J-218750D01*
G01*
X187725000Y-122366250D01*
G75*
G02*
X187506250Y-122585000I-218750J0D01*
G01*
X187068750Y-122585000D01*
G75*
G02*
X186850000Y-122366250I0J218750D01*
G01*
G37*
G36*
G01*
X185275000Y-122366250D02*
X185275000Y-121853750D01*
G75*
G02*
X185493750Y-121635000I218750J0D01*
G01*
X185931250Y-121635000D01*
G75*
G02*
X186150000Y-121853750I0J-218750D01*
G01*
X186150000Y-122366250D01*
G75*
G02*
X185931250Y-122585000I-218750J0D01*
G01*
X185493750Y-122585000D01*
G75*
G02*
X185275000Y-122366250I0J218750D01*
G01*
G37*
G36*
G01*
X186850000Y-120616250D02*
X186850000Y-120103750D01*
G75*
G02*
X187068750Y-119885000I218750J0D01*
G01*
X187506250Y-119885000D01*
G75*
G02*
X187725000Y-120103750I0J-218750D01*
G01*
X187725000Y-120616250D01*
G75*
G02*
X187506250Y-120835000I-218750J0D01*
G01*
X187068750Y-120835000D01*
G75*
G02*
X186850000Y-120616250I0J218750D01*
G01*
G37*
G36*
G01*
X185275000Y-120616250D02*
X185275000Y-120103750D01*
G75*
G02*
X185493750Y-119885000I218750J0D01*
G01*
X185931250Y-119885000D01*
G75*
G02*
X186150000Y-120103750I0J-218750D01*
G01*
X186150000Y-120616250D01*
G75*
G02*
X185931250Y-120835000I-218750J0D01*
G01*
X185493750Y-120835000D01*
G75*
G02*
X185275000Y-120616250I0J218750D01*
G01*
G37*
G36*
G01*
X186850000Y-118866250D02*
X186850000Y-118353750D01*
G75*
G02*
X187068750Y-118135000I218750J0D01*
G01*
X187506250Y-118135000D01*
G75*
G02*
X187725000Y-118353750I0J-218750D01*
G01*
X187725000Y-118866250D01*
G75*
G02*
X187506250Y-119085000I-218750J0D01*
G01*
X187068750Y-119085000D01*
G75*
G02*
X186850000Y-118866250I0J218750D01*
G01*
G37*
G36*
G01*
X185275000Y-118866250D02*
X185275000Y-118353750D01*
G75*
G02*
X185493750Y-118135000I218750J0D01*
G01*
X185931250Y-118135000D01*
G75*
G02*
X186150000Y-118353750I0J-218750D01*
G01*
X186150000Y-118866250D01*
G75*
G02*
X185931250Y-119085000I-218750J0D01*
G01*
X185493750Y-119085000D01*
G75*
G02*
X185275000Y-118866250I0J218750D01*
G01*
G37*
G36*
G01*
X186850000Y-117116250D02*
X186850000Y-116603750D01*
G75*
G02*
X187068750Y-116385000I218750J0D01*
G01*
X187506250Y-116385000D01*
G75*
G02*
X187725000Y-116603750I0J-218750D01*
G01*
X187725000Y-117116250D01*
G75*
G02*
X187506250Y-117335000I-218750J0D01*
G01*
X187068750Y-117335000D01*
G75*
G02*
X186850000Y-117116250I0J218750D01*
G01*
G37*
G36*
G01*
X185275000Y-117116250D02*
X185275000Y-116603750D01*
G75*
G02*
X185493750Y-116385000I218750J0D01*
G01*
X185931250Y-116385000D01*
G75*
G02*
X186150000Y-116603750I0J-218750D01*
G01*
X186150000Y-117116250D01*
G75*
G02*
X185931250Y-117335000I-218750J0D01*
G01*
X185493750Y-117335000D01*
G75*
G02*
X185275000Y-117116250I0J218750D01*
G01*
G37*
G36*
G01*
X186850000Y-115366250D02*
X186850000Y-114853750D01*
G75*
G02*
X187068750Y-114635000I218750J0D01*
G01*
X187506250Y-114635000D01*
G75*
G02*
X187725000Y-114853750I0J-218750D01*
G01*
X187725000Y-115366250D01*
G75*
G02*
X187506250Y-115585000I-218750J0D01*
G01*
X187068750Y-115585000D01*
G75*
G02*
X186850000Y-115366250I0J218750D01*
G01*
G37*
G36*
G01*
X185275000Y-115366250D02*
X185275000Y-114853750D01*
G75*
G02*
X185493750Y-114635000I218750J0D01*
G01*
X185931250Y-114635000D01*
G75*
G02*
X186150000Y-114853750I0J-218750D01*
G01*
X186150000Y-115366250D01*
G75*
G02*
X185931250Y-115585000I-218750J0D01*
G01*
X185493750Y-115585000D01*
G75*
G02*
X185275000Y-115366250I0J218750D01*
G01*
G37*
D27*
X170650000Y-91270000D03*
X164350000Y-88730000D03*
X170650000Y-88730000D03*
X164350000Y-91270000D03*
G36*
G01*
X162243750Y-90350000D02*
X162756250Y-90350000D01*
G75*
G02*
X162975000Y-90568750I0J-218750D01*
G01*
X162975000Y-91006250D01*
G75*
G02*
X162756250Y-91225000I-218750J0D01*
G01*
X162243750Y-91225000D01*
G75*
G02*
X162025000Y-91006250I0J218750D01*
G01*
X162025000Y-90568750D01*
G75*
G02*
X162243750Y-90350000I218750J0D01*
G01*
G37*
G36*
G01*
X162243750Y-88775000D02*
X162756250Y-88775000D01*
G75*
G02*
X162975000Y-88993750I0J-218750D01*
G01*
X162975000Y-89431250D01*
G75*
G02*
X162756250Y-89650000I-218750J0D01*
G01*
X162243750Y-89650000D01*
G75*
G02*
X162025000Y-89431250I0J218750D01*
G01*
X162025000Y-88993750D01*
G75*
G02*
X162243750Y-88775000I218750J0D01*
G01*
G37*
G36*
G01*
X172243750Y-90350000D02*
X172756250Y-90350000D01*
G75*
G02*
X172975000Y-90568750I0J-218750D01*
G01*
X172975000Y-91006250D01*
G75*
G02*
X172756250Y-91225000I-218750J0D01*
G01*
X172243750Y-91225000D01*
G75*
G02*
X172025000Y-91006250I0J218750D01*
G01*
X172025000Y-90568750D01*
G75*
G02*
X172243750Y-90350000I218750J0D01*
G01*
G37*
G36*
G01*
X172243750Y-88775000D02*
X172756250Y-88775000D01*
G75*
G02*
X172975000Y-88993750I0J-218750D01*
G01*
X172975000Y-89431250D01*
G75*
G02*
X172756250Y-89650000I-218750J0D01*
G01*
X172243750Y-89650000D01*
G75*
G02*
X172025000Y-89431250I0J218750D01*
G01*
X172025000Y-88993750D01*
G75*
G02*
X172243750Y-88775000I218750J0D01*
G01*
G37*
G36*
G01*
X156650000Y-132243750D02*
X156650000Y-132756250D01*
G75*
G02*
X156431250Y-132975000I-218750J0D01*
G01*
X155993750Y-132975000D01*
G75*
G02*
X155775000Y-132756250I0J218750D01*
G01*
X155775000Y-132243750D01*
G75*
G02*
X155993750Y-132025000I218750J0D01*
G01*
X156431250Y-132025000D01*
G75*
G02*
X156650000Y-132243750I0J-218750D01*
G01*
G37*
G36*
G01*
X158225000Y-132243750D02*
X158225000Y-132756250D01*
G75*
G02*
X158006250Y-132975000I-218750J0D01*
G01*
X157568750Y-132975000D01*
G75*
G02*
X157350000Y-132756250I0J218750D01*
G01*
X157350000Y-132243750D01*
G75*
G02*
X157568750Y-132025000I218750J0D01*
G01*
X158006250Y-132025000D01*
G75*
G02*
X158225000Y-132243750I0J-218750D01*
G01*
G37*
D28*
X154750000Y-115750000D03*
X145250000Y-125250000D03*
G36*
G01*
X146500000Y-123400000D02*
X145175000Y-123400000D01*
G75*
G02*
X145100000Y-123325000I0J75000D01*
G01*
X145100000Y-123175000D01*
G75*
G02*
X145175000Y-123100000I75000J0D01*
G01*
X146500000Y-123100000D01*
G75*
G02*
X146575000Y-123175000I0J-75000D01*
G01*
X146575000Y-123325000D01*
G75*
G02*
X146500000Y-123400000I-75000J0D01*
G01*
G37*
G36*
G01*
X146500000Y-122900000D02*
X145175000Y-122900000D01*
G75*
G02*
X145100000Y-122825000I0J75000D01*
G01*
X145100000Y-122675000D01*
G75*
G02*
X145175000Y-122600000I75000J0D01*
G01*
X146500000Y-122600000D01*
G75*
G02*
X146575000Y-122675000I0J-75000D01*
G01*
X146575000Y-122825000D01*
G75*
G02*
X146500000Y-122900000I-75000J0D01*
G01*
G37*
G36*
G01*
X146500000Y-122400000D02*
X145175000Y-122400000D01*
G75*
G02*
X145100000Y-122325000I0J75000D01*
G01*
X145100000Y-122175000D01*
G75*
G02*
X145175000Y-122100000I75000J0D01*
G01*
X146500000Y-122100000D01*
G75*
G02*
X146575000Y-122175000I0J-75000D01*
G01*
X146575000Y-122325000D01*
G75*
G02*
X146500000Y-122400000I-75000J0D01*
G01*
G37*
G36*
G01*
X146500000Y-121900000D02*
X145175000Y-121900000D01*
G75*
G02*
X145100000Y-121825000I0J75000D01*
G01*
X145100000Y-121675000D01*
G75*
G02*
X145175000Y-121600000I75000J0D01*
G01*
X146500000Y-121600000D01*
G75*
G02*
X146575000Y-121675000I0J-75000D01*
G01*
X146575000Y-121825000D01*
G75*
G02*
X146500000Y-121900000I-75000J0D01*
G01*
G37*
G36*
G01*
X146500000Y-121400000D02*
X145175000Y-121400000D01*
G75*
G02*
X145100000Y-121325000I0J75000D01*
G01*
X145100000Y-121175000D01*
G75*
G02*
X145175000Y-121100000I75000J0D01*
G01*
X146500000Y-121100000D01*
G75*
G02*
X146575000Y-121175000I0J-75000D01*
G01*
X146575000Y-121325000D01*
G75*
G02*
X146500000Y-121400000I-75000J0D01*
G01*
G37*
G36*
G01*
X146500000Y-120900000D02*
X145175000Y-120900000D01*
G75*
G02*
X145100000Y-120825000I0J75000D01*
G01*
X145100000Y-120675000D01*
G75*
G02*
X145175000Y-120600000I75000J0D01*
G01*
X146500000Y-120600000D01*
G75*
G02*
X146575000Y-120675000I0J-75000D01*
G01*
X146575000Y-120825000D01*
G75*
G02*
X146500000Y-120900000I-75000J0D01*
G01*
G37*
G36*
G01*
X146500000Y-120400000D02*
X145175000Y-120400000D01*
G75*
G02*
X145100000Y-120325000I0J75000D01*
G01*
X145100000Y-120175000D01*
G75*
G02*
X145175000Y-120100000I75000J0D01*
G01*
X146500000Y-120100000D01*
G75*
G02*
X146575000Y-120175000I0J-75000D01*
G01*
X146575000Y-120325000D01*
G75*
G02*
X146500000Y-120400000I-75000J0D01*
G01*
G37*
G36*
G01*
X146500000Y-119900000D02*
X145175000Y-119900000D01*
G75*
G02*
X145100000Y-119825000I0J75000D01*
G01*
X145100000Y-119675000D01*
G75*
G02*
X145175000Y-119600000I75000J0D01*
G01*
X146500000Y-119600000D01*
G75*
G02*
X146575000Y-119675000I0J-75000D01*
G01*
X146575000Y-119825000D01*
G75*
G02*
X146500000Y-119900000I-75000J0D01*
G01*
G37*
G36*
G01*
X146500000Y-119400000D02*
X145175000Y-119400000D01*
G75*
G02*
X145100000Y-119325000I0J75000D01*
G01*
X145100000Y-119175000D01*
G75*
G02*
X145175000Y-119100000I75000J0D01*
G01*
X146500000Y-119100000D01*
G75*
G02*
X146575000Y-119175000I0J-75000D01*
G01*
X146575000Y-119325000D01*
G75*
G02*
X146500000Y-119400000I-75000J0D01*
G01*
G37*
G36*
G01*
X146500000Y-118900000D02*
X145175000Y-118900000D01*
G75*
G02*
X145100000Y-118825000I0J75000D01*
G01*
X145100000Y-118675000D01*
G75*
G02*
X145175000Y-118600000I75000J0D01*
G01*
X146500000Y-118600000D01*
G75*
G02*
X146575000Y-118675000I0J-75000D01*
G01*
X146575000Y-118825000D01*
G75*
G02*
X146500000Y-118900000I-75000J0D01*
G01*
G37*
G36*
G01*
X146500000Y-118400000D02*
X145175000Y-118400000D01*
G75*
G02*
X145100000Y-118325000I0J75000D01*
G01*
X145100000Y-118175000D01*
G75*
G02*
X145175000Y-118100000I75000J0D01*
G01*
X146500000Y-118100000D01*
G75*
G02*
X146575000Y-118175000I0J-75000D01*
G01*
X146575000Y-118325000D01*
G75*
G02*
X146500000Y-118400000I-75000J0D01*
G01*
G37*
G36*
G01*
X146500000Y-117900000D02*
X145175000Y-117900000D01*
G75*
G02*
X145100000Y-117825000I0J75000D01*
G01*
X145100000Y-117675000D01*
G75*
G02*
X145175000Y-117600000I75000J0D01*
G01*
X146500000Y-117600000D01*
G75*
G02*
X146575000Y-117675000I0J-75000D01*
G01*
X146575000Y-117825000D01*
G75*
G02*
X146500000Y-117900000I-75000J0D01*
G01*
G37*
G36*
G01*
X147325000Y-117075000D02*
X147175000Y-117075000D01*
G75*
G02*
X147100000Y-117000000I0J75000D01*
G01*
X147100000Y-115675000D01*
G75*
G02*
X147175000Y-115600000I75000J0D01*
G01*
X147325000Y-115600000D01*
G75*
G02*
X147400000Y-115675000I0J-75000D01*
G01*
X147400000Y-117000000D01*
G75*
G02*
X147325000Y-117075000I-75000J0D01*
G01*
G37*
G36*
G01*
X147825000Y-117075000D02*
X147675000Y-117075000D01*
G75*
G02*
X147600000Y-117000000I0J75000D01*
G01*
X147600000Y-115675000D01*
G75*
G02*
X147675000Y-115600000I75000J0D01*
G01*
X147825000Y-115600000D01*
G75*
G02*
X147900000Y-115675000I0J-75000D01*
G01*
X147900000Y-117000000D01*
G75*
G02*
X147825000Y-117075000I-75000J0D01*
G01*
G37*
G36*
G01*
X148325000Y-117075000D02*
X148175000Y-117075000D01*
G75*
G02*
X148100000Y-117000000I0J75000D01*
G01*
X148100000Y-115675000D01*
G75*
G02*
X148175000Y-115600000I75000J0D01*
G01*
X148325000Y-115600000D01*
G75*
G02*
X148400000Y-115675000I0J-75000D01*
G01*
X148400000Y-117000000D01*
G75*
G02*
X148325000Y-117075000I-75000J0D01*
G01*
G37*
G36*
G01*
X148825000Y-117075000D02*
X148675000Y-117075000D01*
G75*
G02*
X148600000Y-117000000I0J75000D01*
G01*
X148600000Y-115675000D01*
G75*
G02*
X148675000Y-115600000I75000J0D01*
G01*
X148825000Y-115600000D01*
G75*
G02*
X148900000Y-115675000I0J-75000D01*
G01*
X148900000Y-117000000D01*
G75*
G02*
X148825000Y-117075000I-75000J0D01*
G01*
G37*
G36*
G01*
X149325000Y-117075000D02*
X149175000Y-117075000D01*
G75*
G02*
X149100000Y-117000000I0J75000D01*
G01*
X149100000Y-115675000D01*
G75*
G02*
X149175000Y-115600000I75000J0D01*
G01*
X149325000Y-115600000D01*
G75*
G02*
X149400000Y-115675000I0J-75000D01*
G01*
X149400000Y-117000000D01*
G75*
G02*
X149325000Y-117075000I-75000J0D01*
G01*
G37*
G36*
G01*
X149825000Y-117075000D02*
X149675000Y-117075000D01*
G75*
G02*
X149600000Y-117000000I0J75000D01*
G01*
X149600000Y-115675000D01*
G75*
G02*
X149675000Y-115600000I75000J0D01*
G01*
X149825000Y-115600000D01*
G75*
G02*
X149900000Y-115675000I0J-75000D01*
G01*
X149900000Y-117000000D01*
G75*
G02*
X149825000Y-117075000I-75000J0D01*
G01*
G37*
G36*
G01*
X150325000Y-117075000D02*
X150175000Y-117075000D01*
G75*
G02*
X150100000Y-117000000I0J75000D01*
G01*
X150100000Y-115675000D01*
G75*
G02*
X150175000Y-115600000I75000J0D01*
G01*
X150325000Y-115600000D01*
G75*
G02*
X150400000Y-115675000I0J-75000D01*
G01*
X150400000Y-117000000D01*
G75*
G02*
X150325000Y-117075000I-75000J0D01*
G01*
G37*
G36*
G01*
X150825000Y-117075000D02*
X150675000Y-117075000D01*
G75*
G02*
X150600000Y-117000000I0J75000D01*
G01*
X150600000Y-115675000D01*
G75*
G02*
X150675000Y-115600000I75000J0D01*
G01*
X150825000Y-115600000D01*
G75*
G02*
X150900000Y-115675000I0J-75000D01*
G01*
X150900000Y-117000000D01*
G75*
G02*
X150825000Y-117075000I-75000J0D01*
G01*
G37*
G36*
G01*
X151325000Y-117075000D02*
X151175000Y-117075000D01*
G75*
G02*
X151100000Y-117000000I0J75000D01*
G01*
X151100000Y-115675000D01*
G75*
G02*
X151175000Y-115600000I75000J0D01*
G01*
X151325000Y-115600000D01*
G75*
G02*
X151400000Y-115675000I0J-75000D01*
G01*
X151400000Y-117000000D01*
G75*
G02*
X151325000Y-117075000I-75000J0D01*
G01*
G37*
G36*
G01*
X151825000Y-117075000D02*
X151675000Y-117075000D01*
G75*
G02*
X151600000Y-117000000I0J75000D01*
G01*
X151600000Y-115675000D01*
G75*
G02*
X151675000Y-115600000I75000J0D01*
G01*
X151825000Y-115600000D01*
G75*
G02*
X151900000Y-115675000I0J-75000D01*
G01*
X151900000Y-117000000D01*
G75*
G02*
X151825000Y-117075000I-75000J0D01*
G01*
G37*
G36*
G01*
X152325000Y-117075000D02*
X152175000Y-117075000D01*
G75*
G02*
X152100000Y-117000000I0J75000D01*
G01*
X152100000Y-115675000D01*
G75*
G02*
X152175000Y-115600000I75000J0D01*
G01*
X152325000Y-115600000D01*
G75*
G02*
X152400000Y-115675000I0J-75000D01*
G01*
X152400000Y-117000000D01*
G75*
G02*
X152325000Y-117075000I-75000J0D01*
G01*
G37*
G36*
G01*
X152825000Y-117075000D02*
X152675000Y-117075000D01*
G75*
G02*
X152600000Y-117000000I0J75000D01*
G01*
X152600000Y-115675000D01*
G75*
G02*
X152675000Y-115600000I75000J0D01*
G01*
X152825000Y-115600000D01*
G75*
G02*
X152900000Y-115675000I0J-75000D01*
G01*
X152900000Y-117000000D01*
G75*
G02*
X152825000Y-117075000I-75000J0D01*
G01*
G37*
G36*
G01*
X154825000Y-117900000D02*
X153500000Y-117900000D01*
G75*
G02*
X153425000Y-117825000I0J75000D01*
G01*
X153425000Y-117675000D01*
G75*
G02*
X153500000Y-117600000I75000J0D01*
G01*
X154825000Y-117600000D01*
G75*
G02*
X154900000Y-117675000I0J-75000D01*
G01*
X154900000Y-117825000D01*
G75*
G02*
X154825000Y-117900000I-75000J0D01*
G01*
G37*
G36*
G01*
X154825000Y-118400000D02*
X153500000Y-118400000D01*
G75*
G02*
X153425000Y-118325000I0J75000D01*
G01*
X153425000Y-118175000D01*
G75*
G02*
X153500000Y-118100000I75000J0D01*
G01*
X154825000Y-118100000D01*
G75*
G02*
X154900000Y-118175000I0J-75000D01*
G01*
X154900000Y-118325000D01*
G75*
G02*
X154825000Y-118400000I-75000J0D01*
G01*
G37*
G36*
G01*
X154825000Y-118900000D02*
X153500000Y-118900000D01*
G75*
G02*
X153425000Y-118825000I0J75000D01*
G01*
X153425000Y-118675000D01*
G75*
G02*
X153500000Y-118600000I75000J0D01*
G01*
X154825000Y-118600000D01*
G75*
G02*
X154900000Y-118675000I0J-75000D01*
G01*
X154900000Y-118825000D01*
G75*
G02*
X154825000Y-118900000I-75000J0D01*
G01*
G37*
G36*
G01*
X154825000Y-119400000D02*
X153500000Y-119400000D01*
G75*
G02*
X153425000Y-119325000I0J75000D01*
G01*
X153425000Y-119175000D01*
G75*
G02*
X153500000Y-119100000I75000J0D01*
G01*
X154825000Y-119100000D01*
G75*
G02*
X154900000Y-119175000I0J-75000D01*
G01*
X154900000Y-119325000D01*
G75*
G02*
X154825000Y-119400000I-75000J0D01*
G01*
G37*
G36*
G01*
X154825000Y-119900000D02*
X153500000Y-119900000D01*
G75*
G02*
X153425000Y-119825000I0J75000D01*
G01*
X153425000Y-119675000D01*
G75*
G02*
X153500000Y-119600000I75000J0D01*
G01*
X154825000Y-119600000D01*
G75*
G02*
X154900000Y-119675000I0J-75000D01*
G01*
X154900000Y-119825000D01*
G75*
G02*
X154825000Y-119900000I-75000J0D01*
G01*
G37*
G36*
G01*
X154825000Y-120400000D02*
X153500000Y-120400000D01*
G75*
G02*
X153425000Y-120325000I0J75000D01*
G01*
X153425000Y-120175000D01*
G75*
G02*
X153500000Y-120100000I75000J0D01*
G01*
X154825000Y-120100000D01*
G75*
G02*
X154900000Y-120175000I0J-75000D01*
G01*
X154900000Y-120325000D01*
G75*
G02*
X154825000Y-120400000I-75000J0D01*
G01*
G37*
G36*
G01*
X154825000Y-120900000D02*
X153500000Y-120900000D01*
G75*
G02*
X153425000Y-120825000I0J75000D01*
G01*
X153425000Y-120675000D01*
G75*
G02*
X153500000Y-120600000I75000J0D01*
G01*
X154825000Y-120600000D01*
G75*
G02*
X154900000Y-120675000I0J-75000D01*
G01*
X154900000Y-120825000D01*
G75*
G02*
X154825000Y-120900000I-75000J0D01*
G01*
G37*
G36*
G01*
X154825000Y-121400000D02*
X153500000Y-121400000D01*
G75*
G02*
X153425000Y-121325000I0J75000D01*
G01*
X153425000Y-121175000D01*
G75*
G02*
X153500000Y-121100000I75000J0D01*
G01*
X154825000Y-121100000D01*
G75*
G02*
X154900000Y-121175000I0J-75000D01*
G01*
X154900000Y-121325000D01*
G75*
G02*
X154825000Y-121400000I-75000J0D01*
G01*
G37*
G36*
G01*
X154825000Y-121900000D02*
X153500000Y-121900000D01*
G75*
G02*
X153425000Y-121825000I0J75000D01*
G01*
X153425000Y-121675000D01*
G75*
G02*
X153500000Y-121600000I75000J0D01*
G01*
X154825000Y-121600000D01*
G75*
G02*
X154900000Y-121675000I0J-75000D01*
G01*
X154900000Y-121825000D01*
G75*
G02*
X154825000Y-121900000I-75000J0D01*
G01*
G37*
G36*
G01*
X154825000Y-122400000D02*
X153500000Y-122400000D01*
G75*
G02*
X153425000Y-122325000I0J75000D01*
G01*
X153425000Y-122175000D01*
G75*
G02*
X153500000Y-122100000I75000J0D01*
G01*
X154825000Y-122100000D01*
G75*
G02*
X154900000Y-122175000I0J-75000D01*
G01*
X154900000Y-122325000D01*
G75*
G02*
X154825000Y-122400000I-75000J0D01*
G01*
G37*
G36*
G01*
X154825000Y-122900000D02*
X153500000Y-122900000D01*
G75*
G02*
X153425000Y-122825000I0J75000D01*
G01*
X153425000Y-122675000D01*
G75*
G02*
X153500000Y-122600000I75000J0D01*
G01*
X154825000Y-122600000D01*
G75*
G02*
X154900000Y-122675000I0J-75000D01*
G01*
X154900000Y-122825000D01*
G75*
G02*
X154825000Y-122900000I-75000J0D01*
G01*
G37*
G36*
G01*
X154825000Y-123400000D02*
X153500000Y-123400000D01*
G75*
G02*
X153425000Y-123325000I0J75000D01*
G01*
X153425000Y-123175000D01*
G75*
G02*
X153500000Y-123100000I75000J0D01*
G01*
X154825000Y-123100000D01*
G75*
G02*
X154900000Y-123175000I0J-75000D01*
G01*
X154900000Y-123325000D01*
G75*
G02*
X154825000Y-123400000I-75000J0D01*
G01*
G37*
G36*
G01*
X152825000Y-125400000D02*
X152675000Y-125400000D01*
G75*
G02*
X152600000Y-125325000I0J75000D01*
G01*
X152600000Y-124000000D01*
G75*
G02*
X152675000Y-123925000I75000J0D01*
G01*
X152825000Y-123925000D01*
G75*
G02*
X152900000Y-124000000I0J-75000D01*
G01*
X152900000Y-125325000D01*
G75*
G02*
X152825000Y-125400000I-75000J0D01*
G01*
G37*
G36*
G01*
X152325000Y-125400000D02*
X152175000Y-125400000D01*
G75*
G02*
X152100000Y-125325000I0J75000D01*
G01*
X152100000Y-124000000D01*
G75*
G02*
X152175000Y-123925000I75000J0D01*
G01*
X152325000Y-123925000D01*
G75*
G02*
X152400000Y-124000000I0J-75000D01*
G01*
X152400000Y-125325000D01*
G75*
G02*
X152325000Y-125400000I-75000J0D01*
G01*
G37*
G36*
G01*
X151825000Y-125400000D02*
X151675000Y-125400000D01*
G75*
G02*
X151600000Y-125325000I0J75000D01*
G01*
X151600000Y-124000000D01*
G75*
G02*
X151675000Y-123925000I75000J0D01*
G01*
X151825000Y-123925000D01*
G75*
G02*
X151900000Y-124000000I0J-75000D01*
G01*
X151900000Y-125325000D01*
G75*
G02*
X151825000Y-125400000I-75000J0D01*
G01*
G37*
G36*
G01*
X151325000Y-125400000D02*
X151175000Y-125400000D01*
G75*
G02*
X151100000Y-125325000I0J75000D01*
G01*
X151100000Y-124000000D01*
G75*
G02*
X151175000Y-123925000I75000J0D01*
G01*
X151325000Y-123925000D01*
G75*
G02*
X151400000Y-124000000I0J-75000D01*
G01*
X151400000Y-125325000D01*
G75*
G02*
X151325000Y-125400000I-75000J0D01*
G01*
G37*
G36*
G01*
X150825000Y-125400000D02*
X150675000Y-125400000D01*
G75*
G02*
X150600000Y-125325000I0J75000D01*
G01*
X150600000Y-124000000D01*
G75*
G02*
X150675000Y-123925000I75000J0D01*
G01*
X150825000Y-123925000D01*
G75*
G02*
X150900000Y-124000000I0J-75000D01*
G01*
X150900000Y-125325000D01*
G75*
G02*
X150825000Y-125400000I-75000J0D01*
G01*
G37*
G36*
G01*
X150325000Y-125400000D02*
X150175000Y-125400000D01*
G75*
G02*
X150100000Y-125325000I0J75000D01*
G01*
X150100000Y-124000000D01*
G75*
G02*
X150175000Y-123925000I75000J0D01*
G01*
X150325000Y-123925000D01*
G75*
G02*
X150400000Y-124000000I0J-75000D01*
G01*
X150400000Y-125325000D01*
G75*
G02*
X150325000Y-125400000I-75000J0D01*
G01*
G37*
G36*
G01*
X149825000Y-125400000D02*
X149675000Y-125400000D01*
G75*
G02*
X149600000Y-125325000I0J75000D01*
G01*
X149600000Y-124000000D01*
G75*
G02*
X149675000Y-123925000I75000J0D01*
G01*
X149825000Y-123925000D01*
G75*
G02*
X149900000Y-124000000I0J-75000D01*
G01*
X149900000Y-125325000D01*
G75*
G02*
X149825000Y-125400000I-75000J0D01*
G01*
G37*
G36*
G01*
X149325000Y-125400000D02*
X149175000Y-125400000D01*
G75*
G02*
X149100000Y-125325000I0J75000D01*
G01*
X149100000Y-124000000D01*
G75*
G02*
X149175000Y-123925000I75000J0D01*
G01*
X149325000Y-123925000D01*
G75*
G02*
X149400000Y-124000000I0J-75000D01*
G01*
X149400000Y-125325000D01*
G75*
G02*
X149325000Y-125400000I-75000J0D01*
G01*
G37*
G36*
G01*
X148825000Y-125400000D02*
X148675000Y-125400000D01*
G75*
G02*
X148600000Y-125325000I0J75000D01*
G01*
X148600000Y-124000000D01*
G75*
G02*
X148675000Y-123925000I75000J0D01*
G01*
X148825000Y-123925000D01*
G75*
G02*
X148900000Y-124000000I0J-75000D01*
G01*
X148900000Y-125325000D01*
G75*
G02*
X148825000Y-125400000I-75000J0D01*
G01*
G37*
G36*
G01*
X148325000Y-125400000D02*
X148175000Y-125400000D01*
G75*
G02*
X148100000Y-125325000I0J75000D01*
G01*
X148100000Y-124000000D01*
G75*
G02*
X148175000Y-123925000I75000J0D01*
G01*
X148325000Y-123925000D01*
G75*
G02*
X148400000Y-124000000I0J-75000D01*
G01*
X148400000Y-125325000D01*
G75*
G02*
X148325000Y-125400000I-75000J0D01*
G01*
G37*
G36*
G01*
X147825000Y-125400000D02*
X147675000Y-125400000D01*
G75*
G02*
X147600000Y-125325000I0J75000D01*
G01*
X147600000Y-124000000D01*
G75*
G02*
X147675000Y-123925000I75000J0D01*
G01*
X147825000Y-123925000D01*
G75*
G02*
X147900000Y-124000000I0J-75000D01*
G01*
X147900000Y-125325000D01*
G75*
G02*
X147825000Y-125400000I-75000J0D01*
G01*
G37*
G36*
G01*
X147325000Y-125400000D02*
X147175000Y-125400000D01*
G75*
G02*
X147100000Y-125325000I0J75000D01*
G01*
X147100000Y-124000000D01*
G75*
G02*
X147175000Y-123925000I75000J0D01*
G01*
X147325000Y-123925000D01*
G75*
G02*
X147400000Y-124000000I0J-75000D01*
G01*
X147400000Y-125325000D01*
G75*
G02*
X147325000Y-125400000I-75000J0D01*
G01*
G37*
G36*
G01*
X149650000Y-72768750D02*
X149650000Y-73281250D01*
G75*
G02*
X149431250Y-73500000I-218750J0D01*
G01*
X148993750Y-73500000D01*
G75*
G02*
X148775000Y-73281250I0J218750D01*
G01*
X148775000Y-72768750D01*
G75*
G02*
X148993750Y-72550000I218750J0D01*
G01*
X149431250Y-72550000D01*
G75*
G02*
X149650000Y-72768750I0J-218750D01*
G01*
G37*
G36*
G01*
X151225000Y-72768750D02*
X151225000Y-73281250D01*
G75*
G02*
X151006250Y-73500000I-218750J0D01*
G01*
X150568750Y-73500000D01*
G75*
G02*
X150350000Y-73281250I0J218750D01*
G01*
X150350000Y-72768750D01*
G75*
G02*
X150568750Y-72550000I218750J0D01*
G01*
X151006250Y-72550000D01*
G75*
G02*
X151225000Y-72768750I0J-218750D01*
G01*
G37*
G36*
G01*
X114090000Y-72768750D02*
X114090000Y-73281250D01*
G75*
G02*
X113871250Y-73500000I-218750J0D01*
G01*
X113433750Y-73500000D01*
G75*
G02*
X113215000Y-73281250I0J218750D01*
G01*
X113215000Y-72768750D01*
G75*
G02*
X113433750Y-72550000I218750J0D01*
G01*
X113871250Y-72550000D01*
G75*
G02*
X114090000Y-72768750I0J-218750D01*
G01*
G37*
G36*
G01*
X115665000Y-72768750D02*
X115665000Y-73281250D01*
G75*
G02*
X115446250Y-73500000I-218750J0D01*
G01*
X115008750Y-73500000D01*
G75*
G02*
X114790000Y-73281250I0J218750D01*
G01*
X114790000Y-72768750D01*
G75*
G02*
X115008750Y-72550000I218750J0D01*
G01*
X115446250Y-72550000D01*
G75*
G02*
X115665000Y-72768750I0J-218750D01*
G01*
G37*
G36*
G01*
X154730000Y-72768750D02*
X154730000Y-73281250D01*
G75*
G02*
X154511250Y-73500000I-218750J0D01*
G01*
X154073750Y-73500000D01*
G75*
G02*
X153855000Y-73281250I0J218750D01*
G01*
X153855000Y-72768750D01*
G75*
G02*
X154073750Y-72550000I218750J0D01*
G01*
X154511250Y-72550000D01*
G75*
G02*
X154730000Y-72768750I0J-218750D01*
G01*
G37*
G36*
G01*
X156305000Y-72768750D02*
X156305000Y-73281250D01*
G75*
G02*
X156086250Y-73500000I-218750J0D01*
G01*
X155648750Y-73500000D01*
G75*
G02*
X155430000Y-73281250I0J218750D01*
G01*
X155430000Y-72768750D01*
G75*
G02*
X155648750Y-72550000I218750J0D01*
G01*
X156086250Y-72550000D01*
G75*
G02*
X156305000Y-72768750I0J-218750D01*
G01*
G37*
G36*
G01*
X119170000Y-72768750D02*
X119170000Y-73281250D01*
G75*
G02*
X118951250Y-73500000I-218750J0D01*
G01*
X118513750Y-73500000D01*
G75*
G02*
X118295000Y-73281250I0J218750D01*
G01*
X118295000Y-72768750D01*
G75*
G02*
X118513750Y-72550000I218750J0D01*
G01*
X118951250Y-72550000D01*
G75*
G02*
X119170000Y-72768750I0J-218750D01*
G01*
G37*
G36*
G01*
X120745000Y-72768750D02*
X120745000Y-73281250D01*
G75*
G02*
X120526250Y-73500000I-218750J0D01*
G01*
X120088750Y-73500000D01*
G75*
G02*
X119870000Y-73281250I0J218750D01*
G01*
X119870000Y-72768750D01*
G75*
G02*
X120088750Y-72550000I218750J0D01*
G01*
X120526250Y-72550000D01*
G75*
G02*
X120745000Y-72768750I0J-218750D01*
G01*
G37*
G36*
G01*
X159810000Y-72768750D02*
X159810000Y-73281250D01*
G75*
G02*
X159591250Y-73500000I-218750J0D01*
G01*
X159153750Y-73500000D01*
G75*
G02*
X158935000Y-73281250I0J218750D01*
G01*
X158935000Y-72768750D01*
G75*
G02*
X159153750Y-72550000I218750J0D01*
G01*
X159591250Y-72550000D01*
G75*
G02*
X159810000Y-72768750I0J-218750D01*
G01*
G37*
G36*
G01*
X161385000Y-72768750D02*
X161385000Y-73281250D01*
G75*
G02*
X161166250Y-73500000I-218750J0D01*
G01*
X160728750Y-73500000D01*
G75*
G02*
X160510000Y-73281250I0J218750D01*
G01*
X160510000Y-72768750D01*
G75*
G02*
X160728750Y-72550000I218750J0D01*
G01*
X161166250Y-72550000D01*
G75*
G02*
X161385000Y-72768750I0J-218750D01*
G01*
G37*
G36*
G01*
X124250000Y-72768750D02*
X124250000Y-73281250D01*
G75*
G02*
X124031250Y-73500000I-218750J0D01*
G01*
X123593750Y-73500000D01*
G75*
G02*
X123375000Y-73281250I0J218750D01*
G01*
X123375000Y-72768750D01*
G75*
G02*
X123593750Y-72550000I218750J0D01*
G01*
X124031250Y-72550000D01*
G75*
G02*
X124250000Y-72768750I0J-218750D01*
G01*
G37*
G36*
G01*
X125825000Y-72768750D02*
X125825000Y-73281250D01*
G75*
G02*
X125606250Y-73500000I-218750J0D01*
G01*
X125168750Y-73500000D01*
G75*
G02*
X124950000Y-73281250I0J218750D01*
G01*
X124950000Y-72768750D01*
G75*
G02*
X125168750Y-72550000I218750J0D01*
G01*
X125606250Y-72550000D01*
G75*
G02*
X125825000Y-72768750I0J-218750D01*
G01*
G37*
G36*
G01*
X164890000Y-72768750D02*
X164890000Y-73281250D01*
G75*
G02*
X164671250Y-73500000I-218750J0D01*
G01*
X164233750Y-73500000D01*
G75*
G02*
X164015000Y-73281250I0J218750D01*
G01*
X164015000Y-72768750D01*
G75*
G02*
X164233750Y-72550000I218750J0D01*
G01*
X164671250Y-72550000D01*
G75*
G02*
X164890000Y-72768750I0J-218750D01*
G01*
G37*
G36*
G01*
X166465000Y-72768750D02*
X166465000Y-73281250D01*
G75*
G02*
X166246250Y-73500000I-218750J0D01*
G01*
X165808750Y-73500000D01*
G75*
G02*
X165590000Y-73281250I0J218750D01*
G01*
X165590000Y-72768750D01*
G75*
G02*
X165808750Y-72550000I218750J0D01*
G01*
X166246250Y-72550000D01*
G75*
G02*
X166465000Y-72768750I0J-218750D01*
G01*
G37*
G36*
G01*
X129330000Y-72768750D02*
X129330000Y-73281250D01*
G75*
G02*
X129111250Y-73500000I-218750J0D01*
G01*
X128673750Y-73500000D01*
G75*
G02*
X128455000Y-73281250I0J218750D01*
G01*
X128455000Y-72768750D01*
G75*
G02*
X128673750Y-72550000I218750J0D01*
G01*
X129111250Y-72550000D01*
G75*
G02*
X129330000Y-72768750I0J-218750D01*
G01*
G37*
G36*
G01*
X130905000Y-72768750D02*
X130905000Y-73281250D01*
G75*
G02*
X130686250Y-73500000I-218750J0D01*
G01*
X130248750Y-73500000D01*
G75*
G02*
X130030000Y-73281250I0J218750D01*
G01*
X130030000Y-72768750D01*
G75*
G02*
X130248750Y-72550000I218750J0D01*
G01*
X130686250Y-72550000D01*
G75*
G02*
X130905000Y-72768750I0J-218750D01*
G01*
G37*
G36*
G01*
X169970000Y-72768750D02*
X169970000Y-73281250D01*
G75*
G02*
X169751250Y-73500000I-218750J0D01*
G01*
X169313750Y-73500000D01*
G75*
G02*
X169095000Y-73281250I0J218750D01*
G01*
X169095000Y-72768750D01*
G75*
G02*
X169313750Y-72550000I218750J0D01*
G01*
X169751250Y-72550000D01*
G75*
G02*
X169970000Y-72768750I0J-218750D01*
G01*
G37*
G36*
G01*
X171545000Y-72768750D02*
X171545000Y-73281250D01*
G75*
G02*
X171326250Y-73500000I-218750J0D01*
G01*
X170888750Y-73500000D01*
G75*
G02*
X170670000Y-73281250I0J218750D01*
G01*
X170670000Y-72768750D01*
G75*
G02*
X170888750Y-72550000I218750J0D01*
G01*
X171326250Y-72550000D01*
G75*
G02*
X171545000Y-72768750I0J-218750D01*
G01*
G37*
G36*
G01*
X134410000Y-72768750D02*
X134410000Y-73281250D01*
G75*
G02*
X134191250Y-73500000I-218750J0D01*
G01*
X133753750Y-73500000D01*
G75*
G02*
X133535000Y-73281250I0J218750D01*
G01*
X133535000Y-72768750D01*
G75*
G02*
X133753750Y-72550000I218750J0D01*
G01*
X134191250Y-72550000D01*
G75*
G02*
X134410000Y-72768750I0J-218750D01*
G01*
G37*
G36*
G01*
X135985000Y-72768750D02*
X135985000Y-73281250D01*
G75*
G02*
X135766250Y-73500000I-218750J0D01*
G01*
X135328750Y-73500000D01*
G75*
G02*
X135110000Y-73281250I0J218750D01*
G01*
X135110000Y-72768750D01*
G75*
G02*
X135328750Y-72550000I218750J0D01*
G01*
X135766250Y-72550000D01*
G75*
G02*
X135985000Y-72768750I0J-218750D01*
G01*
G37*
G36*
G01*
X175050000Y-72768750D02*
X175050000Y-73281250D01*
G75*
G02*
X174831250Y-73500000I-218750J0D01*
G01*
X174393750Y-73500000D01*
G75*
G02*
X174175000Y-73281250I0J218750D01*
G01*
X174175000Y-72768750D01*
G75*
G02*
X174393750Y-72550000I218750J0D01*
G01*
X174831250Y-72550000D01*
G75*
G02*
X175050000Y-72768750I0J-218750D01*
G01*
G37*
G36*
G01*
X176625000Y-72768750D02*
X176625000Y-73281250D01*
G75*
G02*
X176406250Y-73500000I-218750J0D01*
G01*
X175968750Y-73500000D01*
G75*
G02*
X175750000Y-73281250I0J218750D01*
G01*
X175750000Y-72768750D01*
G75*
G02*
X175968750Y-72550000I218750J0D01*
G01*
X176406250Y-72550000D01*
G75*
G02*
X176625000Y-72768750I0J-218750D01*
G01*
G37*
G36*
G01*
X139540500Y-72768750D02*
X139540500Y-73281250D01*
G75*
G02*
X139321750Y-73500000I-218750J0D01*
G01*
X138884250Y-73500000D01*
G75*
G02*
X138665500Y-73281250I0J218750D01*
G01*
X138665500Y-72768750D01*
G75*
G02*
X138884250Y-72550000I218750J0D01*
G01*
X139321750Y-72550000D01*
G75*
G02*
X139540500Y-72768750I0J-218750D01*
G01*
G37*
G36*
G01*
X141115500Y-72768750D02*
X141115500Y-73281250D01*
G75*
G02*
X140896750Y-73500000I-218750J0D01*
G01*
X140459250Y-73500000D01*
G75*
G02*
X140240500Y-73281250I0J218750D01*
G01*
X140240500Y-72768750D01*
G75*
G02*
X140459250Y-72550000I218750J0D01*
G01*
X140896750Y-72550000D01*
G75*
G02*
X141115500Y-72768750I0J-218750D01*
G01*
G37*
G36*
G01*
X180130000Y-72768750D02*
X180130000Y-73281250D01*
G75*
G02*
X179911250Y-73500000I-218750J0D01*
G01*
X179473750Y-73500000D01*
G75*
G02*
X179255000Y-73281250I0J218750D01*
G01*
X179255000Y-72768750D01*
G75*
G02*
X179473750Y-72550000I218750J0D01*
G01*
X179911250Y-72550000D01*
G75*
G02*
X180130000Y-72768750I0J-218750D01*
G01*
G37*
G36*
G01*
X181705000Y-72768750D02*
X181705000Y-73281250D01*
G75*
G02*
X181486250Y-73500000I-218750J0D01*
G01*
X181048750Y-73500000D01*
G75*
G02*
X180830000Y-73281250I0J218750D01*
G01*
X180830000Y-72768750D01*
G75*
G02*
X181048750Y-72550000I218750J0D01*
G01*
X181486250Y-72550000D01*
G75*
G02*
X181705000Y-72768750I0J-218750D01*
G01*
G37*
G36*
G01*
X144570000Y-72768750D02*
X144570000Y-73281250D01*
G75*
G02*
X144351250Y-73500000I-218750J0D01*
G01*
X143913750Y-73500000D01*
G75*
G02*
X143695000Y-73281250I0J218750D01*
G01*
X143695000Y-72768750D01*
G75*
G02*
X143913750Y-72550000I218750J0D01*
G01*
X144351250Y-72550000D01*
G75*
G02*
X144570000Y-72768750I0J-218750D01*
G01*
G37*
G36*
G01*
X146145000Y-72768750D02*
X146145000Y-73281250D01*
G75*
G02*
X145926250Y-73500000I-218750J0D01*
G01*
X145488750Y-73500000D01*
G75*
G02*
X145270000Y-73281250I0J218750D01*
G01*
X145270000Y-72768750D01*
G75*
G02*
X145488750Y-72550000I218750J0D01*
G01*
X145926250Y-72550000D01*
G75*
G02*
X146145000Y-72768750I0J-218750D01*
G01*
G37*
G36*
G01*
X185075000Y-111816250D02*
X185075000Y-110903750D01*
G75*
G02*
X185318750Y-110660000I243750J0D01*
G01*
X185806250Y-110660000D01*
G75*
G02*
X186050000Y-110903750I0J-243750D01*
G01*
X186050000Y-111816250D01*
G75*
G02*
X185806250Y-112060000I-243750J0D01*
G01*
X185318750Y-112060000D01*
G75*
G02*
X185075000Y-111816250I0J243750D01*
G01*
G37*
G36*
G01*
X186950000Y-111816250D02*
X186950000Y-110903750D01*
G75*
G02*
X187193750Y-110660000I243750J0D01*
G01*
X187681250Y-110660000D01*
G75*
G02*
X187925000Y-110903750I0J-243750D01*
G01*
X187925000Y-111816250D01*
G75*
G02*
X187681250Y-112060000I-243750J0D01*
G01*
X187193750Y-112060000D01*
G75*
G02*
X186950000Y-111816250I0J243750D01*
G01*
G37*
G36*
G01*
X155575000Y-130956250D02*
X155575000Y-130043750D01*
G75*
G02*
X155818750Y-129800000I243750J0D01*
G01*
X156306250Y-129800000D01*
G75*
G02*
X156550000Y-130043750I0J-243750D01*
G01*
X156550000Y-130956250D01*
G75*
G02*
X156306250Y-131200000I-243750J0D01*
G01*
X155818750Y-131200000D01*
G75*
G02*
X155575000Y-130956250I0J243750D01*
G01*
G37*
G36*
G01*
X157450000Y-130956250D02*
X157450000Y-130043750D01*
G75*
G02*
X157693750Y-129800000I243750J0D01*
G01*
X158181250Y-129800000D01*
G75*
G02*
X158425000Y-130043750I0J-243750D01*
G01*
X158425000Y-130956250D01*
G75*
G02*
X158181250Y-131200000I-243750J0D01*
G01*
X157693750Y-131200000D01*
G75*
G02*
X157450000Y-130956250I0J243750D01*
G01*
G37*
G36*
G01*
X138706250Y-109550000D02*
X137793750Y-109550000D01*
G75*
G02*
X137550000Y-109306250I0J243750D01*
G01*
X137550000Y-108818750D01*
G75*
G02*
X137793750Y-108575000I243750J0D01*
G01*
X138706250Y-108575000D01*
G75*
G02*
X138950000Y-108818750I0J-243750D01*
G01*
X138950000Y-109306250D01*
G75*
G02*
X138706250Y-109550000I-243750J0D01*
G01*
G37*
G36*
G01*
X138706250Y-111425000D02*
X137793750Y-111425000D01*
G75*
G02*
X137550000Y-111181250I0J243750D01*
G01*
X137550000Y-110693750D01*
G75*
G02*
X137793750Y-110450000I243750J0D01*
G01*
X138706250Y-110450000D01*
G75*
G02*
X138950000Y-110693750I0J-243750D01*
G01*
X138950000Y-111181250D01*
G75*
G02*
X138706250Y-111425000I-243750J0D01*
G01*
G37*
D29*
X151350000Y-131000000D03*
X147650000Y-131000000D03*
G36*
G01*
X144225000Y-126993750D02*
X144225000Y-127506250D01*
G75*
G02*
X144006250Y-127725000I-218750J0D01*
G01*
X143568750Y-127725000D01*
G75*
G02*
X143350000Y-127506250I0J218750D01*
G01*
X143350000Y-126993750D01*
G75*
G02*
X143568750Y-126775000I218750J0D01*
G01*
X144006250Y-126775000D01*
G75*
G02*
X144225000Y-126993750I0J-218750D01*
G01*
G37*
G36*
G01*
X142650000Y-126993750D02*
X142650000Y-127506250D01*
G75*
G02*
X142431250Y-127725000I-218750J0D01*
G01*
X141993750Y-127725000D01*
G75*
G02*
X141775000Y-127506250I0J218750D01*
G01*
X141775000Y-126993750D01*
G75*
G02*
X141993750Y-126775000I218750J0D01*
G01*
X142431250Y-126775000D01*
G75*
G02*
X142650000Y-126993750I0J-218750D01*
G01*
G37*
G36*
G01*
X134506250Y-84487500D02*
X133993750Y-84487500D01*
G75*
G02*
X133775000Y-84268750I0J218750D01*
G01*
X133775000Y-83831250D01*
G75*
G02*
X133993750Y-83612500I218750J0D01*
G01*
X134506250Y-83612500D01*
G75*
G02*
X134725000Y-83831250I0J-218750D01*
G01*
X134725000Y-84268750D01*
G75*
G02*
X134506250Y-84487500I-218750J0D01*
G01*
G37*
G36*
G01*
X134506250Y-82912500D02*
X133993750Y-82912500D01*
G75*
G02*
X133775000Y-82693750I0J218750D01*
G01*
X133775000Y-82256250D01*
G75*
G02*
X133993750Y-82037500I218750J0D01*
G01*
X134506250Y-82037500D01*
G75*
G02*
X134725000Y-82256250I0J-218750D01*
G01*
X134725000Y-82693750D01*
G75*
G02*
X134506250Y-82912500I-218750J0D01*
G01*
G37*
G36*
G01*
X155775000Y-134506250D02*
X155775000Y-133993750D01*
G75*
G02*
X155993750Y-133775000I218750J0D01*
G01*
X156431250Y-133775000D01*
G75*
G02*
X156650000Y-133993750I0J-218750D01*
G01*
X156650000Y-134506250D01*
G75*
G02*
X156431250Y-134725000I-218750J0D01*
G01*
X155993750Y-134725000D01*
G75*
G02*
X155775000Y-134506250I0J218750D01*
G01*
G37*
G36*
G01*
X157350000Y-134506250D02*
X157350000Y-133993750D01*
G75*
G02*
X157568750Y-133775000I218750J0D01*
G01*
X158006250Y-133775000D01*
G75*
G02*
X158225000Y-133993750I0J-218750D01*
G01*
X158225000Y-134506250D01*
G75*
G02*
X158006250Y-134725000I-218750J0D01*
G01*
X157568750Y-134725000D01*
G75*
G02*
X157350000Y-134506250I0J218750D01*
G01*
G37*
G36*
G01*
X180160000Y-113103750D02*
X180160000Y-113616250D01*
G75*
G02*
X179941250Y-113835000I-218750J0D01*
G01*
X179503750Y-113835000D01*
G75*
G02*
X179285000Y-113616250I0J218750D01*
G01*
X179285000Y-113103750D01*
G75*
G02*
X179503750Y-112885000I218750J0D01*
G01*
X179941250Y-112885000D01*
G75*
G02*
X180160000Y-113103750I0J-218750D01*
G01*
G37*
G36*
G01*
X181735000Y-113103750D02*
X181735000Y-113616250D01*
G75*
G02*
X181516250Y-113835000I-218750J0D01*
G01*
X181078750Y-113835000D01*
G75*
G02*
X180860000Y-113616250I0J218750D01*
G01*
X180860000Y-113103750D01*
G75*
G02*
X181078750Y-112885000I218750J0D01*
G01*
X181516250Y-112885000D01*
G75*
G02*
X181735000Y-113103750I0J-218750D01*
G01*
G37*
G36*
G01*
X155775000Y-114006250D02*
X155775000Y-113493750D01*
G75*
G02*
X155993750Y-113275000I218750J0D01*
G01*
X156431250Y-113275000D01*
G75*
G02*
X156650000Y-113493750I0J-218750D01*
G01*
X156650000Y-114006250D01*
G75*
G02*
X156431250Y-114225000I-218750J0D01*
G01*
X155993750Y-114225000D01*
G75*
G02*
X155775000Y-114006250I0J218750D01*
G01*
G37*
G36*
G01*
X157350000Y-114006250D02*
X157350000Y-113493750D01*
G75*
G02*
X157568750Y-113275000I218750J0D01*
G01*
X158006250Y-113275000D01*
G75*
G02*
X158225000Y-113493750I0J-218750D01*
G01*
X158225000Y-114006250D01*
G75*
G02*
X158006250Y-114225000I-218750J0D01*
G01*
X157568750Y-114225000D01*
G75*
G02*
X157350000Y-114006250I0J218750D01*
G01*
G37*
D30*
X163250000Y-98000000D03*
X161250000Y-98950000D03*
X161250000Y-97050000D03*
G36*
G01*
X186850000Y-113616250D02*
X186850000Y-113103750D01*
G75*
G02*
X187068750Y-112885000I218750J0D01*
G01*
X187506250Y-112885000D01*
G75*
G02*
X187725000Y-113103750I0J-218750D01*
G01*
X187725000Y-113616250D01*
G75*
G02*
X187506250Y-113835000I-218750J0D01*
G01*
X187068750Y-113835000D01*
G75*
G02*
X186850000Y-113616250I0J218750D01*
G01*
G37*
G36*
G01*
X185275000Y-113616250D02*
X185275000Y-113103750D01*
G75*
G02*
X185493750Y-112885000I218750J0D01*
G01*
X185931250Y-112885000D01*
G75*
G02*
X186150000Y-113103750I0J-218750D01*
G01*
X186150000Y-113616250D01*
G75*
G02*
X185931250Y-113835000I-218750J0D01*
G01*
X185493750Y-113835000D01*
G75*
G02*
X185275000Y-113616250I0J218750D01*
G01*
G37*
G36*
G01*
X140756250Y-109800000D02*
X140243750Y-109800000D01*
G75*
G02*
X140025000Y-109581250I0J218750D01*
G01*
X140025000Y-109143750D01*
G75*
G02*
X140243750Y-108925000I218750J0D01*
G01*
X140756250Y-108925000D01*
G75*
G02*
X140975000Y-109143750I0J-218750D01*
G01*
X140975000Y-109581250D01*
G75*
G02*
X140756250Y-109800000I-218750J0D01*
G01*
G37*
G36*
G01*
X140756250Y-111375000D02*
X140243750Y-111375000D01*
G75*
G02*
X140025000Y-111156250I0J218750D01*
G01*
X140025000Y-110718750D01*
G75*
G02*
X140243750Y-110500000I218750J0D01*
G01*
X140756250Y-110500000D01*
G75*
G02*
X140975000Y-110718750I0J-218750D01*
G01*
X140975000Y-111156250D01*
G75*
G02*
X140756250Y-111375000I-218750J0D01*
G01*
G37*
G36*
G01*
X128462500Y-107006250D02*
X128462500Y-106493750D01*
G75*
G02*
X128681250Y-106275000I218750J0D01*
G01*
X129118750Y-106275000D01*
G75*
G02*
X129337500Y-106493750I0J-218750D01*
G01*
X129337500Y-107006250D01*
G75*
G02*
X129118750Y-107225000I-218750J0D01*
G01*
X128681250Y-107225000D01*
G75*
G02*
X128462500Y-107006250I0J218750D01*
G01*
G37*
G36*
G01*
X130037500Y-107006250D02*
X130037500Y-106493750D01*
G75*
G02*
X130256250Y-106275000I218750J0D01*
G01*
X130693750Y-106275000D01*
G75*
G02*
X130912500Y-106493750I0J-218750D01*
G01*
X130912500Y-107006250D01*
G75*
G02*
X130693750Y-107225000I-218750J0D01*
G01*
X130256250Y-107225000D01*
G75*
G02*
X130037500Y-107006250I0J218750D01*
G01*
G37*
G36*
G01*
X152355000Y-133993750D02*
X152355000Y-134506250D01*
G75*
G02*
X152136250Y-134725000I-218750J0D01*
G01*
X151698750Y-134725000D01*
G75*
G02*
X151480000Y-134506250I0J218750D01*
G01*
X151480000Y-133993750D01*
G75*
G02*
X151698750Y-133775000I218750J0D01*
G01*
X152136250Y-133775000D01*
G75*
G02*
X152355000Y-133993750I0J-218750D01*
G01*
G37*
G36*
G01*
X150780000Y-133993750D02*
X150780000Y-134506250D01*
G75*
G02*
X150561250Y-134725000I-218750J0D01*
G01*
X150123750Y-134725000D01*
G75*
G02*
X149905000Y-134506250I0J218750D01*
G01*
X149905000Y-133993750D01*
G75*
G02*
X150123750Y-133775000I218750J0D01*
G01*
X150561250Y-133775000D01*
G75*
G02*
X150780000Y-133993750I0J-218750D01*
G01*
G37*
G36*
G01*
X146666500Y-134506250D02*
X146666500Y-133993750D01*
G75*
G02*
X146885250Y-133775000I218750J0D01*
G01*
X147322750Y-133775000D01*
G75*
G02*
X147541500Y-133993750I0J-218750D01*
G01*
X147541500Y-134506250D01*
G75*
G02*
X147322750Y-134725000I-218750J0D01*
G01*
X146885250Y-134725000D01*
G75*
G02*
X146666500Y-134506250I0J218750D01*
G01*
G37*
G36*
G01*
X148241500Y-134506250D02*
X148241500Y-133993750D01*
G75*
G02*
X148460250Y-133775000I218750J0D01*
G01*
X148897750Y-133775000D01*
G75*
G02*
X149116500Y-133993750I0J-218750D01*
G01*
X149116500Y-134506250D01*
G75*
G02*
X148897750Y-134725000I-218750J0D01*
G01*
X148460250Y-134725000D01*
G75*
G02*
X148241500Y-134506250I0J218750D01*
G01*
G37*
G36*
G01*
X167000000Y-99755000D02*
X167000000Y-100055000D01*
G75*
G02*
X166850000Y-100205000I-150000J0D01*
G01*
X165200000Y-100205000D01*
G75*
G02*
X165050000Y-100055000I0J150000D01*
G01*
X165050000Y-99755000D01*
G75*
G02*
X165200000Y-99605000I150000J0D01*
G01*
X166850000Y-99605000D01*
G75*
G02*
X167000000Y-99755000I0J-150000D01*
G01*
G37*
G36*
G01*
X167000000Y-98485000D02*
X167000000Y-98785000D01*
G75*
G02*
X166850000Y-98935000I-150000J0D01*
G01*
X165200000Y-98935000D01*
G75*
G02*
X165050000Y-98785000I0J150000D01*
G01*
X165050000Y-98485000D01*
G75*
G02*
X165200000Y-98335000I150000J0D01*
G01*
X166850000Y-98335000D01*
G75*
G02*
X167000000Y-98485000I0J-150000D01*
G01*
G37*
G36*
G01*
X167000000Y-97215000D02*
X167000000Y-97515000D01*
G75*
G02*
X166850000Y-97665000I-150000J0D01*
G01*
X165200000Y-97665000D01*
G75*
G02*
X165050000Y-97515000I0J150000D01*
G01*
X165050000Y-97215000D01*
G75*
G02*
X165200000Y-97065000I150000J0D01*
G01*
X166850000Y-97065000D01*
G75*
G02*
X167000000Y-97215000I0J-150000D01*
G01*
G37*
G36*
G01*
X167000000Y-95945000D02*
X167000000Y-96245000D01*
G75*
G02*
X166850000Y-96395000I-150000J0D01*
G01*
X165200000Y-96395000D01*
G75*
G02*
X165050000Y-96245000I0J150000D01*
G01*
X165050000Y-95945000D01*
G75*
G02*
X165200000Y-95795000I150000J0D01*
G01*
X166850000Y-95795000D01*
G75*
G02*
X167000000Y-95945000I0J-150000D01*
G01*
G37*
G36*
G01*
X171950000Y-95945000D02*
X171950000Y-96245000D01*
G75*
G02*
X171800000Y-96395000I-150000J0D01*
G01*
X170150000Y-96395000D01*
G75*
G02*
X170000000Y-96245000I0J150000D01*
G01*
X170000000Y-95945000D01*
G75*
G02*
X170150000Y-95795000I150000J0D01*
G01*
X171800000Y-95795000D01*
G75*
G02*
X171950000Y-95945000I0J-150000D01*
G01*
G37*
G36*
G01*
X171950000Y-97215000D02*
X171950000Y-97515000D01*
G75*
G02*
X171800000Y-97665000I-150000J0D01*
G01*
X170150000Y-97665000D01*
G75*
G02*
X170000000Y-97515000I0J150000D01*
G01*
X170000000Y-97215000D01*
G75*
G02*
X170150000Y-97065000I150000J0D01*
G01*
X171800000Y-97065000D01*
G75*
G02*
X171950000Y-97215000I0J-150000D01*
G01*
G37*
G36*
G01*
X171950000Y-98485000D02*
X171950000Y-98785000D01*
G75*
G02*
X171800000Y-98935000I-150000J0D01*
G01*
X170150000Y-98935000D01*
G75*
G02*
X170000000Y-98785000I0J150000D01*
G01*
X170000000Y-98485000D01*
G75*
G02*
X170150000Y-98335000I150000J0D01*
G01*
X171800000Y-98335000D01*
G75*
G02*
X171950000Y-98485000I0J-150000D01*
G01*
G37*
G36*
G01*
X171950000Y-99755000D02*
X171950000Y-100055000D01*
G75*
G02*
X171800000Y-100205000I-150000J0D01*
G01*
X170150000Y-100205000D01*
G75*
G02*
X170000000Y-100055000I0J150000D01*
G01*
X170000000Y-99755000D01*
G75*
G02*
X170150000Y-99605000I150000J0D01*
G01*
X171800000Y-99605000D01*
G75*
G02*
X171950000Y-99755000I0J-150000D01*
G01*
G37*
G36*
G01*
X186785000Y-72768750D02*
X186785000Y-73281250D01*
G75*
G02*
X186566250Y-73500000I-218750J0D01*
G01*
X186128750Y-73500000D01*
G75*
G02*
X185910000Y-73281250I0J218750D01*
G01*
X185910000Y-72768750D01*
G75*
G02*
X186128750Y-72550000I218750J0D01*
G01*
X186566250Y-72550000D01*
G75*
G02*
X186785000Y-72768750I0J-218750D01*
G01*
G37*
G36*
G01*
X185210000Y-72768750D02*
X185210000Y-73281250D01*
G75*
G02*
X184991250Y-73500000I-218750J0D01*
G01*
X184553750Y-73500000D01*
G75*
G02*
X184335000Y-73281250I0J218750D01*
G01*
X184335000Y-72768750D01*
G75*
G02*
X184553750Y-72550000I218750J0D01*
G01*
X184991250Y-72550000D01*
G75*
G02*
X185210000Y-72768750I0J-218750D01*
G01*
G37*
G36*
G01*
X181735000Y-119243750D02*
X181735000Y-119756250D01*
G75*
G02*
X181516250Y-119975000I-218750J0D01*
G01*
X181078750Y-119975000D01*
G75*
G02*
X180860000Y-119756250I0J218750D01*
G01*
X180860000Y-119243750D01*
G75*
G02*
X181078750Y-119025000I218750J0D01*
G01*
X181516250Y-119025000D01*
G75*
G02*
X181735000Y-119243750I0J-218750D01*
G01*
G37*
G36*
G01*
X180160000Y-119243750D02*
X180160000Y-119756250D01*
G75*
G02*
X179941250Y-119975000I-218750J0D01*
G01*
X179503750Y-119975000D01*
G75*
G02*
X179285000Y-119756250I0J218750D01*
G01*
X179285000Y-119243750D01*
G75*
G02*
X179503750Y-119025000I218750J0D01*
G01*
X179941250Y-119025000D01*
G75*
G02*
X180160000Y-119243750I0J-218750D01*
G01*
G37*
X179510000Y-116710000D03*
X181510000Y-115760000D03*
X181510000Y-117660000D03*
D31*
X113170000Y-70000000D03*
D32*
X115710000Y-70000000D03*
D31*
X118250000Y-70000000D03*
D32*
X120790000Y-70000000D03*
D31*
X123330000Y-70000000D03*
D32*
X125870000Y-70000000D03*
D31*
X128410000Y-70000000D03*
D32*
X130950000Y-70000000D03*
D31*
X133490000Y-70000000D03*
D32*
X136030000Y-70000000D03*
D31*
X138570000Y-70000000D03*
D32*
X141110000Y-70000000D03*
D31*
X143650000Y-70000000D03*
D32*
X146190000Y-70000000D03*
D31*
X148730000Y-70000000D03*
D32*
X151270000Y-70000000D03*
D31*
X153810000Y-70000000D03*
D32*
X156350000Y-70000000D03*
D31*
X158890000Y-70000000D03*
D32*
X161430000Y-70000000D03*
D31*
X163970000Y-70000000D03*
D32*
X166510000Y-70000000D03*
D31*
X169050000Y-70000000D03*
D32*
X171590000Y-70000000D03*
D31*
X174130000Y-70000000D03*
D32*
X176670000Y-70000000D03*
D31*
X179210000Y-70000000D03*
D32*
X181750000Y-70000000D03*
D31*
X184290000Y-70000000D03*
D32*
X186830000Y-70000000D03*
G36*
G01*
X170025000Y-94006250D02*
X170025000Y-93493750D01*
G75*
G02*
X170243750Y-93275000I218750J0D01*
G01*
X170681250Y-93275000D01*
G75*
G02*
X170900000Y-93493750I0J-218750D01*
G01*
X170900000Y-94006250D01*
G75*
G02*
X170681250Y-94225000I-218750J0D01*
G01*
X170243750Y-94225000D01*
G75*
G02*
X170025000Y-94006250I0J218750D01*
G01*
G37*
G36*
G01*
X171600000Y-94006250D02*
X171600000Y-93493750D01*
G75*
G02*
X171818750Y-93275000I218750J0D01*
G01*
X172256250Y-93275000D01*
G75*
G02*
X172475000Y-93493750I0J-218750D01*
G01*
X172475000Y-94006250D01*
G75*
G02*
X172256250Y-94225000I-218750J0D01*
G01*
X171818750Y-94225000D01*
G75*
G02*
X171600000Y-94006250I0J218750D01*
G01*
G37*
G36*
G01*
X149743750Y-82037500D02*
X150256250Y-82037500D01*
G75*
G02*
X150475000Y-82256250I0J-218750D01*
G01*
X150475000Y-82693750D01*
G75*
G02*
X150256250Y-82912500I-218750J0D01*
G01*
X149743750Y-82912500D01*
G75*
G02*
X149525000Y-82693750I0J218750D01*
G01*
X149525000Y-82256250D01*
G75*
G02*
X149743750Y-82037500I218750J0D01*
G01*
G37*
G36*
G01*
X149743750Y-83612500D02*
X150256250Y-83612500D01*
G75*
G02*
X150475000Y-83831250I0J-218750D01*
G01*
X150475000Y-84268750D01*
G75*
G02*
X150256250Y-84487500I-218750J0D01*
G01*
X149743750Y-84487500D01*
G75*
G02*
X149525000Y-84268750I0J218750D01*
G01*
X149525000Y-83831250D01*
G75*
G02*
X149743750Y-83612500I218750J0D01*
G01*
G37*
G36*
G01*
X163743750Y-82037500D02*
X164256250Y-82037500D01*
G75*
G02*
X164475000Y-82256250I0J-218750D01*
G01*
X164475000Y-82693750D01*
G75*
G02*
X164256250Y-82912500I-218750J0D01*
G01*
X163743750Y-82912500D01*
G75*
G02*
X163525000Y-82693750I0J218750D01*
G01*
X163525000Y-82256250D01*
G75*
G02*
X163743750Y-82037500I218750J0D01*
G01*
G37*
G36*
G01*
X163743750Y-83612500D02*
X164256250Y-83612500D01*
G75*
G02*
X164475000Y-83831250I0J-218750D01*
G01*
X164475000Y-84268750D01*
G75*
G02*
X164256250Y-84487500I-218750J0D01*
G01*
X163743750Y-84487500D01*
G75*
G02*
X163525000Y-84268750I0J218750D01*
G01*
X163525000Y-83831250D01*
G75*
G02*
X163743750Y-83612500I218750J0D01*
G01*
G37*
G36*
G01*
X155775000Y-127506250D02*
X155775000Y-126993750D01*
G75*
G02*
X155993750Y-126775000I218750J0D01*
G01*
X156431250Y-126775000D01*
G75*
G02*
X156650000Y-126993750I0J-218750D01*
G01*
X156650000Y-127506250D01*
G75*
G02*
X156431250Y-127725000I-218750J0D01*
G01*
X155993750Y-127725000D01*
G75*
G02*
X155775000Y-127506250I0J218750D01*
G01*
G37*
G36*
G01*
X157350000Y-127506250D02*
X157350000Y-126993750D01*
G75*
G02*
X157568750Y-126775000I218750J0D01*
G01*
X158006250Y-126775000D01*
G75*
G02*
X158225000Y-126993750I0J-218750D01*
G01*
X158225000Y-127506250D01*
G75*
G02*
X158006250Y-127725000I-218750J0D01*
G01*
X157568750Y-127725000D01*
G75*
G02*
X157350000Y-127506250I0J218750D01*
G01*
G37*
G36*
G01*
X155775000Y-115756250D02*
X155775000Y-115243750D01*
G75*
G02*
X155993750Y-115025000I218750J0D01*
G01*
X156431250Y-115025000D01*
G75*
G02*
X156650000Y-115243750I0J-218750D01*
G01*
X156650000Y-115756250D01*
G75*
G02*
X156431250Y-115975000I-218750J0D01*
G01*
X155993750Y-115975000D01*
G75*
G02*
X155775000Y-115756250I0J218750D01*
G01*
G37*
G36*
G01*
X157350000Y-115756250D02*
X157350000Y-115243750D01*
G75*
G02*
X157568750Y-115025000I218750J0D01*
G01*
X158006250Y-115025000D01*
G75*
G02*
X158225000Y-115243750I0J-218750D01*
G01*
X158225000Y-115756250D01*
G75*
G02*
X158006250Y-115975000I-218750J0D01*
G01*
X157568750Y-115975000D01*
G75*
G02*
X157350000Y-115756250I0J218750D01*
G01*
G37*
G36*
G01*
X155775000Y-125756250D02*
X155775000Y-125243750D01*
G75*
G02*
X155993750Y-125025000I218750J0D01*
G01*
X156431250Y-125025000D01*
G75*
G02*
X156650000Y-125243750I0J-218750D01*
G01*
X156650000Y-125756250D01*
G75*
G02*
X156431250Y-125975000I-218750J0D01*
G01*
X155993750Y-125975000D01*
G75*
G02*
X155775000Y-125756250I0J218750D01*
G01*
G37*
G36*
G01*
X157350000Y-125756250D02*
X157350000Y-125243750D01*
G75*
G02*
X157568750Y-125025000I218750J0D01*
G01*
X158006250Y-125025000D01*
G75*
G02*
X158225000Y-125243750I0J-218750D01*
G01*
X158225000Y-125756250D01*
G75*
G02*
X158006250Y-125975000I-218750J0D01*
G01*
X157568750Y-125975000D01*
G75*
G02*
X157350000Y-125756250I0J218750D01*
G01*
G37*
G36*
G01*
X144225000Y-125243750D02*
X144225000Y-125756250D01*
G75*
G02*
X144006250Y-125975000I-218750J0D01*
G01*
X143568750Y-125975000D01*
G75*
G02*
X143350000Y-125756250I0J218750D01*
G01*
X143350000Y-125243750D01*
G75*
G02*
X143568750Y-125025000I218750J0D01*
G01*
X144006250Y-125025000D01*
G75*
G02*
X144225000Y-125243750I0J-218750D01*
G01*
G37*
G36*
G01*
X142650000Y-125243750D02*
X142650000Y-125756250D01*
G75*
G02*
X142431250Y-125975000I-218750J0D01*
G01*
X141993750Y-125975000D01*
G75*
G02*
X141775000Y-125756250I0J218750D01*
G01*
X141775000Y-125243750D01*
G75*
G02*
X141993750Y-125025000I218750J0D01*
G01*
X142431250Y-125025000D01*
G75*
G02*
X142650000Y-125243750I0J-218750D01*
G01*
G37*
G36*
G01*
X144225000Y-115243750D02*
X144225000Y-115756250D01*
G75*
G02*
X144006250Y-115975000I-218750J0D01*
G01*
X143568750Y-115975000D01*
G75*
G02*
X143350000Y-115756250I0J218750D01*
G01*
X143350000Y-115243750D01*
G75*
G02*
X143568750Y-115025000I218750J0D01*
G01*
X144006250Y-115025000D01*
G75*
G02*
X144225000Y-115243750I0J-218750D01*
G01*
G37*
G36*
G01*
X142650000Y-115243750D02*
X142650000Y-115756250D01*
G75*
G02*
X142431250Y-115975000I-218750J0D01*
G01*
X141993750Y-115975000D01*
G75*
G02*
X141775000Y-115756250I0J218750D01*
G01*
X141775000Y-115243750D01*
G75*
G02*
X141993750Y-115025000I218750J0D01*
G01*
X142431250Y-115025000D01*
G75*
G02*
X142650000Y-115243750I0J-218750D01*
G01*
G37*
M02*
