G04 #@! TF.GenerationSoftware,KiCad,Pcbnew,(5.1.8)-1*
G04 #@! TF.CreationDate,2021-02-11T17:25:07-06:00*
G04 #@! TF.ProjectId,CANDash 2,43414e44-6173-4682-9032-2e6b69636164,2A*
G04 #@! TF.SameCoordinates,Original*
G04 #@! TF.FileFunction,Soldermask,Bot*
G04 #@! TF.FilePolarity,Negative*
%FSLAX46Y46*%
G04 Gerber Fmt 4.6, Leading zero omitted, Abs format (unit mm)*
G04 Created by KiCad (PCBNEW (5.1.8)-1) date 2021-02-11 17:25:07*
%MOMM*%
%LPD*%
G01*
G04 APERTURE LIST*
G04 #@! TA.AperFunction,Profile*
%ADD10C,0.508000*%
G04 #@! TD*
%ADD11R,4.000000X0.400000*%
%ADD12C,3.300000*%
%ADD13C,3.000000*%
%ADD14C,3.200000*%
%ADD15O,1.700000X1.700000*%
%ADD16R,1.700000X1.700000*%
%ADD17R,1.800000X1.800000*%
%ADD18C,1.800000*%
G04 APERTURE END LIST*
D10*
X105000000Y-65000000D02*
X195000000Y-65000000D01*
X200000000Y-70000000D02*
X200000000Y-140000000D01*
X200000000Y-70000000D02*
G75*
G03*
X195000000Y-65000000I-5000000J0D01*
G01*
X100000000Y-70000000D02*
X100000000Y-140000000D01*
X105000000Y-65000000D02*
G75*
G03*
X100000000Y-70000000I0J-5000000D01*
G01*
X195000000Y-145000000D02*
X105000000Y-145000000D01*
X195000000Y-145000000D02*
G75*
G03*
X200000000Y-140000000I0J5000000D01*
G01*
X100000000Y-140000000D02*
G75*
G03*
X105000000Y-145000000I5000000J0D01*
G01*
D11*
X180510000Y-122960000D03*
X180510000Y-122160000D03*
X180510000Y-121360000D03*
X180510000Y-120560000D03*
X180510000Y-119760000D03*
X180510000Y-118960000D03*
X180510000Y-118160000D03*
X180510000Y-117360000D03*
X180510000Y-116560000D03*
X180510000Y-115760000D03*
X180510000Y-114960000D03*
X180510000Y-114160000D03*
X180510000Y-113360000D03*
X180510000Y-112560000D03*
X180510000Y-111760000D03*
X180510000Y-110960000D03*
X180510000Y-110160000D03*
X180510000Y-109360000D03*
X180510000Y-108560000D03*
X180510000Y-107760000D03*
X180510000Y-106960000D03*
X180510000Y-106160000D03*
X180510000Y-105360000D03*
X180510000Y-104560000D03*
X180510000Y-103760000D03*
X180510000Y-102960000D03*
X180510000Y-102160000D03*
X180510000Y-101360000D03*
X180510000Y-100560000D03*
X180510000Y-99760000D03*
X180510000Y-98960000D03*
X180510000Y-98160000D03*
X180510000Y-97360000D03*
X180510000Y-96560000D03*
X180510000Y-95760000D03*
X180510000Y-94960000D03*
X180510000Y-94160000D03*
X180510000Y-93360000D03*
X180510000Y-92560000D03*
D12*
X150000000Y-105180000D03*
D13*
X145550000Y-95790000D03*
X145450000Y-100210000D03*
X154550000Y-100210000D03*
X154550000Y-95790000D03*
D14*
X195000000Y-140000000D03*
X105000000Y-140000000D03*
X195000000Y-70000000D03*
X105000000Y-70000000D03*
D15*
X138860000Y-138730000D03*
X138860000Y-141270000D03*
X136320000Y-138730000D03*
X136320000Y-141270000D03*
X133780000Y-138730000D03*
X133780000Y-141270000D03*
X131240000Y-138730000D03*
X131240000Y-141270000D03*
X128700000Y-138730000D03*
D16*
X128700000Y-141270000D03*
D17*
X113170000Y-70000000D03*
D18*
X115710000Y-70000000D03*
D17*
X118250000Y-70000000D03*
D18*
X120790000Y-70000000D03*
D17*
X123330000Y-70000000D03*
D18*
X125870000Y-70000000D03*
D17*
X128410000Y-70000000D03*
D18*
X130950000Y-70000000D03*
D17*
X133490000Y-70000000D03*
D18*
X136030000Y-70000000D03*
D17*
X138570000Y-70000000D03*
D18*
X141110000Y-70000000D03*
D17*
X143650000Y-70000000D03*
D18*
X146190000Y-70000000D03*
D17*
X148730000Y-70000000D03*
D18*
X151270000Y-70000000D03*
D17*
X153810000Y-70000000D03*
D18*
X156350000Y-70000000D03*
D17*
X158890000Y-70000000D03*
D18*
X161430000Y-70000000D03*
D17*
X163970000Y-70000000D03*
D18*
X166510000Y-70000000D03*
D17*
X169050000Y-70000000D03*
D18*
X171590000Y-70000000D03*
D17*
X174130000Y-70000000D03*
D18*
X176670000Y-70000000D03*
D17*
X179210000Y-70000000D03*
D18*
X181750000Y-70000000D03*
D17*
X184290000Y-70000000D03*
D18*
X186830000Y-70000000D03*
M02*
