G04 #@! TF.GenerationSoftware,KiCad,Pcbnew,(5.1.8)-1*
G04 #@! TF.CreationDate,2021-02-11T17:25:07-06:00*
G04 #@! TF.ProjectId,CANDash 2,43414e44-6173-4682-9032-2e6b69636164,2A*
G04 #@! TF.SameCoordinates,Original*
G04 #@! TF.FileFunction,Legend,Bot*
G04 #@! TF.FilePolarity,Positive*
%FSLAX46Y46*%
G04 Gerber Fmt 4.6, Leading zero omitted, Abs format (unit mm)*
G04 Created by KiCad (PCBNEW (5.1.8)-1) date 2021-02-11 17:25:07*
%MOMM*%
%LPD*%
G01*
G04 APERTURE LIST*
%ADD10C,0.150000*%
G04 #@! TA.AperFunction,Profile*
%ADD11C,0.508000*%
G04 #@! TD*
%ADD12C,0.120000*%
%ADD13C,0.152400*%
G04 APERTURE END LIST*
D10*
X182188214Y-138802380D02*
X182664404Y-138802380D01*
X182664404Y-137802380D01*
X181854880Y-138802380D02*
X181854880Y-138135714D01*
X181854880Y-137802380D02*
X181902500Y-137850000D01*
X181854880Y-137897619D01*
X181807261Y-137850000D01*
X181854880Y-137802380D01*
X181854880Y-137897619D01*
X180950119Y-138754761D02*
X181045357Y-138802380D01*
X181235833Y-138802380D01*
X181331071Y-138754761D01*
X181378690Y-138707142D01*
X181426309Y-138611904D01*
X181426309Y-138326190D01*
X181378690Y-138230952D01*
X181331071Y-138183333D01*
X181235833Y-138135714D01*
X181045357Y-138135714D01*
X180950119Y-138183333D01*
X180140595Y-138754761D02*
X180235833Y-138802380D01*
X180426309Y-138802380D01*
X180521547Y-138754761D01*
X180569166Y-138659523D01*
X180569166Y-138278571D01*
X180521547Y-138183333D01*
X180426309Y-138135714D01*
X180235833Y-138135714D01*
X180140595Y-138183333D01*
X180092976Y-138278571D01*
X180092976Y-138373809D01*
X180569166Y-138469047D01*
X179664404Y-138135714D02*
X179664404Y-138802380D01*
X179664404Y-138230952D02*
X179616785Y-138183333D01*
X179521547Y-138135714D01*
X179378690Y-138135714D01*
X179283452Y-138183333D01*
X179235833Y-138278571D01*
X179235833Y-138802380D01*
X178807261Y-138754761D02*
X178712023Y-138802380D01*
X178521547Y-138802380D01*
X178426309Y-138754761D01*
X178378690Y-138659523D01*
X178378690Y-138611904D01*
X178426309Y-138516666D01*
X178521547Y-138469047D01*
X178664404Y-138469047D01*
X178759642Y-138421428D01*
X178807261Y-138326190D01*
X178807261Y-138278571D01*
X178759642Y-138183333D01*
X178664404Y-138135714D01*
X178521547Y-138135714D01*
X178426309Y-138183333D01*
X177569166Y-138754761D02*
X177664404Y-138802380D01*
X177854880Y-138802380D01*
X177950119Y-138754761D01*
X177997738Y-138659523D01*
X177997738Y-138278571D01*
X177950119Y-138183333D01*
X177854880Y-138135714D01*
X177664404Y-138135714D01*
X177569166Y-138183333D01*
X177521547Y-138278571D01*
X177521547Y-138373809D01*
X177997738Y-138469047D01*
X176664404Y-138802380D02*
X176664404Y-137802380D01*
X176664404Y-138754761D02*
X176759642Y-138802380D01*
X176950119Y-138802380D01*
X177045357Y-138754761D01*
X177092976Y-138707142D01*
X177140595Y-138611904D01*
X177140595Y-138326190D01*
X177092976Y-138230952D01*
X177045357Y-138183333D01*
X176950119Y-138135714D01*
X176759642Y-138135714D01*
X176664404Y-138183333D01*
X174997738Y-138135714D02*
X174997738Y-138802380D01*
X175426309Y-138135714D02*
X175426309Y-138659523D01*
X175378690Y-138754761D01*
X175283452Y-138802380D01*
X175140595Y-138802380D01*
X175045357Y-138754761D01*
X174997738Y-138707142D01*
X174521547Y-138135714D02*
X174521547Y-138802380D01*
X174521547Y-138230952D02*
X174473928Y-138183333D01*
X174378690Y-138135714D01*
X174235833Y-138135714D01*
X174140595Y-138183333D01*
X174092976Y-138278571D01*
X174092976Y-138802380D01*
X173188214Y-138802380D02*
X173188214Y-137802380D01*
X173188214Y-138754761D02*
X173283452Y-138802380D01*
X173473928Y-138802380D01*
X173569166Y-138754761D01*
X173616785Y-138707142D01*
X173664404Y-138611904D01*
X173664404Y-138326190D01*
X173616785Y-138230952D01*
X173569166Y-138183333D01*
X173473928Y-138135714D01*
X173283452Y-138135714D01*
X173188214Y-138183333D01*
X172331071Y-138754761D02*
X172426309Y-138802380D01*
X172616785Y-138802380D01*
X172712023Y-138754761D01*
X172759642Y-138659523D01*
X172759642Y-138278571D01*
X172712023Y-138183333D01*
X172616785Y-138135714D01*
X172426309Y-138135714D01*
X172331071Y-138183333D01*
X172283452Y-138278571D01*
X172283452Y-138373809D01*
X172759642Y-138469047D01*
X171854880Y-138802380D02*
X171854880Y-138135714D01*
X171854880Y-138326190D02*
X171807261Y-138230952D01*
X171759642Y-138183333D01*
X171664404Y-138135714D01*
X171569166Y-138135714D01*
X169902500Y-138707142D02*
X169950119Y-138754761D01*
X170092976Y-138802380D01*
X170188214Y-138802380D01*
X170331071Y-138754761D01*
X170426309Y-138659523D01*
X170473928Y-138564285D01*
X170521547Y-138373809D01*
X170521547Y-138230952D01*
X170473928Y-138040476D01*
X170426309Y-137945238D01*
X170331071Y-137850000D01*
X170188214Y-137802380D01*
X170092976Y-137802380D01*
X169950119Y-137850000D01*
X169902500Y-137897619D01*
X169473928Y-138802380D02*
X169473928Y-138135714D01*
X169473928Y-138326190D02*
X169426309Y-138230952D01*
X169378690Y-138183333D01*
X169283452Y-138135714D01*
X169188214Y-138135714D01*
X168473928Y-138754761D02*
X168569166Y-138802380D01*
X168759642Y-138802380D01*
X168854880Y-138754761D01*
X168902500Y-138659523D01*
X168902500Y-138278571D01*
X168854880Y-138183333D01*
X168759642Y-138135714D01*
X168569166Y-138135714D01*
X168473928Y-138183333D01*
X168426309Y-138278571D01*
X168426309Y-138373809D01*
X168902500Y-138469047D01*
X167569166Y-138802380D02*
X167569166Y-138278571D01*
X167616785Y-138183333D01*
X167712023Y-138135714D01*
X167902500Y-138135714D01*
X167997738Y-138183333D01*
X167569166Y-138754761D02*
X167664404Y-138802380D01*
X167902500Y-138802380D01*
X167997738Y-138754761D01*
X168045357Y-138659523D01*
X168045357Y-138564285D01*
X167997738Y-138469047D01*
X167902500Y-138421428D01*
X167664404Y-138421428D01*
X167569166Y-138373809D01*
X167235833Y-138135714D02*
X166854880Y-138135714D01*
X167092976Y-137802380D02*
X167092976Y-138659523D01*
X167045357Y-138754761D01*
X166950119Y-138802380D01*
X166854880Y-138802380D01*
X166521547Y-138802380D02*
X166521547Y-138135714D01*
X166521547Y-137802380D02*
X166569166Y-137850000D01*
X166521547Y-137897619D01*
X166473928Y-137850000D01*
X166521547Y-137802380D01*
X166521547Y-137897619D01*
X166140595Y-138135714D02*
X165902500Y-138802380D01*
X165664404Y-138135714D01*
X164902500Y-138754761D02*
X164997738Y-138802380D01*
X165188214Y-138802380D01*
X165283452Y-138754761D01*
X165331071Y-138659523D01*
X165331071Y-138278571D01*
X165283452Y-138183333D01*
X165188214Y-138135714D01*
X164997738Y-138135714D01*
X164902500Y-138183333D01*
X164854880Y-138278571D01*
X164854880Y-138373809D01*
X165331071Y-138469047D01*
X163092976Y-138707142D02*
X163140595Y-138754761D01*
X163283452Y-138802380D01*
X163378690Y-138802380D01*
X163521547Y-138754761D01*
X163616785Y-138659523D01*
X163664404Y-138564285D01*
X163712023Y-138373809D01*
X163712023Y-138230952D01*
X163664404Y-138040476D01*
X163616785Y-137945238D01*
X163521547Y-137850000D01*
X163378690Y-137802380D01*
X163283452Y-137802380D01*
X163140595Y-137850000D01*
X163092976Y-137897619D01*
X162521547Y-138802380D02*
X162616785Y-138754761D01*
X162664404Y-138707142D01*
X162712023Y-138611904D01*
X162712023Y-138326190D01*
X162664404Y-138230952D01*
X162616785Y-138183333D01*
X162521547Y-138135714D01*
X162378690Y-138135714D01*
X162283452Y-138183333D01*
X162235833Y-138230952D01*
X162188214Y-138326190D01*
X162188214Y-138611904D01*
X162235833Y-138707142D01*
X162283452Y-138754761D01*
X162378690Y-138802380D01*
X162521547Y-138802380D01*
X161759642Y-138802380D02*
X161759642Y-138135714D01*
X161759642Y-138230952D02*
X161712023Y-138183333D01*
X161616785Y-138135714D01*
X161473928Y-138135714D01*
X161378690Y-138183333D01*
X161331071Y-138278571D01*
X161331071Y-138802380D01*
X161331071Y-138278571D02*
X161283452Y-138183333D01*
X161188214Y-138135714D01*
X161045357Y-138135714D01*
X160950119Y-138183333D01*
X160902500Y-138278571D01*
X160902500Y-138802380D01*
X160426309Y-138802380D02*
X160426309Y-138135714D01*
X160426309Y-138230952D02*
X160378690Y-138183333D01*
X160283452Y-138135714D01*
X160140595Y-138135714D01*
X160045357Y-138183333D01*
X159997738Y-138278571D01*
X159997738Y-138802380D01*
X159997738Y-138278571D02*
X159950119Y-138183333D01*
X159854880Y-138135714D01*
X159712023Y-138135714D01*
X159616785Y-138183333D01*
X159569166Y-138278571D01*
X159569166Y-138802380D01*
X158950119Y-138802380D02*
X159045357Y-138754761D01*
X159092976Y-138707142D01*
X159140595Y-138611904D01*
X159140595Y-138326190D01*
X159092976Y-138230952D01*
X159045357Y-138183333D01*
X158950119Y-138135714D01*
X158807261Y-138135714D01*
X158712023Y-138183333D01*
X158664404Y-138230952D01*
X158616785Y-138326190D01*
X158616785Y-138611904D01*
X158664404Y-138707142D01*
X158712023Y-138754761D01*
X158807261Y-138802380D01*
X158950119Y-138802380D01*
X158188214Y-138135714D02*
X158188214Y-138802380D01*
X158188214Y-138230952D02*
X158140595Y-138183333D01*
X158045357Y-138135714D01*
X157902500Y-138135714D01*
X157807261Y-138183333D01*
X157759642Y-138278571D01*
X157759642Y-138802380D01*
X157331071Y-138754761D02*
X157235833Y-138802380D01*
X157045357Y-138802380D01*
X156950119Y-138754761D01*
X156902500Y-138659523D01*
X156902500Y-138611904D01*
X156950119Y-138516666D01*
X157045357Y-138469047D01*
X157188214Y-138469047D01*
X157283452Y-138421428D01*
X157331071Y-138326190D01*
X157331071Y-138278571D01*
X157283452Y-138183333D01*
X157188214Y-138135714D01*
X157045357Y-138135714D01*
X156950119Y-138183333D01*
X182712023Y-140166666D02*
X182235833Y-140166666D01*
X182807261Y-140452380D02*
X182473928Y-139452380D01*
X182140595Y-140452380D01*
X181950119Y-139785714D02*
X181569166Y-139785714D01*
X181807261Y-139452380D02*
X181807261Y-140309523D01*
X181759642Y-140404761D01*
X181664404Y-140452380D01*
X181569166Y-140452380D01*
X181378690Y-139785714D02*
X180997738Y-139785714D01*
X181235833Y-139452380D02*
X181235833Y-140309523D01*
X181188214Y-140404761D01*
X181092976Y-140452380D01*
X180997738Y-140452380D01*
X180664404Y-140452380D02*
X180664404Y-139785714D01*
X180664404Y-139976190D02*
X180616785Y-139880952D01*
X180569166Y-139833333D01*
X180473928Y-139785714D01*
X180378690Y-139785714D01*
X180045357Y-140452380D02*
X180045357Y-139785714D01*
X180045357Y-139452380D02*
X180092976Y-139500000D01*
X180045357Y-139547619D01*
X179997738Y-139500000D01*
X180045357Y-139452380D01*
X180045357Y-139547619D01*
X179569166Y-140452380D02*
X179569166Y-139452380D01*
X179569166Y-139833333D02*
X179473928Y-139785714D01*
X179283452Y-139785714D01*
X179188214Y-139833333D01*
X179140595Y-139880952D01*
X179092976Y-139976190D01*
X179092976Y-140261904D01*
X179140595Y-140357142D01*
X179188214Y-140404761D01*
X179283452Y-140452380D01*
X179473928Y-140452380D01*
X179569166Y-140404761D01*
X178235833Y-139785714D02*
X178235833Y-140452380D01*
X178664404Y-139785714D02*
X178664404Y-140309523D01*
X178616785Y-140404761D01*
X178521547Y-140452380D01*
X178378690Y-140452380D01*
X178283452Y-140404761D01*
X178235833Y-140357142D01*
X177902500Y-139785714D02*
X177521547Y-139785714D01*
X177759642Y-139452380D02*
X177759642Y-140309523D01*
X177712023Y-140404761D01*
X177616785Y-140452380D01*
X177521547Y-140452380D01*
X177188214Y-140452380D02*
X177188214Y-139785714D01*
X177188214Y-139452380D02*
X177235833Y-139500000D01*
X177188214Y-139547619D01*
X177140595Y-139500000D01*
X177188214Y-139452380D01*
X177188214Y-139547619D01*
X176569166Y-140452380D02*
X176664404Y-140404761D01*
X176712023Y-140357142D01*
X176759642Y-140261904D01*
X176759642Y-139976190D01*
X176712023Y-139880952D01*
X176664404Y-139833333D01*
X176569166Y-139785714D01*
X176426309Y-139785714D01*
X176331071Y-139833333D01*
X176283452Y-139880952D01*
X176235833Y-139976190D01*
X176235833Y-140261904D01*
X176283452Y-140357142D01*
X176331071Y-140404761D01*
X176426309Y-140452380D01*
X176569166Y-140452380D01*
X175807261Y-139785714D02*
X175807261Y-140452380D01*
X175807261Y-139880952D02*
X175759642Y-139833333D01*
X175664404Y-139785714D01*
X175521547Y-139785714D01*
X175426309Y-139833333D01*
X175378690Y-139928571D01*
X175378690Y-140452380D01*
X174902500Y-140071428D02*
X174140595Y-140071428D01*
X173712023Y-140404761D02*
X173569166Y-140452380D01*
X173331071Y-140452380D01*
X173235833Y-140404761D01*
X173188214Y-140357142D01*
X173140595Y-140261904D01*
X173140595Y-140166666D01*
X173188214Y-140071428D01*
X173235833Y-140023809D01*
X173331071Y-139976190D01*
X173521547Y-139928571D01*
X173616785Y-139880952D01*
X173664404Y-139833333D01*
X173712023Y-139738095D01*
X173712023Y-139642857D01*
X173664404Y-139547619D01*
X173616785Y-139500000D01*
X173521547Y-139452380D01*
X173283452Y-139452380D01*
X173140595Y-139500000D01*
X172712023Y-140452380D02*
X172712023Y-139452380D01*
X172283452Y-140452380D02*
X172283452Y-139928571D01*
X172331071Y-139833333D01*
X172426309Y-139785714D01*
X172569166Y-139785714D01*
X172664404Y-139833333D01*
X172712023Y-139880952D01*
X171378690Y-140452380D02*
X171378690Y-139928571D01*
X171426309Y-139833333D01*
X171521547Y-139785714D01*
X171712023Y-139785714D01*
X171807261Y-139833333D01*
X171378690Y-140404761D02*
X171473928Y-140452380D01*
X171712023Y-140452380D01*
X171807261Y-140404761D01*
X171854880Y-140309523D01*
X171854880Y-140214285D01*
X171807261Y-140119047D01*
X171712023Y-140071428D01*
X171473928Y-140071428D01*
X171378690Y-140023809D01*
X170902500Y-140452380D02*
X170902500Y-139785714D01*
X170902500Y-139976190D02*
X170854880Y-139880952D01*
X170807261Y-139833333D01*
X170712023Y-139785714D01*
X170616785Y-139785714D01*
X169902500Y-140404761D02*
X169997738Y-140452380D01*
X170188214Y-140452380D01*
X170283452Y-140404761D01*
X170331071Y-140309523D01*
X170331071Y-139928571D01*
X170283452Y-139833333D01*
X170188214Y-139785714D01*
X169997738Y-139785714D01*
X169902500Y-139833333D01*
X169854880Y-139928571D01*
X169854880Y-140023809D01*
X170331071Y-140119047D01*
X169473928Y-140166666D02*
X168997738Y-140166666D01*
X169569166Y-140452380D02*
X169235833Y-139452380D01*
X168902500Y-140452380D01*
X168426309Y-140452380D02*
X168521547Y-140404761D01*
X168569166Y-140309523D01*
X168569166Y-139452380D01*
X168045357Y-140452380D02*
X168045357Y-139785714D01*
X168045357Y-139452380D02*
X168092976Y-139500000D01*
X168045357Y-139547619D01*
X167997738Y-139500000D01*
X168045357Y-139452380D01*
X168045357Y-139547619D01*
X167569166Y-140452380D02*
X167569166Y-139452380D01*
X167473928Y-140071428D02*
X167188214Y-140452380D01*
X167188214Y-139785714D02*
X167569166Y-140166666D01*
X166378690Y-140404761D02*
X166473928Y-140452380D01*
X166664404Y-140452380D01*
X166759642Y-140404761D01*
X166807261Y-140309523D01*
X166807261Y-139928571D01*
X166759642Y-139833333D01*
X166664404Y-139785714D01*
X166473928Y-139785714D01*
X166378690Y-139833333D01*
X166331071Y-139928571D01*
X166331071Y-140023809D01*
X166807261Y-140119047D01*
X164569166Y-140357142D02*
X164616785Y-140404761D01*
X164759642Y-140452380D01*
X164854880Y-140452380D01*
X164997738Y-140404761D01*
X165092976Y-140309523D01*
X165140595Y-140214285D01*
X165188214Y-140023809D01*
X165188214Y-139880952D01*
X165140595Y-139690476D01*
X165092976Y-139595238D01*
X164997738Y-139500000D01*
X164854880Y-139452380D01*
X164759642Y-139452380D01*
X164616785Y-139500000D01*
X164569166Y-139547619D01*
X163569166Y-140357142D02*
X163616785Y-140404761D01*
X163759642Y-140452380D01*
X163854880Y-140452380D01*
X163997738Y-140404761D01*
X164092976Y-140309523D01*
X164140595Y-140214285D01*
X164188214Y-140023809D01*
X164188214Y-139880952D01*
X164140595Y-139690476D01*
X164092976Y-139595238D01*
X163997738Y-139500000D01*
X163854880Y-139452380D01*
X163759642Y-139452380D01*
X163616785Y-139500000D01*
X163569166Y-139547619D01*
X162045357Y-139928571D02*
X161902500Y-139976190D01*
X161854880Y-140023809D01*
X161807261Y-140119047D01*
X161807261Y-140261904D01*
X161854880Y-140357142D01*
X161902500Y-140404761D01*
X161997738Y-140452380D01*
X162378690Y-140452380D01*
X162378690Y-139452380D01*
X162045357Y-139452380D01*
X161950119Y-139500000D01*
X161902500Y-139547619D01*
X161854880Y-139642857D01*
X161854880Y-139738095D01*
X161902500Y-139833333D01*
X161950119Y-139880952D01*
X162045357Y-139928571D01*
X162378690Y-139928571D01*
X161188214Y-139976190D02*
X161188214Y-140452380D01*
X161521547Y-139452380D02*
X161188214Y-139976190D01*
X160854880Y-139452380D01*
X160521547Y-140071428D02*
X159759642Y-140071428D01*
X159331071Y-140404761D02*
X159188214Y-140452380D01*
X158950119Y-140452380D01*
X158854880Y-140404761D01*
X158807261Y-140357142D01*
X158759642Y-140261904D01*
X158759642Y-140166666D01*
X158807261Y-140071428D01*
X158854880Y-140023809D01*
X158950119Y-139976190D01*
X159140595Y-139928571D01*
X159235833Y-139880952D01*
X159283452Y-139833333D01*
X159331071Y-139738095D01*
X159331071Y-139642857D01*
X159283452Y-139547619D01*
X159235833Y-139500000D01*
X159140595Y-139452380D01*
X158902500Y-139452380D01*
X158759642Y-139500000D01*
X158378690Y-140166666D02*
X157902500Y-140166666D01*
X158473928Y-140452380D02*
X158140595Y-139452380D01*
X157807261Y-140452380D01*
X156283452Y-139785714D02*
X156283452Y-140452380D01*
X156521547Y-139404761D02*
X156759642Y-140119047D01*
X156140595Y-140119047D01*
X155759642Y-140357142D02*
X155712023Y-140404761D01*
X155759642Y-140452380D01*
X155807261Y-140404761D01*
X155759642Y-140357142D01*
X155759642Y-140452380D01*
X155092976Y-139452380D02*
X154997738Y-139452380D01*
X154902500Y-139500000D01*
X154854880Y-139547619D01*
X154807261Y-139642857D01*
X154759642Y-139833333D01*
X154759642Y-140071428D01*
X154807261Y-140261904D01*
X154854880Y-140357142D01*
X154902500Y-140404761D01*
X154997738Y-140452380D01*
X155092976Y-140452380D01*
X155188214Y-140404761D01*
X155235833Y-140357142D01*
X155283452Y-140261904D01*
X155331071Y-140071428D01*
X155331071Y-139833333D01*
X155283452Y-139642857D01*
X155235833Y-139547619D01*
X155188214Y-139500000D01*
X155092976Y-139452380D01*
X182664404Y-142102380D02*
X182664404Y-141102380D01*
X182235833Y-142102380D02*
X182235833Y-141578571D01*
X182283452Y-141483333D01*
X182378690Y-141435714D01*
X182521547Y-141435714D01*
X182616785Y-141483333D01*
X182664404Y-141530952D01*
X181902500Y-141435714D02*
X181521547Y-141435714D01*
X181759642Y-141102380D02*
X181759642Y-141959523D01*
X181712023Y-142054761D01*
X181616785Y-142102380D01*
X181521547Y-142102380D01*
X181331071Y-141435714D02*
X180950119Y-141435714D01*
X181188214Y-141102380D02*
X181188214Y-141959523D01*
X181140595Y-142054761D01*
X181045357Y-142102380D01*
X180950119Y-142102380D01*
X180616785Y-141435714D02*
X180616785Y-142435714D01*
X180616785Y-141483333D02*
X180521547Y-141435714D01*
X180331071Y-141435714D01*
X180235833Y-141483333D01*
X180188214Y-141530952D01*
X180140595Y-141626190D01*
X180140595Y-141911904D01*
X180188214Y-142007142D01*
X180235833Y-142054761D01*
X180331071Y-142102380D01*
X180521547Y-142102380D01*
X180616785Y-142054761D01*
X179712023Y-142007142D02*
X179664404Y-142054761D01*
X179712023Y-142102380D01*
X179759642Y-142054761D01*
X179712023Y-142007142D01*
X179712023Y-142102380D01*
X179712023Y-141483333D02*
X179664404Y-141530952D01*
X179712023Y-141578571D01*
X179759642Y-141530952D01*
X179712023Y-141483333D01*
X179712023Y-141578571D01*
X178521547Y-141054761D02*
X179378690Y-142340476D01*
X177473928Y-141054761D02*
X178331071Y-142340476D01*
X176712023Y-142054761D02*
X176807261Y-142102380D01*
X176997738Y-142102380D01*
X177092976Y-142054761D01*
X177140595Y-142007142D01*
X177188214Y-141911904D01*
X177188214Y-141626190D01*
X177140595Y-141530952D01*
X177092976Y-141483333D01*
X176997738Y-141435714D01*
X176807261Y-141435714D01*
X176712023Y-141483333D01*
X176283452Y-142102380D02*
X176283452Y-141435714D01*
X176283452Y-141626190D02*
X176235833Y-141530952D01*
X176188214Y-141483333D01*
X176092976Y-141435714D01*
X175997738Y-141435714D01*
X175283452Y-142054761D02*
X175378690Y-142102380D01*
X175569166Y-142102380D01*
X175664404Y-142054761D01*
X175712023Y-141959523D01*
X175712023Y-141578571D01*
X175664404Y-141483333D01*
X175569166Y-141435714D01*
X175378690Y-141435714D01*
X175283452Y-141483333D01*
X175235833Y-141578571D01*
X175235833Y-141673809D01*
X175712023Y-141769047D01*
X174378690Y-142102380D02*
X174378690Y-141578571D01*
X174426309Y-141483333D01*
X174521547Y-141435714D01*
X174712023Y-141435714D01*
X174807261Y-141483333D01*
X174378690Y-142054761D02*
X174473928Y-142102380D01*
X174712023Y-142102380D01*
X174807261Y-142054761D01*
X174854880Y-141959523D01*
X174854880Y-141864285D01*
X174807261Y-141769047D01*
X174712023Y-141721428D01*
X174473928Y-141721428D01*
X174378690Y-141673809D01*
X174045357Y-141435714D02*
X173664404Y-141435714D01*
X173902500Y-141102380D02*
X173902500Y-141959523D01*
X173854880Y-142054761D01*
X173759642Y-142102380D01*
X173664404Y-142102380D01*
X173331071Y-142102380D02*
X173331071Y-141435714D01*
X173331071Y-141102380D02*
X173378690Y-141150000D01*
X173331071Y-141197619D01*
X173283452Y-141150000D01*
X173331071Y-141102380D01*
X173331071Y-141197619D01*
X172950119Y-141435714D02*
X172712023Y-142102380D01*
X172473928Y-141435714D01*
X171712023Y-142054761D02*
X171807261Y-142102380D01*
X171997738Y-142102380D01*
X172092976Y-142054761D01*
X172140595Y-141959523D01*
X172140595Y-141578571D01*
X172092976Y-141483333D01*
X171997738Y-141435714D01*
X171807261Y-141435714D01*
X171712023Y-141483333D01*
X171664404Y-141578571D01*
X171664404Y-141673809D01*
X172140595Y-141769047D01*
X170807261Y-142054761D02*
X170902500Y-142102380D01*
X171092976Y-142102380D01*
X171188214Y-142054761D01*
X171235833Y-142007142D01*
X171283452Y-141911904D01*
X171283452Y-141626190D01*
X171235833Y-141530952D01*
X171188214Y-141483333D01*
X171092976Y-141435714D01*
X170902500Y-141435714D01*
X170807261Y-141483333D01*
X170235833Y-142102380D02*
X170331071Y-142054761D01*
X170378690Y-142007142D01*
X170426309Y-141911904D01*
X170426309Y-141626190D01*
X170378690Y-141530952D01*
X170331071Y-141483333D01*
X170235833Y-141435714D01*
X170092976Y-141435714D01*
X169997738Y-141483333D01*
X169950119Y-141530952D01*
X169902500Y-141626190D01*
X169902500Y-141911904D01*
X169950119Y-142007142D01*
X169997738Y-142054761D01*
X170092976Y-142102380D01*
X170235833Y-142102380D01*
X169473928Y-142102380D02*
X169473928Y-141435714D01*
X169473928Y-141530952D02*
X169426309Y-141483333D01*
X169331071Y-141435714D01*
X169188214Y-141435714D01*
X169092976Y-141483333D01*
X169045357Y-141578571D01*
X169045357Y-142102380D01*
X169045357Y-141578571D02*
X168997738Y-141483333D01*
X168902500Y-141435714D01*
X168759642Y-141435714D01*
X168664404Y-141483333D01*
X168616785Y-141578571D01*
X168616785Y-142102380D01*
X168140595Y-142102380D02*
X168140595Y-141435714D01*
X168140595Y-141530952D02*
X168092976Y-141483333D01*
X167997738Y-141435714D01*
X167854880Y-141435714D01*
X167759642Y-141483333D01*
X167712023Y-141578571D01*
X167712023Y-142102380D01*
X167712023Y-141578571D02*
X167664404Y-141483333D01*
X167569166Y-141435714D01*
X167426309Y-141435714D01*
X167331071Y-141483333D01*
X167283452Y-141578571D01*
X167283452Y-142102380D01*
X166664404Y-142102380D02*
X166759642Y-142054761D01*
X166807261Y-142007142D01*
X166854880Y-141911904D01*
X166854880Y-141626190D01*
X166807261Y-141530952D01*
X166759642Y-141483333D01*
X166664404Y-141435714D01*
X166521547Y-141435714D01*
X166426309Y-141483333D01*
X166378690Y-141530952D01*
X166331071Y-141626190D01*
X166331071Y-141911904D01*
X166378690Y-142007142D01*
X166426309Y-142054761D01*
X166521547Y-142102380D01*
X166664404Y-142102380D01*
X165902500Y-141435714D02*
X165902500Y-142102380D01*
X165902500Y-141530952D02*
X165854880Y-141483333D01*
X165759642Y-141435714D01*
X165616785Y-141435714D01*
X165521547Y-141483333D01*
X165473928Y-141578571D01*
X165473928Y-142102380D01*
X165045357Y-142054761D02*
X164950119Y-142102380D01*
X164759642Y-142102380D01*
X164664404Y-142054761D01*
X164616785Y-141959523D01*
X164616785Y-141911904D01*
X164664404Y-141816666D01*
X164759642Y-141769047D01*
X164902500Y-141769047D01*
X164997738Y-141721428D01*
X165045357Y-141626190D01*
X165045357Y-141578571D01*
X164997738Y-141483333D01*
X164902500Y-141435714D01*
X164759642Y-141435714D01*
X164664404Y-141483333D01*
X164188214Y-142007142D02*
X164140595Y-142054761D01*
X164188214Y-142102380D01*
X164235833Y-142054761D01*
X164188214Y-142007142D01*
X164188214Y-142102380D01*
X163569166Y-142102380D02*
X163664404Y-142054761D01*
X163712023Y-142007142D01*
X163759642Y-141911904D01*
X163759642Y-141626190D01*
X163712023Y-141530952D01*
X163664404Y-141483333D01*
X163569166Y-141435714D01*
X163426309Y-141435714D01*
X163331071Y-141483333D01*
X163283452Y-141530952D01*
X163235833Y-141626190D01*
X163235833Y-141911904D01*
X163283452Y-142007142D01*
X163331071Y-142054761D01*
X163426309Y-142102380D01*
X163569166Y-142102380D01*
X162807261Y-142102380D02*
X162807261Y-141435714D01*
X162807261Y-141626190D02*
X162759642Y-141530952D01*
X162712023Y-141483333D01*
X162616785Y-141435714D01*
X162521547Y-141435714D01*
X161759642Y-141435714D02*
X161759642Y-142245238D01*
X161807261Y-142340476D01*
X161854880Y-142388095D01*
X161950119Y-142435714D01*
X162092976Y-142435714D01*
X162188214Y-142388095D01*
X161759642Y-142054761D02*
X161854880Y-142102380D01*
X162045357Y-142102380D01*
X162140595Y-142054761D01*
X162188214Y-142007142D01*
X162235833Y-141911904D01*
X162235833Y-141626190D01*
X162188214Y-141530952D01*
X162140595Y-141483333D01*
X162045357Y-141435714D01*
X161854880Y-141435714D01*
X161759642Y-141483333D01*
X160569166Y-141054761D02*
X161426309Y-142340476D01*
X160092976Y-142102380D02*
X160188214Y-142054761D01*
X160235833Y-141959523D01*
X160235833Y-141102380D01*
X159712023Y-142102380D02*
X159712023Y-141435714D01*
X159712023Y-141102380D02*
X159759642Y-141150000D01*
X159712023Y-141197619D01*
X159664404Y-141150000D01*
X159712023Y-141102380D01*
X159712023Y-141197619D01*
X158807261Y-142054761D02*
X158902500Y-142102380D01*
X159092976Y-142102380D01*
X159188214Y-142054761D01*
X159235833Y-142007142D01*
X159283452Y-141911904D01*
X159283452Y-141626190D01*
X159235833Y-141530952D01*
X159188214Y-141483333D01*
X159092976Y-141435714D01*
X158902500Y-141435714D01*
X158807261Y-141483333D01*
X157997738Y-142054761D02*
X158092976Y-142102380D01*
X158283452Y-142102380D01*
X158378690Y-142054761D01*
X158426309Y-141959523D01*
X158426309Y-141578571D01*
X158378690Y-141483333D01*
X158283452Y-141435714D01*
X158092976Y-141435714D01*
X157997738Y-141483333D01*
X157950119Y-141578571D01*
X157950119Y-141673809D01*
X158426309Y-141769047D01*
X157521547Y-141435714D02*
X157521547Y-142102380D01*
X157521547Y-141530952D02*
X157473928Y-141483333D01*
X157378690Y-141435714D01*
X157235833Y-141435714D01*
X157140595Y-141483333D01*
X157092976Y-141578571D01*
X157092976Y-142102380D01*
X156664404Y-142054761D02*
X156569166Y-142102380D01*
X156378690Y-142102380D01*
X156283452Y-142054761D01*
X156235833Y-141959523D01*
X156235833Y-141911904D01*
X156283452Y-141816666D01*
X156378690Y-141769047D01*
X156521547Y-141769047D01*
X156616785Y-141721428D01*
X156664404Y-141626190D01*
X156664404Y-141578571D01*
X156616785Y-141483333D01*
X156521547Y-141435714D01*
X156378690Y-141435714D01*
X156283452Y-141483333D01*
X155426309Y-142054761D02*
X155521547Y-142102380D01*
X155712023Y-142102380D01*
X155807261Y-142054761D01*
X155854880Y-141959523D01*
X155854880Y-141578571D01*
X155807261Y-141483333D01*
X155712023Y-141435714D01*
X155521547Y-141435714D01*
X155426309Y-141483333D01*
X155378690Y-141578571D01*
X155378690Y-141673809D01*
X155854880Y-141769047D01*
X154997738Y-142054761D02*
X154902500Y-142102380D01*
X154712023Y-142102380D01*
X154616785Y-142054761D01*
X154569166Y-141959523D01*
X154569166Y-141911904D01*
X154616785Y-141816666D01*
X154712023Y-141769047D01*
X154854880Y-141769047D01*
X154950119Y-141721428D01*
X154997738Y-141626190D01*
X154997738Y-141578571D01*
X154950119Y-141483333D01*
X154854880Y-141435714D01*
X154712023Y-141435714D01*
X154616785Y-141483333D01*
X153426309Y-141054761D02*
X154283452Y-142340476D01*
X153092976Y-142102380D02*
X153092976Y-141102380D01*
X153092976Y-141483333D02*
X152997738Y-141435714D01*
X152807261Y-141435714D01*
X152712023Y-141483333D01*
X152664404Y-141530952D01*
X152616785Y-141626190D01*
X152616785Y-141911904D01*
X152664404Y-142007142D01*
X152712023Y-142054761D01*
X152807261Y-142102380D01*
X152997738Y-142102380D01*
X153092976Y-142054761D01*
X152283452Y-141435714D02*
X152045357Y-142102380D01*
X151807261Y-141435714D02*
X152045357Y-142102380D01*
X152140595Y-142340476D01*
X152188214Y-142388095D01*
X152283452Y-142435714D01*
X151426309Y-141721428D02*
X150664404Y-141721428D01*
X150235833Y-142054761D02*
X150140595Y-142102380D01*
X149950119Y-142102380D01*
X149854880Y-142054761D01*
X149807261Y-141959523D01*
X149807261Y-141911904D01*
X149854880Y-141816666D01*
X149950119Y-141769047D01*
X150092976Y-141769047D01*
X150188214Y-141721428D01*
X150235833Y-141626190D01*
X150235833Y-141578571D01*
X150188214Y-141483333D01*
X150092976Y-141435714D01*
X149950119Y-141435714D01*
X149854880Y-141483333D01*
X148950119Y-142102380D02*
X148950119Y-141578571D01*
X148997738Y-141483333D01*
X149092976Y-141435714D01*
X149283452Y-141435714D01*
X149378690Y-141483333D01*
X148950119Y-142054761D02*
X149045357Y-142102380D01*
X149283452Y-142102380D01*
X149378690Y-142054761D01*
X149426309Y-141959523D01*
X149426309Y-141864285D01*
X149378690Y-141769047D01*
X149283452Y-141721428D01*
X149045357Y-141721428D01*
X148950119Y-141673809D01*
X147759642Y-141054761D02*
X148616785Y-142340476D01*
X146997738Y-141435714D02*
X146997738Y-142102380D01*
X147235833Y-141054761D02*
X147473928Y-141769047D01*
X146854880Y-141769047D01*
X146473928Y-142007142D02*
X146426309Y-142054761D01*
X146473928Y-142102380D01*
X146521547Y-142054761D01*
X146473928Y-142007142D01*
X146473928Y-142102380D01*
X145807261Y-141102380D02*
X145712023Y-141102380D01*
X145616785Y-141150000D01*
X145569166Y-141197619D01*
X145521547Y-141292857D01*
X145473928Y-141483333D01*
X145473928Y-141721428D01*
X145521547Y-141911904D01*
X145569166Y-142007142D01*
X145616785Y-142054761D01*
X145712023Y-142102380D01*
X145807261Y-142102380D01*
X145902500Y-142054761D01*
X145950119Y-142007142D01*
X145997738Y-141911904D01*
X146045357Y-141721428D01*
X146045357Y-141483333D01*
X145997738Y-141292857D01*
X145950119Y-141197619D01*
X145902500Y-141150000D01*
X145807261Y-141102380D01*
X144331071Y-141054761D02*
X145188214Y-142340476D01*
D11*
X105000000Y-65000000D02*
X195000000Y-65000000D01*
X200000000Y-70000000D02*
X200000000Y-140000000D01*
X200000000Y-70000000D02*
G75*
G03*
X195000000Y-65000000I-5000000J0D01*
G01*
X100000000Y-70000000D02*
X100000000Y-140000000D01*
X105000000Y-65000000D02*
G75*
G03*
X100000000Y-70000000I0J-5000000D01*
G01*
X195000000Y-145000000D02*
X105000000Y-145000000D01*
X195000000Y-145000000D02*
G75*
G03*
X200000000Y-140000000I0J5000000D01*
G01*
X100000000Y-140000000D02*
G75*
G03*
X105000000Y-145000000I5000000J0D01*
G01*
D12*
X111350000Y-78000000D02*
X109000000Y-80350000D01*
X113350000Y-78000000D02*
X109000000Y-82350000D01*
X115350000Y-78000000D02*
X109000000Y-84350000D01*
X117350000Y-78000000D02*
X109000000Y-86350000D01*
X133350000Y-78000000D02*
X125000000Y-86350000D01*
X137350000Y-78000000D02*
X129000000Y-86350000D01*
X135350000Y-78000000D02*
X127000000Y-86350000D01*
X143350000Y-78000000D02*
X135000000Y-86350000D01*
X139350000Y-78000000D02*
X131000000Y-86350000D01*
X141350000Y-78000000D02*
X133000000Y-86350000D01*
X149350000Y-78000000D02*
X141000000Y-86350000D01*
X145350000Y-78000000D02*
X137000000Y-86350000D01*
X147350000Y-78000000D02*
X139000000Y-86350000D01*
X119350000Y-78000000D02*
X111000000Y-86350000D01*
X125350000Y-78000000D02*
X117000000Y-86350000D01*
X121350000Y-78000000D02*
X113000000Y-86350000D01*
X123350000Y-78000000D02*
X115000000Y-86350000D01*
X129350000Y-78000000D02*
X121000000Y-86350000D01*
X127350000Y-78000000D02*
X119000000Y-86350000D01*
X131350000Y-78000000D02*
X123000000Y-86350000D01*
X161350000Y-78000000D02*
X153000000Y-86350000D01*
X159350000Y-78000000D02*
X151000000Y-86350000D01*
X157350000Y-78000000D02*
X149000000Y-86350000D01*
X165350000Y-78000000D02*
X157000000Y-86350000D01*
X167350000Y-78000000D02*
X159000000Y-86350000D01*
X163350000Y-78000000D02*
X155000000Y-86350000D01*
X169350000Y-78000000D02*
X161000000Y-86350000D01*
X174000000Y-79350000D02*
X167000000Y-86350000D01*
X174000000Y-83350000D02*
X171000000Y-86350000D01*
X173350000Y-78000000D02*
X165000000Y-86350000D01*
X174000000Y-85350000D02*
X173000000Y-86350000D01*
X174000000Y-81350000D02*
X169000000Y-86350000D01*
X171350000Y-78000000D02*
X163000000Y-86350000D01*
X155350000Y-78000000D02*
X147000000Y-86350000D01*
X151350000Y-78000000D02*
X143000000Y-86350000D01*
X109350000Y-78000000D02*
X109000000Y-78350000D01*
X153350000Y-78000000D02*
X145000000Y-86350000D01*
X109350000Y-123650000D02*
X109000000Y-124000000D01*
X111350000Y-123650000D02*
X109000000Y-126000000D01*
X113350000Y-123650000D02*
X109000000Y-128000000D01*
X115350000Y-123650000D02*
X109000000Y-130000000D01*
X117350000Y-123650000D02*
X109000000Y-132000000D01*
X119350000Y-123650000D02*
X111000000Y-132000000D01*
X121350000Y-123650000D02*
X113000000Y-132000000D01*
X125350000Y-123650000D02*
X117000000Y-132000000D01*
X123350000Y-123650000D02*
X115000000Y-132000000D01*
X127350000Y-123650000D02*
X119000000Y-132000000D01*
X131350000Y-123650000D02*
X123000000Y-132000000D01*
X129350000Y-123650000D02*
X121000000Y-132000000D01*
X133350000Y-123650000D02*
X125000000Y-132000000D01*
X137350000Y-123650000D02*
X129000000Y-132000000D01*
X135350000Y-123650000D02*
X127000000Y-132000000D01*
X139350000Y-123650000D02*
X131000000Y-132000000D01*
X143350000Y-123650000D02*
X135000000Y-132000000D01*
X141350000Y-123650000D02*
X133000000Y-132000000D01*
X145350000Y-123650000D02*
X137000000Y-132000000D01*
X149350000Y-123650000D02*
X141000000Y-132000000D01*
X147350000Y-123650000D02*
X139000000Y-132000000D01*
X151350000Y-123650000D02*
X143000000Y-132000000D01*
X155350000Y-123650000D02*
X147000000Y-132000000D01*
X153350000Y-123650000D02*
X145000000Y-132000000D01*
X157350000Y-123650000D02*
X149000000Y-132000000D01*
X161350000Y-123650000D02*
X153000000Y-132000000D01*
X159350000Y-123650000D02*
X151000000Y-132000000D01*
X163350000Y-123650000D02*
X155000000Y-132000000D01*
X167350000Y-123650000D02*
X159000000Y-132000000D01*
X165350000Y-123650000D02*
X157000000Y-132000000D01*
X169350000Y-123650000D02*
X161000000Y-132000000D01*
X171350000Y-123650000D02*
X163000000Y-132000000D01*
X185260000Y-86750000D02*
X184210000Y-87800000D01*
X186210000Y-86800000D02*
X184210000Y-88800000D01*
X186210000Y-87800000D02*
X184210000Y-89800000D01*
X186210000Y-88800000D02*
X184210000Y-90800000D01*
X186210000Y-89800000D02*
X184210000Y-91800000D01*
X186210000Y-90800000D02*
X184210000Y-92800000D01*
X186210000Y-91800000D02*
X184210000Y-93800000D01*
X186210000Y-92800000D02*
X184210000Y-94800000D01*
X186210000Y-93800000D02*
X184210000Y-95800000D01*
X186210000Y-94800000D02*
X184210000Y-96800000D01*
X186210000Y-95800000D02*
X184210000Y-97800000D01*
X186210000Y-96800000D02*
X184210000Y-98800000D01*
X186210000Y-97800000D02*
X184210000Y-99800000D01*
X186210000Y-98800000D02*
X184210000Y-100800000D01*
X186210000Y-99800000D02*
X184210000Y-101800000D01*
X186210000Y-100800000D02*
X184210000Y-102800000D01*
X186210000Y-101800000D02*
X184210000Y-103800000D01*
X186210000Y-102800000D02*
X184210000Y-104800000D01*
X186210000Y-103800000D02*
X184210000Y-105800000D01*
X186210000Y-104800000D02*
X184210000Y-106800000D01*
X186210000Y-105800000D02*
X184210000Y-107800000D01*
X186210000Y-106800000D02*
X184210000Y-108800000D01*
X186210000Y-107800000D02*
X184210000Y-109800000D01*
X186210000Y-108800000D02*
X184210000Y-110800000D01*
X186210000Y-109800000D02*
X184210000Y-111800000D01*
X186210000Y-110800000D02*
X184210000Y-112800000D01*
X186210000Y-111800000D02*
X184210000Y-113800000D01*
X186210000Y-112800000D02*
X184210000Y-114800000D01*
X186210000Y-113800000D02*
X184210000Y-115800000D01*
X186210000Y-114800000D02*
X184210000Y-116800000D01*
X186210000Y-115800000D02*
X184210000Y-117800000D01*
X186210000Y-116800000D02*
X184210000Y-118800000D01*
X186210000Y-117800000D02*
X184210000Y-119800000D01*
X186210000Y-118800000D02*
X184210000Y-120800000D01*
X186210000Y-119800000D02*
X184210000Y-121800000D01*
X186210000Y-120800000D02*
X184210000Y-122800000D01*
X186210000Y-127800000D02*
X185210000Y-128800000D01*
X186210000Y-121800000D02*
X184210000Y-123800000D01*
X186210000Y-123800000D02*
X184210000Y-125800000D01*
X186210000Y-124800000D02*
X184210000Y-126800000D01*
X186210000Y-122800000D02*
X184210000Y-124800000D01*
X186210000Y-125800000D02*
X184210000Y-127800000D01*
X186210000Y-126800000D02*
X184210000Y-128800000D01*
X199500000Y-74560000D02*
X105640000Y-74560000D01*
X199500000Y-135440000D02*
X105640000Y-135440000D01*
X199500000Y-74560000D02*
X199500000Y-135440000D01*
X105640000Y-74560000D02*
X105640000Y-135440000D01*
X199000000Y-86720000D02*
X181510000Y-86720000D01*
X181010000Y-87220000D02*
X181010000Y-92060000D01*
X199000000Y-128800000D02*
X181510000Y-128800000D01*
X181010000Y-128300000D02*
X181010000Y-123460000D01*
X184210000Y-86720000D02*
X184210000Y-128800000D01*
X186210000Y-86720000D02*
X186210000Y-128800000D01*
X174000000Y-78000000D02*
X109000000Y-78000000D01*
X109000000Y-86350000D02*
X174000000Y-86350000D01*
X109000000Y-78000000D02*
X109000000Y-86350000D01*
X174000000Y-86350000D02*
X174000000Y-78000000D01*
X109000000Y-132000000D02*
X174000000Y-132000000D01*
X174000000Y-123650000D02*
X109000000Y-123650000D01*
X109000000Y-123650000D02*
X109000000Y-132000000D01*
X174000000Y-132000000D02*
X174000000Y-123650000D01*
X174000000Y-131000000D02*
X173000000Y-132000000D01*
X174000000Y-129000000D02*
X171000000Y-132000000D01*
X174000000Y-127000000D02*
X169000000Y-132000000D01*
X174000000Y-125000000D02*
X167000000Y-132000000D01*
X173350000Y-123650000D02*
X165000000Y-132000000D01*
X181510000Y-128800000D02*
G75*
G02*
X181010000Y-128300000I0J500000D01*
G01*
X181010000Y-87220000D02*
G75*
G02*
X181510000Y-86720000I500000J0D01*
G01*
X199500000Y-128300000D02*
G75*
G02*
X199000000Y-128800000I-500000J0D01*
G01*
X199000000Y-86720000D02*
G75*
G02*
X199500000Y-87220000I0J-500000D01*
G01*
X112880000Y-71236000D02*
X112880000Y-71080000D01*
X112880000Y-68920000D02*
X112880000Y-68764000D01*
X116112335Y-71078608D02*
G75*
G02*
X112880000Y-71235516I-1672335J1078608D01*
G01*
X116112335Y-68921392D02*
G75*
G03*
X112880000Y-68764484I-1672335J-1078608D01*
G01*
X115481130Y-71079837D02*
G75*
G02*
X113399039Y-71080000I-1041130J1079837D01*
G01*
X115481130Y-68920163D02*
G75*
G03*
X113399039Y-68920000I-1041130J-1079837D01*
G01*
X117960000Y-71236000D02*
X117960000Y-71080000D01*
X117960000Y-68920000D02*
X117960000Y-68764000D01*
X121192335Y-71078608D02*
G75*
G02*
X117960000Y-71235516I-1672335J1078608D01*
G01*
X121192335Y-68921392D02*
G75*
G03*
X117960000Y-68764484I-1672335J-1078608D01*
G01*
X120561130Y-71079837D02*
G75*
G02*
X118479039Y-71080000I-1041130J1079837D01*
G01*
X120561130Y-68920163D02*
G75*
G03*
X118479039Y-68920000I-1041130J-1079837D01*
G01*
X123040000Y-71236000D02*
X123040000Y-71080000D01*
X123040000Y-68920000D02*
X123040000Y-68764000D01*
X126272335Y-71078608D02*
G75*
G02*
X123040000Y-71235516I-1672335J1078608D01*
G01*
X126272335Y-68921392D02*
G75*
G03*
X123040000Y-68764484I-1672335J-1078608D01*
G01*
X125641130Y-71079837D02*
G75*
G02*
X123559039Y-71080000I-1041130J1079837D01*
G01*
X125641130Y-68920163D02*
G75*
G03*
X123559039Y-68920000I-1041130J-1079837D01*
G01*
X128120000Y-71236000D02*
X128120000Y-71080000D01*
X128120000Y-68920000D02*
X128120000Y-68764000D01*
X131352335Y-71078608D02*
G75*
G02*
X128120000Y-71235516I-1672335J1078608D01*
G01*
X131352335Y-68921392D02*
G75*
G03*
X128120000Y-68764484I-1672335J-1078608D01*
G01*
X130721130Y-71079837D02*
G75*
G02*
X128639039Y-71080000I-1041130J1079837D01*
G01*
X130721130Y-68920163D02*
G75*
G03*
X128639039Y-68920000I-1041130J-1079837D01*
G01*
X133200000Y-71236000D02*
X133200000Y-71080000D01*
X133200000Y-68920000D02*
X133200000Y-68764000D01*
X136432335Y-71078608D02*
G75*
G02*
X133200000Y-71235516I-1672335J1078608D01*
G01*
X136432335Y-68921392D02*
G75*
G03*
X133200000Y-68764484I-1672335J-1078608D01*
G01*
X135801130Y-71079837D02*
G75*
G02*
X133719039Y-71080000I-1041130J1079837D01*
G01*
X135801130Y-68920163D02*
G75*
G03*
X133719039Y-68920000I-1041130J-1079837D01*
G01*
X138280000Y-71236000D02*
X138280000Y-71080000D01*
X138280000Y-68920000D02*
X138280000Y-68764000D01*
X141512335Y-71078608D02*
G75*
G02*
X138280000Y-71235516I-1672335J1078608D01*
G01*
X141512335Y-68921392D02*
G75*
G03*
X138280000Y-68764484I-1672335J-1078608D01*
G01*
X140881130Y-71079837D02*
G75*
G02*
X138799039Y-71080000I-1041130J1079837D01*
G01*
X140881130Y-68920163D02*
G75*
G03*
X138799039Y-68920000I-1041130J-1079837D01*
G01*
X143360000Y-71236000D02*
X143360000Y-71080000D01*
X143360000Y-68920000D02*
X143360000Y-68764000D01*
X146592335Y-71078608D02*
G75*
G02*
X143360000Y-71235516I-1672335J1078608D01*
G01*
X146592335Y-68921392D02*
G75*
G03*
X143360000Y-68764484I-1672335J-1078608D01*
G01*
X145961130Y-71079837D02*
G75*
G02*
X143879039Y-71080000I-1041130J1079837D01*
G01*
X145961130Y-68920163D02*
G75*
G03*
X143879039Y-68920000I-1041130J-1079837D01*
G01*
X148440000Y-71236000D02*
X148440000Y-71080000D01*
X148440000Y-68920000D02*
X148440000Y-68764000D01*
X151672335Y-71078608D02*
G75*
G02*
X148440000Y-71235516I-1672335J1078608D01*
G01*
X151672335Y-68921392D02*
G75*
G03*
X148440000Y-68764484I-1672335J-1078608D01*
G01*
X151041130Y-71079837D02*
G75*
G02*
X148959039Y-71080000I-1041130J1079837D01*
G01*
X151041130Y-68920163D02*
G75*
G03*
X148959039Y-68920000I-1041130J-1079837D01*
G01*
X153520000Y-71236000D02*
X153520000Y-71080000D01*
X153520000Y-68920000D02*
X153520000Y-68764000D01*
X156752335Y-71078608D02*
G75*
G02*
X153520000Y-71235516I-1672335J1078608D01*
G01*
X156752335Y-68921392D02*
G75*
G03*
X153520000Y-68764484I-1672335J-1078608D01*
G01*
X156121130Y-71079837D02*
G75*
G02*
X154039039Y-71080000I-1041130J1079837D01*
G01*
X156121130Y-68920163D02*
G75*
G03*
X154039039Y-68920000I-1041130J-1079837D01*
G01*
X158600000Y-71236000D02*
X158600000Y-71080000D01*
X158600000Y-68920000D02*
X158600000Y-68764000D01*
X161832335Y-71078608D02*
G75*
G02*
X158600000Y-71235516I-1672335J1078608D01*
G01*
X161832335Y-68921392D02*
G75*
G03*
X158600000Y-68764484I-1672335J-1078608D01*
G01*
X161201130Y-71079837D02*
G75*
G02*
X159119039Y-71080000I-1041130J1079837D01*
G01*
X161201130Y-68920163D02*
G75*
G03*
X159119039Y-68920000I-1041130J-1079837D01*
G01*
X163680000Y-71236000D02*
X163680000Y-71080000D01*
X163680000Y-68920000D02*
X163680000Y-68764000D01*
X166912335Y-71078608D02*
G75*
G02*
X163680000Y-71235516I-1672335J1078608D01*
G01*
X166912335Y-68921392D02*
G75*
G03*
X163680000Y-68764484I-1672335J-1078608D01*
G01*
X166281130Y-71079837D02*
G75*
G02*
X164199039Y-71080000I-1041130J1079837D01*
G01*
X166281130Y-68920163D02*
G75*
G03*
X164199039Y-68920000I-1041130J-1079837D01*
G01*
X168760000Y-71236000D02*
X168760000Y-71080000D01*
X168760000Y-68920000D02*
X168760000Y-68764000D01*
X171992335Y-71078608D02*
G75*
G02*
X168760000Y-71235516I-1672335J1078608D01*
G01*
X171992335Y-68921392D02*
G75*
G03*
X168760000Y-68764484I-1672335J-1078608D01*
G01*
X171361130Y-71079837D02*
G75*
G02*
X169279039Y-71080000I-1041130J1079837D01*
G01*
X171361130Y-68920163D02*
G75*
G03*
X169279039Y-68920000I-1041130J-1079837D01*
G01*
X173840000Y-71236000D02*
X173840000Y-71080000D01*
X173840000Y-68920000D02*
X173840000Y-68764000D01*
X177072335Y-71078608D02*
G75*
G02*
X173840000Y-71235516I-1672335J1078608D01*
G01*
X177072335Y-68921392D02*
G75*
G03*
X173840000Y-68764484I-1672335J-1078608D01*
G01*
X176441130Y-71079837D02*
G75*
G02*
X174359039Y-71080000I-1041130J1079837D01*
G01*
X176441130Y-68920163D02*
G75*
G03*
X174359039Y-68920000I-1041130J-1079837D01*
G01*
X178920000Y-71236000D02*
X178920000Y-71080000D01*
X178920000Y-68920000D02*
X178920000Y-68764000D01*
X182152335Y-71078608D02*
G75*
G02*
X178920000Y-71235516I-1672335J1078608D01*
G01*
X182152335Y-68921392D02*
G75*
G03*
X178920000Y-68764484I-1672335J-1078608D01*
G01*
X181521130Y-71079837D02*
G75*
G02*
X179439039Y-71080000I-1041130J1079837D01*
G01*
X181521130Y-68920163D02*
G75*
G03*
X179439039Y-68920000I-1041130J-1079837D01*
G01*
X184000000Y-71236000D02*
X184000000Y-71080000D01*
X184000000Y-68920000D02*
X184000000Y-68764000D01*
X187232335Y-71078608D02*
G75*
G02*
X184000000Y-71235516I-1672335J1078608D01*
G01*
X187232335Y-68921392D02*
G75*
G03*
X184000000Y-68764484I-1672335J-1078608D01*
G01*
X186601130Y-71079837D02*
G75*
G02*
X184519039Y-71080000I-1041130J1079837D01*
G01*
X186601130Y-68920163D02*
G75*
G03*
X184519039Y-68920000I-1041130J-1079837D01*
G01*
D10*
X198164404Y-85852380D02*
X198164404Y-84852380D01*
X197926309Y-84852380D01*
X197783452Y-84900000D01*
X197688214Y-84995238D01*
X197640595Y-85090476D01*
X197592976Y-85280952D01*
X197592976Y-85423809D01*
X197640595Y-85614285D01*
X197688214Y-85709523D01*
X197783452Y-85804761D01*
X197926309Y-85852380D01*
X198164404Y-85852380D01*
X197212023Y-85804761D02*
X197069166Y-85852380D01*
X196831071Y-85852380D01*
X196735833Y-85804761D01*
X196688214Y-85757142D01*
X196640595Y-85661904D01*
X196640595Y-85566666D01*
X196688214Y-85471428D01*
X196735833Y-85423809D01*
X196831071Y-85376190D01*
X197021547Y-85328571D01*
X197116785Y-85280952D01*
X197164404Y-85233333D01*
X197212023Y-85138095D01*
X197212023Y-85042857D01*
X197164404Y-84947619D01*
X197116785Y-84900000D01*
X197021547Y-84852380D01*
X196783452Y-84852380D01*
X196640595Y-84900000D01*
X196164404Y-85852380D02*
X195973928Y-85852380D01*
X195878690Y-85804761D01*
X195831071Y-85757142D01*
X195735833Y-85614285D01*
X195688214Y-85423809D01*
X195688214Y-85042857D01*
X195735833Y-84947619D01*
X195783452Y-84900000D01*
X195878690Y-84852380D01*
X196069166Y-84852380D01*
X196164404Y-84900000D01*
X196212023Y-84947619D01*
X196259642Y-85042857D01*
X196259642Y-85280952D01*
X196212023Y-85376190D01*
X196164404Y-85423809D01*
X196069166Y-85471428D01*
X195878690Y-85471428D01*
X195783452Y-85423809D01*
X195735833Y-85376190D01*
X195688214Y-85280952D01*
D13*
X180047619Y-125820964D02*
X180047619Y-125201917D01*
X179666666Y-125535250D01*
X179666666Y-125392393D01*
X179619047Y-125297155D01*
X179571428Y-125249536D01*
X179476190Y-125201917D01*
X179238095Y-125201917D01*
X179142857Y-125249536D01*
X179095238Y-125297155D01*
X179047619Y-125392393D01*
X179047619Y-125678107D01*
X179095238Y-125773345D01*
X179142857Y-125820964D01*
X179047619Y-124725726D02*
X179047619Y-124535250D01*
X179095238Y-124440012D01*
X179142857Y-124392393D01*
X179285714Y-124297155D01*
X179476190Y-124249536D01*
X179857142Y-124249536D01*
X179952380Y-124297155D01*
X180000000Y-124344774D01*
X180047619Y-124440012D01*
X180047619Y-124630488D01*
X180000000Y-124725726D01*
X179952380Y-124773345D01*
X179857142Y-124820964D01*
X179619047Y-124820964D01*
X179523809Y-124773345D01*
X179476190Y-124725726D01*
X179428571Y-124630488D01*
X179428571Y-124440012D01*
X179476190Y-124344774D01*
X179523809Y-124297155D01*
X179619047Y-124249536D01*
X179047619Y-90699035D02*
X179047619Y-91270463D01*
X179047619Y-90984749D02*
X180047619Y-90984749D01*
X179904761Y-91079987D01*
X179809523Y-91175225D01*
X179761904Y-91270463D01*
X194178571Y-102045714D02*
X194178571Y-103045714D01*
X195678571Y-102045714D01*
X195678571Y-103045714D01*
X194678571Y-104260000D02*
X195678571Y-104260000D01*
X194107142Y-103902857D02*
X195178571Y-103545714D01*
X195178571Y-104474285D01*
X194178571Y-105331428D02*
X194178571Y-105474285D01*
X194250000Y-105617142D01*
X194321428Y-105688571D01*
X194464285Y-105760000D01*
X194750000Y-105831428D01*
X195107142Y-105831428D01*
X195392857Y-105760000D01*
X195535714Y-105688571D01*
X195607142Y-105617142D01*
X195678571Y-105474285D01*
X195678571Y-105331428D01*
X195607142Y-105188571D01*
X195535714Y-105117142D01*
X195392857Y-105045714D01*
X195107142Y-104974285D01*
X194750000Y-104974285D01*
X194464285Y-105045714D01*
X194321428Y-105117142D01*
X194250000Y-105188571D01*
X194178571Y-105331428D01*
X194178571Y-106760000D02*
X194178571Y-106902857D01*
X194250000Y-107045714D01*
X194321428Y-107117142D01*
X194464285Y-107188571D01*
X194750000Y-107260000D01*
X195107142Y-107260000D01*
X195392857Y-107188571D01*
X195535714Y-107117142D01*
X195607142Y-107045714D01*
X195678571Y-106902857D01*
X195678571Y-106760000D01*
X195607142Y-106617142D01*
X195535714Y-106545714D01*
X195392857Y-106474285D01*
X195107142Y-106402857D01*
X194750000Y-106402857D01*
X194464285Y-106474285D01*
X194321428Y-106545714D01*
X194250000Y-106617142D01*
X194178571Y-106760000D01*
X195678571Y-107902857D02*
X194178571Y-107902857D01*
X194178571Y-108402857D02*
X194178571Y-109260000D01*
X195678571Y-108831428D02*
X194178571Y-108831428D01*
X194178571Y-110045714D02*
X194178571Y-110188571D01*
X194250000Y-110331428D01*
X194321428Y-110402857D01*
X194464285Y-110474285D01*
X194750000Y-110545714D01*
X195107142Y-110545714D01*
X195392857Y-110474285D01*
X195535714Y-110402857D01*
X195607142Y-110331428D01*
X195678571Y-110188571D01*
X195678571Y-110045714D01*
X195607142Y-109902857D01*
X195535714Y-109831428D01*
X195392857Y-109760000D01*
X195107142Y-109688571D01*
X194750000Y-109688571D01*
X194464285Y-109760000D01*
X194321428Y-109831428D01*
X194250000Y-109902857D01*
X194178571Y-110045714D01*
X194178571Y-111474285D02*
X194178571Y-111617142D01*
X194250000Y-111760000D01*
X194321428Y-111831428D01*
X194464285Y-111902857D01*
X194750000Y-111974285D01*
X195107142Y-111974285D01*
X195392857Y-111902857D01*
X195535714Y-111831428D01*
X195607142Y-111760000D01*
X195678571Y-111617142D01*
X195678571Y-111474285D01*
X195607142Y-111331428D01*
X195535714Y-111260000D01*
X195392857Y-111188571D01*
X195107142Y-111117142D01*
X194750000Y-111117142D01*
X194464285Y-111188571D01*
X194321428Y-111260000D01*
X194250000Y-111331428D01*
X194178571Y-111474285D01*
X195678571Y-113402857D02*
X195678571Y-112545714D01*
X195678571Y-112974285D02*
X194178571Y-112974285D01*
X194392857Y-112831428D01*
X194535714Y-112688571D01*
X194607142Y-112545714D01*
X191678571Y-97438571D02*
X192678571Y-97438571D01*
X191107142Y-97081428D02*
X192178571Y-96724285D01*
X192178571Y-97652857D01*
X192535714Y-98224285D02*
X192607142Y-98295714D01*
X192678571Y-98224285D01*
X192607142Y-98152857D01*
X192535714Y-98224285D01*
X192678571Y-98224285D01*
X191178571Y-99224285D02*
X191178571Y-99367142D01*
X191250000Y-99510000D01*
X191321428Y-99581428D01*
X191464285Y-99652857D01*
X191750000Y-99724285D01*
X192107142Y-99724285D01*
X192392857Y-99652857D01*
X192535714Y-99581428D01*
X192607142Y-99510000D01*
X192678571Y-99367142D01*
X192678571Y-99224285D01*
X192607142Y-99081428D01*
X192535714Y-99010000D01*
X192392857Y-98938571D01*
X192107142Y-98867142D01*
X191750000Y-98867142D01*
X191464285Y-98938571D01*
X191321428Y-99010000D01*
X191250000Y-99081428D01*
X191178571Y-99224285D01*
X191178571Y-100295714D02*
X191464285Y-100295714D01*
X191178571Y-100867142D02*
X191464285Y-100867142D01*
X191678571Y-103295714D02*
X192678571Y-103295714D01*
X191107142Y-102938571D02*
X192178571Y-102581428D01*
X192178571Y-103510000D01*
X191821428Y-104295714D02*
X191750000Y-104152857D01*
X191678571Y-104081428D01*
X191535714Y-104010000D01*
X191464285Y-104010000D01*
X191321428Y-104081428D01*
X191250000Y-104152857D01*
X191178571Y-104295714D01*
X191178571Y-104581428D01*
X191250000Y-104724285D01*
X191321428Y-104795714D01*
X191464285Y-104867142D01*
X191535714Y-104867142D01*
X191678571Y-104795714D01*
X191750000Y-104724285D01*
X191821428Y-104581428D01*
X191821428Y-104295714D01*
X191892857Y-104152857D01*
X191964285Y-104081428D01*
X192107142Y-104010000D01*
X192392857Y-104010000D01*
X192535714Y-104081428D01*
X192607142Y-104152857D01*
X192678571Y-104295714D01*
X192678571Y-104581428D01*
X192607142Y-104724285D01*
X192535714Y-104795714D01*
X192392857Y-104867142D01*
X192107142Y-104867142D01*
X191964285Y-104795714D01*
X191892857Y-104724285D01*
X191821428Y-104581428D01*
X191178571Y-105795714D02*
X191178571Y-105938571D01*
X191250000Y-106081428D01*
X191321428Y-106152857D01*
X191464285Y-106224285D01*
X191750000Y-106295714D01*
X192107142Y-106295714D01*
X192392857Y-106224285D01*
X192535714Y-106152857D01*
X192607142Y-106081428D01*
X192678571Y-105938571D01*
X192678571Y-105795714D01*
X192607142Y-105652857D01*
X192535714Y-105581428D01*
X192392857Y-105510000D01*
X192107142Y-105438571D01*
X191750000Y-105438571D01*
X191464285Y-105510000D01*
X191321428Y-105581428D01*
X191250000Y-105652857D01*
X191178571Y-105795714D01*
X192678571Y-107938571D02*
X191678571Y-108724285D01*
X191678571Y-107938571D02*
X192678571Y-108724285D01*
X191178571Y-110295714D02*
X191178571Y-111224285D01*
X191750000Y-110724285D01*
X191750000Y-110938571D01*
X191821428Y-111081428D01*
X191892857Y-111152857D01*
X192035714Y-111224285D01*
X192392857Y-111224285D01*
X192535714Y-111152857D01*
X192607142Y-111081428D01*
X192678571Y-110938571D01*
X192678571Y-110510000D01*
X192607142Y-110367142D01*
X192535714Y-110295714D01*
X191321428Y-111795714D02*
X191250000Y-111867142D01*
X191178571Y-112010000D01*
X191178571Y-112367142D01*
X191250000Y-112510000D01*
X191321428Y-112581428D01*
X191464285Y-112652857D01*
X191607142Y-112652857D01*
X191821428Y-112581428D01*
X192678571Y-111724285D01*
X192678571Y-112652857D01*
X191178571Y-113581428D02*
X191178571Y-113724285D01*
X191250000Y-113867142D01*
X191321428Y-113938571D01*
X191464285Y-114010000D01*
X191750000Y-114081428D01*
X192107142Y-114081428D01*
X192392857Y-114010000D01*
X192535714Y-113938571D01*
X192607142Y-113867142D01*
X192678571Y-113724285D01*
X192678571Y-113581428D01*
X192607142Y-113438571D01*
X192535714Y-113367142D01*
X192392857Y-113295714D01*
X192107142Y-113224285D01*
X191750000Y-113224285D01*
X191464285Y-113295714D01*
X191321428Y-113367142D01*
X191250000Y-113438571D01*
X191178571Y-113581428D01*
X191178571Y-115652857D02*
X191178571Y-116510000D01*
X192678571Y-116081428D02*
X191178571Y-116081428D01*
X191892857Y-117510000D02*
X191892857Y-117010000D01*
X192678571Y-117010000D02*
X191178571Y-117010000D01*
X191178571Y-117724285D01*
X191178571Y-118081428D02*
X191178571Y-118938571D01*
X192678571Y-118510000D02*
X191178571Y-118510000D01*
D10*
X116130476Y-73702380D02*
X116130476Y-72702380D01*
X115892380Y-72702380D01*
X115749523Y-72750000D01*
X115654285Y-72845238D01*
X115606666Y-72940476D01*
X115559047Y-73130952D01*
X115559047Y-73273809D01*
X115606666Y-73464285D01*
X115654285Y-73559523D01*
X115749523Y-73654761D01*
X115892380Y-73702380D01*
X116130476Y-73702380D01*
X115178095Y-73654761D02*
X115035238Y-73702380D01*
X114797142Y-73702380D01*
X114701904Y-73654761D01*
X114654285Y-73607142D01*
X114606666Y-73511904D01*
X114606666Y-73416666D01*
X114654285Y-73321428D01*
X114701904Y-73273809D01*
X114797142Y-73226190D01*
X114987619Y-73178571D01*
X115082857Y-73130952D01*
X115130476Y-73083333D01*
X115178095Y-72988095D01*
X115178095Y-72892857D01*
X115130476Y-72797619D01*
X115082857Y-72750000D01*
X114987619Y-72702380D01*
X114749523Y-72702380D01*
X114606666Y-72750000D01*
X113654285Y-73702380D02*
X114225714Y-73702380D01*
X113940000Y-73702380D02*
X113940000Y-72702380D01*
X114035238Y-72845238D01*
X114130476Y-72940476D01*
X114225714Y-72988095D01*
X112797142Y-72702380D02*
X112987619Y-72702380D01*
X113082857Y-72750000D01*
X113130476Y-72797619D01*
X113225714Y-72940476D01*
X113273333Y-73130952D01*
X113273333Y-73511904D01*
X113225714Y-73607142D01*
X113178095Y-73654761D01*
X113082857Y-73702380D01*
X112892380Y-73702380D01*
X112797142Y-73654761D01*
X112749523Y-73607142D01*
X112701904Y-73511904D01*
X112701904Y-73273809D01*
X112749523Y-73178571D01*
X112797142Y-73130952D01*
X112892380Y-73083333D01*
X113082857Y-73083333D01*
X113178095Y-73130952D01*
X113225714Y-73178571D01*
X113273333Y-73273809D01*
X121210476Y-73702380D02*
X121210476Y-72702380D01*
X120972380Y-72702380D01*
X120829523Y-72750000D01*
X120734285Y-72845238D01*
X120686666Y-72940476D01*
X120639047Y-73130952D01*
X120639047Y-73273809D01*
X120686666Y-73464285D01*
X120734285Y-73559523D01*
X120829523Y-73654761D01*
X120972380Y-73702380D01*
X121210476Y-73702380D01*
X120258095Y-73654761D02*
X120115238Y-73702380D01*
X119877142Y-73702380D01*
X119781904Y-73654761D01*
X119734285Y-73607142D01*
X119686666Y-73511904D01*
X119686666Y-73416666D01*
X119734285Y-73321428D01*
X119781904Y-73273809D01*
X119877142Y-73226190D01*
X120067619Y-73178571D01*
X120162857Y-73130952D01*
X120210476Y-73083333D01*
X120258095Y-72988095D01*
X120258095Y-72892857D01*
X120210476Y-72797619D01*
X120162857Y-72750000D01*
X120067619Y-72702380D01*
X119829523Y-72702380D01*
X119686666Y-72750000D01*
X118734285Y-73702380D02*
X119305714Y-73702380D01*
X119020000Y-73702380D02*
X119020000Y-72702380D01*
X119115238Y-72845238D01*
X119210476Y-72940476D01*
X119305714Y-72988095D01*
X117829523Y-72702380D02*
X118305714Y-72702380D01*
X118353333Y-73178571D01*
X118305714Y-73130952D01*
X118210476Y-73083333D01*
X117972380Y-73083333D01*
X117877142Y-73130952D01*
X117829523Y-73178571D01*
X117781904Y-73273809D01*
X117781904Y-73511904D01*
X117829523Y-73607142D01*
X117877142Y-73654761D01*
X117972380Y-73702380D01*
X118210476Y-73702380D01*
X118305714Y-73654761D01*
X118353333Y-73607142D01*
X126290476Y-73702380D02*
X126290476Y-72702380D01*
X126052380Y-72702380D01*
X125909523Y-72750000D01*
X125814285Y-72845238D01*
X125766666Y-72940476D01*
X125719047Y-73130952D01*
X125719047Y-73273809D01*
X125766666Y-73464285D01*
X125814285Y-73559523D01*
X125909523Y-73654761D01*
X126052380Y-73702380D01*
X126290476Y-73702380D01*
X125338095Y-73654761D02*
X125195238Y-73702380D01*
X124957142Y-73702380D01*
X124861904Y-73654761D01*
X124814285Y-73607142D01*
X124766666Y-73511904D01*
X124766666Y-73416666D01*
X124814285Y-73321428D01*
X124861904Y-73273809D01*
X124957142Y-73226190D01*
X125147619Y-73178571D01*
X125242857Y-73130952D01*
X125290476Y-73083333D01*
X125338095Y-72988095D01*
X125338095Y-72892857D01*
X125290476Y-72797619D01*
X125242857Y-72750000D01*
X125147619Y-72702380D01*
X124909523Y-72702380D01*
X124766666Y-72750000D01*
X123814285Y-73702380D02*
X124385714Y-73702380D01*
X124100000Y-73702380D02*
X124100000Y-72702380D01*
X124195238Y-72845238D01*
X124290476Y-72940476D01*
X124385714Y-72988095D01*
X122957142Y-73035714D02*
X122957142Y-73702380D01*
X123195238Y-72654761D02*
X123433333Y-73369047D01*
X122814285Y-73369047D01*
X131370476Y-73702380D02*
X131370476Y-72702380D01*
X131132380Y-72702380D01*
X130989523Y-72750000D01*
X130894285Y-72845238D01*
X130846666Y-72940476D01*
X130799047Y-73130952D01*
X130799047Y-73273809D01*
X130846666Y-73464285D01*
X130894285Y-73559523D01*
X130989523Y-73654761D01*
X131132380Y-73702380D01*
X131370476Y-73702380D01*
X130418095Y-73654761D02*
X130275238Y-73702380D01*
X130037142Y-73702380D01*
X129941904Y-73654761D01*
X129894285Y-73607142D01*
X129846666Y-73511904D01*
X129846666Y-73416666D01*
X129894285Y-73321428D01*
X129941904Y-73273809D01*
X130037142Y-73226190D01*
X130227619Y-73178571D01*
X130322857Y-73130952D01*
X130370476Y-73083333D01*
X130418095Y-72988095D01*
X130418095Y-72892857D01*
X130370476Y-72797619D01*
X130322857Y-72750000D01*
X130227619Y-72702380D01*
X129989523Y-72702380D01*
X129846666Y-72750000D01*
X128894285Y-73702380D02*
X129465714Y-73702380D01*
X129180000Y-73702380D02*
X129180000Y-72702380D01*
X129275238Y-72845238D01*
X129370476Y-72940476D01*
X129465714Y-72988095D01*
X128560952Y-72702380D02*
X127941904Y-72702380D01*
X128275238Y-73083333D01*
X128132380Y-73083333D01*
X128037142Y-73130952D01*
X127989523Y-73178571D01*
X127941904Y-73273809D01*
X127941904Y-73511904D01*
X127989523Y-73607142D01*
X128037142Y-73654761D01*
X128132380Y-73702380D01*
X128418095Y-73702380D01*
X128513333Y-73654761D01*
X128560952Y-73607142D01*
X136450476Y-73702380D02*
X136450476Y-72702380D01*
X136212380Y-72702380D01*
X136069523Y-72750000D01*
X135974285Y-72845238D01*
X135926666Y-72940476D01*
X135879047Y-73130952D01*
X135879047Y-73273809D01*
X135926666Y-73464285D01*
X135974285Y-73559523D01*
X136069523Y-73654761D01*
X136212380Y-73702380D01*
X136450476Y-73702380D01*
X135498095Y-73654761D02*
X135355238Y-73702380D01*
X135117142Y-73702380D01*
X135021904Y-73654761D01*
X134974285Y-73607142D01*
X134926666Y-73511904D01*
X134926666Y-73416666D01*
X134974285Y-73321428D01*
X135021904Y-73273809D01*
X135117142Y-73226190D01*
X135307619Y-73178571D01*
X135402857Y-73130952D01*
X135450476Y-73083333D01*
X135498095Y-72988095D01*
X135498095Y-72892857D01*
X135450476Y-72797619D01*
X135402857Y-72750000D01*
X135307619Y-72702380D01*
X135069523Y-72702380D01*
X134926666Y-72750000D01*
X133974285Y-73702380D02*
X134545714Y-73702380D01*
X134260000Y-73702380D02*
X134260000Y-72702380D01*
X134355238Y-72845238D01*
X134450476Y-72940476D01*
X134545714Y-72988095D01*
X133593333Y-72797619D02*
X133545714Y-72750000D01*
X133450476Y-72702380D01*
X133212380Y-72702380D01*
X133117142Y-72750000D01*
X133069523Y-72797619D01*
X133021904Y-72892857D01*
X133021904Y-72988095D01*
X133069523Y-73130952D01*
X133640952Y-73702380D01*
X133021904Y-73702380D01*
X141530476Y-73702380D02*
X141530476Y-72702380D01*
X141292380Y-72702380D01*
X141149523Y-72750000D01*
X141054285Y-72845238D01*
X141006666Y-72940476D01*
X140959047Y-73130952D01*
X140959047Y-73273809D01*
X141006666Y-73464285D01*
X141054285Y-73559523D01*
X141149523Y-73654761D01*
X141292380Y-73702380D01*
X141530476Y-73702380D01*
X140578095Y-73654761D02*
X140435238Y-73702380D01*
X140197142Y-73702380D01*
X140101904Y-73654761D01*
X140054285Y-73607142D01*
X140006666Y-73511904D01*
X140006666Y-73416666D01*
X140054285Y-73321428D01*
X140101904Y-73273809D01*
X140197142Y-73226190D01*
X140387619Y-73178571D01*
X140482857Y-73130952D01*
X140530476Y-73083333D01*
X140578095Y-72988095D01*
X140578095Y-72892857D01*
X140530476Y-72797619D01*
X140482857Y-72750000D01*
X140387619Y-72702380D01*
X140149523Y-72702380D01*
X140006666Y-72750000D01*
X139054285Y-73702380D02*
X139625714Y-73702380D01*
X139340000Y-73702380D02*
X139340000Y-72702380D01*
X139435238Y-72845238D01*
X139530476Y-72940476D01*
X139625714Y-72988095D01*
X138101904Y-73702380D02*
X138673333Y-73702380D01*
X138387619Y-73702380D02*
X138387619Y-72702380D01*
X138482857Y-72845238D01*
X138578095Y-72940476D01*
X138673333Y-72988095D01*
X146610476Y-73702380D02*
X146610476Y-72702380D01*
X146372380Y-72702380D01*
X146229523Y-72750000D01*
X146134285Y-72845238D01*
X146086666Y-72940476D01*
X146039047Y-73130952D01*
X146039047Y-73273809D01*
X146086666Y-73464285D01*
X146134285Y-73559523D01*
X146229523Y-73654761D01*
X146372380Y-73702380D01*
X146610476Y-73702380D01*
X145658095Y-73654761D02*
X145515238Y-73702380D01*
X145277142Y-73702380D01*
X145181904Y-73654761D01*
X145134285Y-73607142D01*
X145086666Y-73511904D01*
X145086666Y-73416666D01*
X145134285Y-73321428D01*
X145181904Y-73273809D01*
X145277142Y-73226190D01*
X145467619Y-73178571D01*
X145562857Y-73130952D01*
X145610476Y-73083333D01*
X145658095Y-72988095D01*
X145658095Y-72892857D01*
X145610476Y-72797619D01*
X145562857Y-72750000D01*
X145467619Y-72702380D01*
X145229523Y-72702380D01*
X145086666Y-72750000D01*
X144134285Y-73702380D02*
X144705714Y-73702380D01*
X144420000Y-73702380D02*
X144420000Y-72702380D01*
X144515238Y-72845238D01*
X144610476Y-72940476D01*
X144705714Y-72988095D01*
X143515238Y-72702380D02*
X143420000Y-72702380D01*
X143324761Y-72750000D01*
X143277142Y-72797619D01*
X143229523Y-72892857D01*
X143181904Y-73083333D01*
X143181904Y-73321428D01*
X143229523Y-73511904D01*
X143277142Y-73607142D01*
X143324761Y-73654761D01*
X143420000Y-73702380D01*
X143515238Y-73702380D01*
X143610476Y-73654761D01*
X143658095Y-73607142D01*
X143705714Y-73511904D01*
X143753333Y-73321428D01*
X143753333Y-73083333D01*
X143705714Y-72892857D01*
X143658095Y-72797619D01*
X143610476Y-72750000D01*
X143515238Y-72702380D01*
X151214285Y-73702380D02*
X151214285Y-72702380D01*
X150976190Y-72702380D01*
X150833333Y-72750000D01*
X150738095Y-72845238D01*
X150690476Y-72940476D01*
X150642857Y-73130952D01*
X150642857Y-73273809D01*
X150690476Y-73464285D01*
X150738095Y-73559523D01*
X150833333Y-73654761D01*
X150976190Y-73702380D01*
X151214285Y-73702380D01*
X150261904Y-73654761D02*
X150119047Y-73702380D01*
X149880952Y-73702380D01*
X149785714Y-73654761D01*
X149738095Y-73607142D01*
X149690476Y-73511904D01*
X149690476Y-73416666D01*
X149738095Y-73321428D01*
X149785714Y-73273809D01*
X149880952Y-73226190D01*
X150071428Y-73178571D01*
X150166666Y-73130952D01*
X150214285Y-73083333D01*
X150261904Y-72988095D01*
X150261904Y-72892857D01*
X150214285Y-72797619D01*
X150166666Y-72750000D01*
X150071428Y-72702380D01*
X149833333Y-72702380D01*
X149690476Y-72750000D01*
X149119047Y-73130952D02*
X149214285Y-73083333D01*
X149261904Y-73035714D01*
X149309523Y-72940476D01*
X149309523Y-72892857D01*
X149261904Y-72797619D01*
X149214285Y-72750000D01*
X149119047Y-72702380D01*
X148928571Y-72702380D01*
X148833333Y-72750000D01*
X148785714Y-72797619D01*
X148738095Y-72892857D01*
X148738095Y-72940476D01*
X148785714Y-73035714D01*
X148833333Y-73083333D01*
X148928571Y-73130952D01*
X149119047Y-73130952D01*
X149214285Y-73178571D01*
X149261904Y-73226190D01*
X149309523Y-73321428D01*
X149309523Y-73511904D01*
X149261904Y-73607142D01*
X149214285Y-73654761D01*
X149119047Y-73702380D01*
X148928571Y-73702380D01*
X148833333Y-73654761D01*
X148785714Y-73607142D01*
X148738095Y-73511904D01*
X148738095Y-73321428D01*
X148785714Y-73226190D01*
X148833333Y-73178571D01*
X148928571Y-73130952D01*
X156294285Y-73702380D02*
X156294285Y-72702380D01*
X156056190Y-72702380D01*
X155913333Y-72750000D01*
X155818095Y-72845238D01*
X155770476Y-72940476D01*
X155722857Y-73130952D01*
X155722857Y-73273809D01*
X155770476Y-73464285D01*
X155818095Y-73559523D01*
X155913333Y-73654761D01*
X156056190Y-73702380D01*
X156294285Y-73702380D01*
X155341904Y-73654761D02*
X155199047Y-73702380D01*
X154960952Y-73702380D01*
X154865714Y-73654761D01*
X154818095Y-73607142D01*
X154770476Y-73511904D01*
X154770476Y-73416666D01*
X154818095Y-73321428D01*
X154865714Y-73273809D01*
X154960952Y-73226190D01*
X155151428Y-73178571D01*
X155246666Y-73130952D01*
X155294285Y-73083333D01*
X155341904Y-72988095D01*
X155341904Y-72892857D01*
X155294285Y-72797619D01*
X155246666Y-72750000D01*
X155151428Y-72702380D01*
X154913333Y-72702380D01*
X154770476Y-72750000D01*
X154437142Y-72702380D02*
X153770476Y-72702380D01*
X154199047Y-73702380D01*
X161374285Y-73702380D02*
X161374285Y-72702380D01*
X161136190Y-72702380D01*
X160993333Y-72750000D01*
X160898095Y-72845238D01*
X160850476Y-72940476D01*
X160802857Y-73130952D01*
X160802857Y-73273809D01*
X160850476Y-73464285D01*
X160898095Y-73559523D01*
X160993333Y-73654761D01*
X161136190Y-73702380D01*
X161374285Y-73702380D01*
X160421904Y-73654761D02*
X160279047Y-73702380D01*
X160040952Y-73702380D01*
X159945714Y-73654761D01*
X159898095Y-73607142D01*
X159850476Y-73511904D01*
X159850476Y-73416666D01*
X159898095Y-73321428D01*
X159945714Y-73273809D01*
X160040952Y-73226190D01*
X160231428Y-73178571D01*
X160326666Y-73130952D01*
X160374285Y-73083333D01*
X160421904Y-72988095D01*
X160421904Y-72892857D01*
X160374285Y-72797619D01*
X160326666Y-72750000D01*
X160231428Y-72702380D01*
X159993333Y-72702380D01*
X159850476Y-72750000D01*
X158993333Y-72702380D02*
X159183809Y-72702380D01*
X159279047Y-72750000D01*
X159326666Y-72797619D01*
X159421904Y-72940476D01*
X159469523Y-73130952D01*
X159469523Y-73511904D01*
X159421904Y-73607142D01*
X159374285Y-73654761D01*
X159279047Y-73702380D01*
X159088571Y-73702380D01*
X158993333Y-73654761D01*
X158945714Y-73607142D01*
X158898095Y-73511904D01*
X158898095Y-73273809D01*
X158945714Y-73178571D01*
X158993333Y-73130952D01*
X159088571Y-73083333D01*
X159279047Y-73083333D01*
X159374285Y-73130952D01*
X159421904Y-73178571D01*
X159469523Y-73273809D01*
X166454285Y-73702380D02*
X166454285Y-72702380D01*
X166216190Y-72702380D01*
X166073333Y-72750000D01*
X165978095Y-72845238D01*
X165930476Y-72940476D01*
X165882857Y-73130952D01*
X165882857Y-73273809D01*
X165930476Y-73464285D01*
X165978095Y-73559523D01*
X166073333Y-73654761D01*
X166216190Y-73702380D01*
X166454285Y-73702380D01*
X165501904Y-73654761D02*
X165359047Y-73702380D01*
X165120952Y-73702380D01*
X165025714Y-73654761D01*
X164978095Y-73607142D01*
X164930476Y-73511904D01*
X164930476Y-73416666D01*
X164978095Y-73321428D01*
X165025714Y-73273809D01*
X165120952Y-73226190D01*
X165311428Y-73178571D01*
X165406666Y-73130952D01*
X165454285Y-73083333D01*
X165501904Y-72988095D01*
X165501904Y-72892857D01*
X165454285Y-72797619D01*
X165406666Y-72750000D01*
X165311428Y-72702380D01*
X165073333Y-72702380D01*
X164930476Y-72750000D01*
X164025714Y-72702380D02*
X164501904Y-72702380D01*
X164549523Y-73178571D01*
X164501904Y-73130952D01*
X164406666Y-73083333D01*
X164168571Y-73083333D01*
X164073333Y-73130952D01*
X164025714Y-73178571D01*
X163978095Y-73273809D01*
X163978095Y-73511904D01*
X164025714Y-73607142D01*
X164073333Y-73654761D01*
X164168571Y-73702380D01*
X164406666Y-73702380D01*
X164501904Y-73654761D01*
X164549523Y-73607142D01*
X171534285Y-73702380D02*
X171534285Y-72702380D01*
X171296190Y-72702380D01*
X171153333Y-72750000D01*
X171058095Y-72845238D01*
X171010476Y-72940476D01*
X170962857Y-73130952D01*
X170962857Y-73273809D01*
X171010476Y-73464285D01*
X171058095Y-73559523D01*
X171153333Y-73654761D01*
X171296190Y-73702380D01*
X171534285Y-73702380D01*
X170581904Y-73654761D02*
X170439047Y-73702380D01*
X170200952Y-73702380D01*
X170105714Y-73654761D01*
X170058095Y-73607142D01*
X170010476Y-73511904D01*
X170010476Y-73416666D01*
X170058095Y-73321428D01*
X170105714Y-73273809D01*
X170200952Y-73226190D01*
X170391428Y-73178571D01*
X170486666Y-73130952D01*
X170534285Y-73083333D01*
X170581904Y-72988095D01*
X170581904Y-72892857D01*
X170534285Y-72797619D01*
X170486666Y-72750000D01*
X170391428Y-72702380D01*
X170153333Y-72702380D01*
X170010476Y-72750000D01*
X169153333Y-73035714D02*
X169153333Y-73702380D01*
X169391428Y-72654761D02*
X169629523Y-73369047D01*
X169010476Y-73369047D01*
X176614285Y-73702380D02*
X176614285Y-72702380D01*
X176376190Y-72702380D01*
X176233333Y-72750000D01*
X176138095Y-72845238D01*
X176090476Y-72940476D01*
X176042857Y-73130952D01*
X176042857Y-73273809D01*
X176090476Y-73464285D01*
X176138095Y-73559523D01*
X176233333Y-73654761D01*
X176376190Y-73702380D01*
X176614285Y-73702380D01*
X175661904Y-73654761D02*
X175519047Y-73702380D01*
X175280952Y-73702380D01*
X175185714Y-73654761D01*
X175138095Y-73607142D01*
X175090476Y-73511904D01*
X175090476Y-73416666D01*
X175138095Y-73321428D01*
X175185714Y-73273809D01*
X175280952Y-73226190D01*
X175471428Y-73178571D01*
X175566666Y-73130952D01*
X175614285Y-73083333D01*
X175661904Y-72988095D01*
X175661904Y-72892857D01*
X175614285Y-72797619D01*
X175566666Y-72750000D01*
X175471428Y-72702380D01*
X175233333Y-72702380D01*
X175090476Y-72750000D01*
X174757142Y-72702380D02*
X174138095Y-72702380D01*
X174471428Y-73083333D01*
X174328571Y-73083333D01*
X174233333Y-73130952D01*
X174185714Y-73178571D01*
X174138095Y-73273809D01*
X174138095Y-73511904D01*
X174185714Y-73607142D01*
X174233333Y-73654761D01*
X174328571Y-73702380D01*
X174614285Y-73702380D01*
X174709523Y-73654761D01*
X174757142Y-73607142D01*
X181694285Y-73702380D02*
X181694285Y-72702380D01*
X181456190Y-72702380D01*
X181313333Y-72750000D01*
X181218095Y-72845238D01*
X181170476Y-72940476D01*
X181122857Y-73130952D01*
X181122857Y-73273809D01*
X181170476Y-73464285D01*
X181218095Y-73559523D01*
X181313333Y-73654761D01*
X181456190Y-73702380D01*
X181694285Y-73702380D01*
X180741904Y-73654761D02*
X180599047Y-73702380D01*
X180360952Y-73702380D01*
X180265714Y-73654761D01*
X180218095Y-73607142D01*
X180170476Y-73511904D01*
X180170476Y-73416666D01*
X180218095Y-73321428D01*
X180265714Y-73273809D01*
X180360952Y-73226190D01*
X180551428Y-73178571D01*
X180646666Y-73130952D01*
X180694285Y-73083333D01*
X180741904Y-72988095D01*
X180741904Y-72892857D01*
X180694285Y-72797619D01*
X180646666Y-72750000D01*
X180551428Y-72702380D01*
X180313333Y-72702380D01*
X180170476Y-72750000D01*
X179789523Y-72797619D02*
X179741904Y-72750000D01*
X179646666Y-72702380D01*
X179408571Y-72702380D01*
X179313333Y-72750000D01*
X179265714Y-72797619D01*
X179218095Y-72892857D01*
X179218095Y-72988095D01*
X179265714Y-73130952D01*
X179837142Y-73702380D01*
X179218095Y-73702380D01*
X186774285Y-73702380D02*
X186774285Y-72702380D01*
X186536190Y-72702380D01*
X186393333Y-72750000D01*
X186298095Y-72845238D01*
X186250476Y-72940476D01*
X186202857Y-73130952D01*
X186202857Y-73273809D01*
X186250476Y-73464285D01*
X186298095Y-73559523D01*
X186393333Y-73654761D01*
X186536190Y-73702380D01*
X186774285Y-73702380D01*
X185821904Y-73654761D02*
X185679047Y-73702380D01*
X185440952Y-73702380D01*
X185345714Y-73654761D01*
X185298095Y-73607142D01*
X185250476Y-73511904D01*
X185250476Y-73416666D01*
X185298095Y-73321428D01*
X185345714Y-73273809D01*
X185440952Y-73226190D01*
X185631428Y-73178571D01*
X185726666Y-73130952D01*
X185774285Y-73083333D01*
X185821904Y-72988095D01*
X185821904Y-72892857D01*
X185774285Y-72797619D01*
X185726666Y-72750000D01*
X185631428Y-72702380D01*
X185393333Y-72702380D01*
X185250476Y-72750000D01*
X184298095Y-73702380D02*
X184869523Y-73702380D01*
X184583809Y-73702380D02*
X184583809Y-72702380D01*
X184679047Y-72845238D01*
X184774285Y-72940476D01*
X184869523Y-72988095D01*
M02*
