G04 #@! TF.GenerationSoftware,KiCad,Pcbnew,(5.1.8)-1*
G04 #@! TF.CreationDate,2021-02-11T17:25:07-06:00*
G04 #@! TF.ProjectId,CANDash 2,43414e44-6173-4682-9032-2e6b69636164,2A*
G04 #@! TF.SameCoordinates,Original*
G04 #@! TF.FileFunction,Paste,Bot*
G04 #@! TF.FilePolarity,Positive*
%FSLAX46Y46*%
G04 Gerber Fmt 4.6, Leading zero omitted, Abs format (unit mm)*
G04 Created by KiCad (PCBNEW (5.1.8)-1) date 2021-02-11 17:25:07*
%MOMM*%
%LPD*%
G01*
G04 APERTURE LIST*
G04 #@! TA.AperFunction,Profile*
%ADD10C,0.508000*%
G04 #@! TD*
%ADD11R,4.000000X0.400000*%
G04 APERTURE END LIST*
D10*
X105000000Y-65000000D02*
X195000000Y-65000000D01*
X200000000Y-70000000D02*
X200000000Y-140000000D01*
X200000000Y-70000000D02*
G75*
G03*
X195000000Y-65000000I-5000000J0D01*
G01*
X100000000Y-70000000D02*
X100000000Y-140000000D01*
X105000000Y-65000000D02*
G75*
G03*
X100000000Y-70000000I0J-5000000D01*
G01*
X195000000Y-145000000D02*
X105000000Y-145000000D01*
X195000000Y-145000000D02*
G75*
G03*
X200000000Y-140000000I0J5000000D01*
G01*
X100000000Y-140000000D02*
G75*
G03*
X105000000Y-145000000I5000000J0D01*
G01*
D11*
X180510000Y-122960000D03*
X180510000Y-122160000D03*
X180510000Y-121360000D03*
X180510000Y-120560000D03*
X180510000Y-119760000D03*
X180510000Y-118960000D03*
X180510000Y-118160000D03*
X180510000Y-117360000D03*
X180510000Y-116560000D03*
X180510000Y-115760000D03*
X180510000Y-114960000D03*
X180510000Y-114160000D03*
X180510000Y-113360000D03*
X180510000Y-112560000D03*
X180510000Y-111760000D03*
X180510000Y-110960000D03*
X180510000Y-110160000D03*
X180510000Y-109360000D03*
X180510000Y-108560000D03*
X180510000Y-107760000D03*
X180510000Y-106960000D03*
X180510000Y-106160000D03*
X180510000Y-105360000D03*
X180510000Y-104560000D03*
X180510000Y-103760000D03*
X180510000Y-102960000D03*
X180510000Y-102160000D03*
X180510000Y-101360000D03*
X180510000Y-100560000D03*
X180510000Y-99760000D03*
X180510000Y-98960000D03*
X180510000Y-98160000D03*
X180510000Y-97360000D03*
X180510000Y-96560000D03*
X180510000Y-95760000D03*
X180510000Y-94960000D03*
X180510000Y-94160000D03*
X180510000Y-93360000D03*
X180510000Y-92560000D03*
M02*
