M48
; DRILL file {KiCad (5.1.8)-1} date 02/11/21 17:25:09
; FORMAT={-:-/ absolute / inch / decimal}
; #@! TF.CreationDate,2021-02-11T17:25:09-06:00
; #@! TF.GenerationSoftware,Kicad,Pcbnew,(5.1.8)-1
FMAT,2
INCH
T1C0.0118
T2C0.0354
T3C0.0394
T4C0.0669
T5C0.1260
T6C0.1299
%
G90
G05
T1
X3.9958Y-2.729
X3.9958Y-3.0754
X3.9958Y-3.4219
X3.9958Y-3.8628
X3.9958Y-4.2093
X3.9958Y-4.5557
X3.9958Y-4.9022
X3.9958Y-5.2487
X4.0273Y-5.5636
X4.0799Y-3.4031
X4.1791Y-3.4031
X4.1847Y-2.8865
X4.1847Y-3.2329
X4.1847Y-3.7054
X4.1847Y-4.0518
X4.1847Y-4.3983
X4.1847Y-4.7447
X4.1847Y-5.0912
X4.2028Y-3.3268
X4.2028Y-3.5764
X4.2162Y-5.4061
X4.2323Y-3.3071
X4.2323Y-3.4465
X4.2477Y-2.603
X4.249Y-3.612
X4.3107Y-5.6581
X4.3422Y-3.4219
X4.3737Y-3.0439
X4.3737Y-3.8628
X4.3737Y-4.2093
X4.3737Y-4.5557
X4.3737Y-4.9022
X4.4052Y-5.2172
X4.4997Y-3.6109
X4.4997Y-5.4691
X4.5312Y-2.666
X4.5312Y-3.2329
X4.5627Y-4.0203
X4.5627Y-4.3668
X4.5627Y-4.7132
X4.5942Y-5.0282
X4.6572Y-2.918
X4.6572Y-5.6581
X4.685Y-3.3465
X4.6887Y-3.4534
X4.6887Y-3.7998
X4.6887Y-5.2802
X4.7517Y-4.1778
X4.7517Y-4.5243
X4.7832Y-4.8392
X4.8147Y-2.603
X4.8462Y-3.0754
X4.8462Y-5.4691
X4.8776Y-3.6109
X4.8776Y-3.9573
X4.8776Y-5.0912
X4.9406Y-2.8235
X4.9406Y-4.3353
X4.9721Y-4.6502
X5.0036Y-3.2644
X5.0036Y-5.6581
X5.0351Y-5.2802
X5.0666Y-4.9022
X5.1181Y-4.2559
X5.1181Y-4.2933
X5.1181Y-4.3307
X5.1181Y-4.3681
X5.1296Y-2.6345
X5.1296Y-3.4849
X5.1296Y-4.0518
X5.1611Y-3.0439
X5.1611Y-4.4613
X5.1747Y-4.2028
X5.1939Y-3.9173
X5.1939Y-3.9567
X5.1939Y-3.9961
X5.203Y-4.285
X5.2241Y-5.0912
X5.2283Y-3.8829
X5.2283Y-4.0305
X5.2377Y-4.0797
X5.2377Y-4.1093
X5.2377Y-4.1388
X5.2556Y-3.7054
X5.2556Y-4.7132
X5.2677Y-3.8829
X5.2677Y-4.0305
X5.2854Y-3.3469
X5.3071Y-3.8829
X5.3071Y-4.0305
X5.315Y-4.6324
X5.3186Y-5.6266
X5.3297Y-4.2515
X5.3415Y-3.9173
X5.3415Y-3.9567
X5.3415Y-3.9961
X5.3445Y-4.6324
X5.3501Y-2.8235
X5.3501Y-4.1778
X5.3593Y-4.2515
X5.374Y-4.6324
X5.4131Y-3.2329
X5.4131Y-3.8943
X5.4131Y-5.3746
X5.4134Y-3.0522
X5.4281Y-4.252
X5.4446Y-3.5479
X5.4577Y-4.252
X5.4761Y-2.603
X5.4761Y-4.4298
X5.5315Y-4.2677
X5.5549Y-3.125
X5.5549Y-3.3071
X5.561Y-4.5472
X5.561Y-4.9409
X5.561Y-5.0098
X5.6021Y-3.7369
X5.6021Y-4.0833
X5.6021Y-5.5321
X5.615Y-5.077
X5.626Y-3.193
X5.6336Y-4.8392
X5.6496Y-5.3675
X5.689Y-3.3268
X5.6929Y-4.8425
X5.6965Y-3.4534
X5.7185Y-5.3297
X5.7244Y-4.6063
X5.728Y-4.3038
X5.7549Y-3.3071
X5.7595Y-2.666
X5.7904Y-4.7736
X5.7904Y-4.6752
X5.8169Y-4.5314
X5.8225Y-3.8628
X5.8225Y-5.6581
X5.828Y-4.434
X5.8366Y-4.629
X5.8415Y-5.0591
X5.854Y-2.918
X5.8661Y-3.0681
X5.8858Y-5.3297
X5.9055Y-3.3469
X5.917Y-3.5794
X5.923Y-4.662
X5.9301Y-5.0591
X5.935Y-4.8591
X5.9485Y-3.2329
X5.9646Y-3.0522
X5.98Y-4.0518
X6.0115Y-4.7762
X6.0206Y-4.7146
X6.043Y-2.603
X6.0433Y-5.3543
X6.0433Y-5.5315
X6.063Y-4.949
X6.106Y-5.5636
X6.1061Y-3.125
X6.1061Y-3.3071
X6.1182Y-4.6457
X6.134Y-3.347
X6.1375Y-2.9809
X6.1375Y-3.4534
X6.188Y-3.307
X6.2005Y-3.7369
X6.2005Y-4.1778
X6.2275Y-3.196
X6.232Y-5.3431
X6.25Y-4.5472
X6.25Y-4.9409
X6.25Y-5.0098
X6.25Y-5.2854
X6.2598Y-5.123
X6.2598Y-5.1526
X6.2635Y-4.4613
X6.3061Y-3.3071
X6.3265Y-2.666
X6.3265Y-3.9573
X6.358Y-5.6581
X6.3878Y-3.8583
X6.3895Y-3.2959
X6.3976Y-3.0807
X6.4567Y-3.3469
X6.4724Y-3.8583
X6.4764Y-3.9333
X6.4839Y-3.0439
X6.4839Y-3.5479
X6.4839Y-4.9652
X6.4839Y-5.4376
X6.5154Y-4.1148
X6.6099Y-2.603
X6.6099Y-5.1857
X6.6729Y-3.3589
X6.6729Y-4.8077
X6.6729Y-5.5951
X6.7044Y-3.7369
X6.7185Y-3.4547
X6.7674Y-2.8235
X6.7913Y-3.8833
X6.7989Y-3.1384
X6.7989Y-5.0282
X6.811Y-3.6909
X6.8934Y-4.6817
X6.9249Y-2.6345
X6.9564Y-5.6581
X6.9879Y-2.9494
X6.9879Y-3.2959
X6.9879Y-3.6424
X6.989Y-4.778
X6.995Y-4.555
X7.0079Y-4.7047
X7.0079Y-4.8094
X7.0079Y-4.8764
X7.0509Y-4.9337
X7.1769Y-3.1069
X7.1769Y-3.4534
X7.2047Y-3.6441
X7.2047Y-3.7071
X7.2047Y-3.7701
X7.2047Y-3.8331
X7.2047Y-3.8961
X7.2047Y-3.9591
X7.2047Y-4.022
X7.2047Y-4.085
X7.2047Y-4.148
X7.2047Y-4.211
X7.2047Y-4.274
X7.2047Y-4.337
X7.2047Y-4.4
X7.2047Y-4.463
X7.2047Y-4.589
X7.2047Y-4.652
X7.2047Y-4.715
X7.2047Y-4.8409
X7.2084Y-5.1227
X7.2244Y-3.6126
X7.2244Y-3.6756
X7.2244Y-3.8646
X7.2244Y-3.9276
X7.2244Y-3.9906
X7.2244Y-4.0535
X7.2244Y-4.1165
X7.2244Y-4.1795
X7.2244Y-4.2425
X7.2244Y-4.3055
X7.2244Y-4.3685
X7.2244Y-4.4315
X7.2244Y-4.4945
X7.2244Y-4.5575
X7.2244Y-4.6205
X7.2244Y-4.6835
X7.2244Y-4.7465
X7.2244Y-4.8094
X7.2399Y-2.603
X7.2399Y-5.5951
X7.3028Y-3.6739
X7.3028Y-4.0203
X7.3343Y-4.3353
X7.3658Y-2.8235
X7.3658Y-3.2644
X7.3973Y-4.9337
X7.3973Y-5.2802
X7.4114Y-4.463
X7.4114Y-4.5319
X7.4114Y-4.6008
X7.4114Y-4.6697
X7.4114Y-4.7386
X7.4114Y-4.8075
X7.4114Y-4.8764
X7.4213Y-4.3695
X7.4213Y-4.399
X7.4603Y-4.5557
X7.4918Y-3.0439
X7.4918Y-3.4849
X7.4918Y-3.8313
X7.5233Y-4.1463
X7.5233Y-5.5006
X7.5548Y-2.6345
X7.5863Y-4.7762
X7.5863Y-5.1227
X7.6493Y-4.3668
X7.6808Y-2.8865
X7.6808Y-3.2329
X7.6808Y-3.6424
X7.7123Y-3.9573
X7.7123Y-5.6581
X7.7753Y-4.5872
X7.7753Y-4.9337
X7.7753Y-5.2802
T2
X6.8555Y-2.7559
X6.9555Y-2.7559
X7.0555Y-2.7559
X7.1555Y-2.7559
X6.4555Y-2.7559
X6.5555Y-2.7559
X6.6555Y-2.7559
X6.7555Y-2.7559
X4.4555Y-2.7559
X4.5555Y-2.7559
X6.2555Y-2.7559
X6.3555Y-2.7559
X4.8555Y-2.7559
X4.9555Y-2.7559
X7.2555Y-2.7559
X7.3555Y-2.7559
X6.0555Y-2.7559
X6.1555Y-2.7559
X4.6555Y-2.7559
X4.7555Y-2.7559
X5.2555Y-2.7559
X5.3555Y-2.7559
X5.4555Y-2.7559
X5.5555Y-2.7559
X5.0555Y-2.7559
X5.1555Y-2.7559
X5.6555Y-2.7559
X5.7555Y-2.7559
X5.8555Y-2.7559
X5.9555Y-2.7559
T3
X5.0669Y-5.4618
X5.0669Y-5.5618
X5.1669Y-5.4618
X5.1669Y-5.5618
X5.2669Y-5.4618
X5.2669Y-5.5618
X5.3669Y-5.4618
X5.3669Y-5.5618
X5.4669Y-5.4618
X5.4669Y-5.5618
T4
X5.7264Y-3.9453
X5.7303Y-3.7713
X6.0846Y-3.7713
X6.0846Y-3.9453
T5
X7.6772Y-2.7559
X4.1339Y-5.5118
X4.1339Y-2.7559
X7.6772Y-5.5118
T6
X5.9055Y-4.1409
T0
M30
