G04 #@! TF.GenerationSoftware,KiCad,Pcbnew,(5.1.8)-1*
G04 #@! TF.CreationDate,2021-01-06T22:06:37-05:00*
G04 #@! TF.ProjectId,CANDash 2,43414e44-6173-4682-9032-2e6b69636164,2A*
G04 #@! TF.SameCoordinates,Original*
G04 #@! TF.FileFunction,Paste,Top*
G04 #@! TF.FilePolarity,Positive*
%FSLAX46Y46*%
G04 Gerber Fmt 4.6, Leading zero omitted, Abs format (unit mm)*
G04 Created by KiCad (PCBNEW (5.1.8)-1) date 2021-01-06 22:06:37*
%MOMM*%
%LPD*%
G01*
G04 APERTURE LIST*
G04 #@! TA.AperFunction,Profile*
%ADD10C,0.508000*%
G04 #@! TD*
%ADD11R,2.500000X2.300000*%
%ADD12R,1.200000X0.800000*%
%ADD13R,2.500000X1.800000*%
%ADD14R,3.800000X2.000000*%
%ADD15R,1.500000X2.000000*%
%ADD16R,2.000000X2.400000*%
%ADD17R,0.900000X0.800000*%
G04 APERTURE END LIST*
D10*
X105000000Y-65000000D02*
X195000000Y-65000000D01*
X200000000Y-70000000D02*
X200000000Y-140000000D01*
X200000000Y-70000000D02*
G75*
G03*
X195000000Y-65000000I-5000000J0D01*
G01*
X100000000Y-70000000D02*
X100000000Y-140000000D01*
X105000000Y-65000000D02*
G75*
G03*
X100000000Y-70000000I0J-5000000D01*
G01*
X195000000Y-145000000D02*
X105000000Y-145000000D01*
X195000000Y-145000000D02*
G75*
G03*
X200000000Y-140000000I0J5000000D01*
G01*
X100000000Y-140000000D02*
G75*
G03*
X105000000Y-145000000I5000000J0D01*
G01*
G36*
G01*
X128875000Y-110225000D02*
X127625000Y-110225000D01*
G75*
G02*
X127375000Y-109975000I0J250000D01*
G01*
X127375000Y-109225000D01*
G75*
G02*
X127625000Y-108975000I250000J0D01*
G01*
X128875000Y-108975000D01*
G75*
G02*
X129125000Y-109225000I0J-250000D01*
G01*
X129125000Y-109975000D01*
G75*
G02*
X128875000Y-110225000I-250000J0D01*
G01*
G37*
G36*
G01*
X128875000Y-113025000D02*
X127625000Y-113025000D01*
G75*
G02*
X127375000Y-112775000I0J250000D01*
G01*
X127375000Y-112025000D01*
G75*
G02*
X127625000Y-111775000I250000J0D01*
G01*
X128875000Y-111775000D01*
G75*
G02*
X129125000Y-112025000I0J-250000D01*
G01*
X129125000Y-112775000D01*
G75*
G02*
X128875000Y-113025000I-250000J0D01*
G01*
G37*
G36*
G01*
X166675000Y-102275000D02*
X166675000Y-101725000D01*
G75*
G02*
X166875000Y-101525000I200000J0D01*
G01*
X167275000Y-101525000D01*
G75*
G02*
X167475000Y-101725000I0J-200000D01*
G01*
X167475000Y-102275000D01*
G75*
G02*
X167275000Y-102475000I-200000J0D01*
G01*
X166875000Y-102475000D01*
G75*
G02*
X166675000Y-102275000I0J200000D01*
G01*
G37*
G36*
G01*
X165025000Y-102275000D02*
X165025000Y-101725000D01*
G75*
G02*
X165225000Y-101525000I200000J0D01*
G01*
X165625000Y-101525000D01*
G75*
G02*
X165825000Y-101725000I0J-200000D01*
G01*
X165825000Y-102275000D01*
G75*
G02*
X165625000Y-102475000I-200000J0D01*
G01*
X165225000Y-102475000D01*
G75*
G02*
X165025000Y-102275000I0J200000D01*
G01*
G37*
D11*
X135800000Y-101000000D03*
X131500000Y-101000000D03*
G36*
G01*
X181735000Y-123603750D02*
X181735000Y-124116250D01*
G75*
G02*
X181516250Y-124335000I-218750J0D01*
G01*
X181078750Y-124335000D01*
G75*
G02*
X180860000Y-124116250I0J218750D01*
G01*
X180860000Y-123603750D01*
G75*
G02*
X181078750Y-123385000I218750J0D01*
G01*
X181516250Y-123385000D01*
G75*
G02*
X181735000Y-123603750I0J-218750D01*
G01*
G37*
G36*
G01*
X180160000Y-123603750D02*
X180160000Y-124116250D01*
G75*
G02*
X179941250Y-124335000I-218750J0D01*
G01*
X179503750Y-124335000D01*
G75*
G02*
X179285000Y-124116250I0J218750D01*
G01*
X179285000Y-123603750D01*
G75*
G02*
X179503750Y-123385000I218750J0D01*
G01*
X179941250Y-123385000D01*
G75*
G02*
X180160000Y-123603750I0J-218750D01*
G01*
G37*
G36*
G01*
X180160000Y-121853750D02*
X180160000Y-122366250D01*
G75*
G02*
X179941250Y-122585000I-218750J0D01*
G01*
X179503750Y-122585000D01*
G75*
G02*
X179285000Y-122366250I0J218750D01*
G01*
X179285000Y-121853750D01*
G75*
G02*
X179503750Y-121635000I218750J0D01*
G01*
X179941250Y-121635000D01*
G75*
G02*
X180160000Y-121853750I0J-218750D01*
G01*
G37*
G36*
G01*
X181735000Y-121853750D02*
X181735000Y-122366250D01*
G75*
G02*
X181516250Y-122585000I-218750J0D01*
G01*
X181078750Y-122585000D01*
G75*
G02*
X180860000Y-122366250I0J218750D01*
G01*
X180860000Y-121853750D01*
G75*
G02*
X181078750Y-121635000I218750J0D01*
G01*
X181516250Y-121635000D01*
G75*
G02*
X181735000Y-121853750I0J-218750D01*
G01*
G37*
G36*
G01*
X186850000Y-124116250D02*
X186850000Y-123603750D01*
G75*
G02*
X187068750Y-123385000I218750J0D01*
G01*
X187506250Y-123385000D01*
G75*
G02*
X187725000Y-123603750I0J-218750D01*
G01*
X187725000Y-124116250D01*
G75*
G02*
X187506250Y-124335000I-218750J0D01*
G01*
X187068750Y-124335000D01*
G75*
G02*
X186850000Y-124116250I0J218750D01*
G01*
G37*
G36*
G01*
X185275000Y-124116250D02*
X185275000Y-123603750D01*
G75*
G02*
X185493750Y-123385000I218750J0D01*
G01*
X185931250Y-123385000D01*
G75*
G02*
X186150000Y-123603750I0J-218750D01*
G01*
X186150000Y-124116250D01*
G75*
G02*
X185931250Y-124335000I-218750J0D01*
G01*
X185493750Y-124335000D01*
G75*
G02*
X185275000Y-124116250I0J218750D01*
G01*
G37*
G36*
G01*
X186850000Y-122366250D02*
X186850000Y-121853750D01*
G75*
G02*
X187068750Y-121635000I218750J0D01*
G01*
X187506250Y-121635000D01*
G75*
G02*
X187725000Y-121853750I0J-218750D01*
G01*
X187725000Y-122366250D01*
G75*
G02*
X187506250Y-122585000I-218750J0D01*
G01*
X187068750Y-122585000D01*
G75*
G02*
X186850000Y-122366250I0J218750D01*
G01*
G37*
G36*
G01*
X185275000Y-122366250D02*
X185275000Y-121853750D01*
G75*
G02*
X185493750Y-121635000I218750J0D01*
G01*
X185931250Y-121635000D01*
G75*
G02*
X186150000Y-121853750I0J-218750D01*
G01*
X186150000Y-122366250D01*
G75*
G02*
X185931250Y-122585000I-218750J0D01*
G01*
X185493750Y-122585000D01*
G75*
G02*
X185275000Y-122366250I0J218750D01*
G01*
G37*
G36*
G01*
X186850000Y-120616250D02*
X186850000Y-120103750D01*
G75*
G02*
X187068750Y-119885000I218750J0D01*
G01*
X187506250Y-119885000D01*
G75*
G02*
X187725000Y-120103750I0J-218750D01*
G01*
X187725000Y-120616250D01*
G75*
G02*
X187506250Y-120835000I-218750J0D01*
G01*
X187068750Y-120835000D01*
G75*
G02*
X186850000Y-120616250I0J218750D01*
G01*
G37*
G36*
G01*
X185275000Y-120616250D02*
X185275000Y-120103750D01*
G75*
G02*
X185493750Y-119885000I218750J0D01*
G01*
X185931250Y-119885000D01*
G75*
G02*
X186150000Y-120103750I0J-218750D01*
G01*
X186150000Y-120616250D01*
G75*
G02*
X185931250Y-120835000I-218750J0D01*
G01*
X185493750Y-120835000D01*
G75*
G02*
X185275000Y-120616250I0J218750D01*
G01*
G37*
G36*
G01*
X186850000Y-118866250D02*
X186850000Y-118353750D01*
G75*
G02*
X187068750Y-118135000I218750J0D01*
G01*
X187506250Y-118135000D01*
G75*
G02*
X187725000Y-118353750I0J-218750D01*
G01*
X187725000Y-118866250D01*
G75*
G02*
X187506250Y-119085000I-218750J0D01*
G01*
X187068750Y-119085000D01*
G75*
G02*
X186850000Y-118866250I0J218750D01*
G01*
G37*
G36*
G01*
X185275000Y-118866250D02*
X185275000Y-118353750D01*
G75*
G02*
X185493750Y-118135000I218750J0D01*
G01*
X185931250Y-118135000D01*
G75*
G02*
X186150000Y-118353750I0J-218750D01*
G01*
X186150000Y-118866250D01*
G75*
G02*
X185931250Y-119085000I-218750J0D01*
G01*
X185493750Y-119085000D01*
G75*
G02*
X185275000Y-118866250I0J218750D01*
G01*
G37*
G36*
G01*
X186850000Y-117116250D02*
X186850000Y-116603750D01*
G75*
G02*
X187068750Y-116385000I218750J0D01*
G01*
X187506250Y-116385000D01*
G75*
G02*
X187725000Y-116603750I0J-218750D01*
G01*
X187725000Y-117116250D01*
G75*
G02*
X187506250Y-117335000I-218750J0D01*
G01*
X187068750Y-117335000D01*
G75*
G02*
X186850000Y-117116250I0J218750D01*
G01*
G37*
G36*
G01*
X185275000Y-117116250D02*
X185275000Y-116603750D01*
G75*
G02*
X185493750Y-116385000I218750J0D01*
G01*
X185931250Y-116385000D01*
G75*
G02*
X186150000Y-116603750I0J-218750D01*
G01*
X186150000Y-117116250D01*
G75*
G02*
X185931250Y-117335000I-218750J0D01*
G01*
X185493750Y-117335000D01*
G75*
G02*
X185275000Y-117116250I0J218750D01*
G01*
G37*
G36*
G01*
X186850000Y-115366250D02*
X186850000Y-114853750D01*
G75*
G02*
X187068750Y-114635000I218750J0D01*
G01*
X187506250Y-114635000D01*
G75*
G02*
X187725000Y-114853750I0J-218750D01*
G01*
X187725000Y-115366250D01*
G75*
G02*
X187506250Y-115585000I-218750J0D01*
G01*
X187068750Y-115585000D01*
G75*
G02*
X186850000Y-115366250I0J218750D01*
G01*
G37*
G36*
G01*
X185275000Y-115366250D02*
X185275000Y-114853750D01*
G75*
G02*
X185493750Y-114635000I218750J0D01*
G01*
X185931250Y-114635000D01*
G75*
G02*
X186150000Y-114853750I0J-218750D01*
G01*
X186150000Y-115366250D01*
G75*
G02*
X185931250Y-115585000I-218750J0D01*
G01*
X185493750Y-115585000D01*
G75*
G02*
X185275000Y-115366250I0J218750D01*
G01*
G37*
D12*
X170650000Y-92270000D03*
X164350000Y-89730000D03*
X170650000Y-89730000D03*
X164350000Y-92270000D03*
G36*
G01*
X162243750Y-91350000D02*
X162756250Y-91350000D01*
G75*
G02*
X162975000Y-91568750I0J-218750D01*
G01*
X162975000Y-92006250D01*
G75*
G02*
X162756250Y-92225000I-218750J0D01*
G01*
X162243750Y-92225000D01*
G75*
G02*
X162025000Y-92006250I0J218750D01*
G01*
X162025000Y-91568750D01*
G75*
G02*
X162243750Y-91350000I218750J0D01*
G01*
G37*
G36*
G01*
X162243750Y-89775000D02*
X162756250Y-89775000D01*
G75*
G02*
X162975000Y-89993750I0J-218750D01*
G01*
X162975000Y-90431250D01*
G75*
G02*
X162756250Y-90650000I-218750J0D01*
G01*
X162243750Y-90650000D01*
G75*
G02*
X162025000Y-90431250I0J218750D01*
G01*
X162025000Y-89993750D01*
G75*
G02*
X162243750Y-89775000I218750J0D01*
G01*
G37*
G36*
G01*
X172243750Y-91350000D02*
X172756250Y-91350000D01*
G75*
G02*
X172975000Y-91568750I0J-218750D01*
G01*
X172975000Y-92006250D01*
G75*
G02*
X172756250Y-92225000I-218750J0D01*
G01*
X172243750Y-92225000D01*
G75*
G02*
X172025000Y-92006250I0J218750D01*
G01*
X172025000Y-91568750D01*
G75*
G02*
X172243750Y-91350000I218750J0D01*
G01*
G37*
G36*
G01*
X172243750Y-89775000D02*
X172756250Y-89775000D01*
G75*
G02*
X172975000Y-89993750I0J-218750D01*
G01*
X172975000Y-90431250D01*
G75*
G02*
X172756250Y-90650000I-218750J0D01*
G01*
X172243750Y-90650000D01*
G75*
G02*
X172025000Y-90431250I0J218750D01*
G01*
X172025000Y-89993750D01*
G75*
G02*
X172243750Y-89775000I218750J0D01*
G01*
G37*
G36*
G01*
X161295000Y-76550000D02*
X161595000Y-76550000D01*
G75*
G02*
X161745000Y-76700000I0J-150000D01*
G01*
X161745000Y-78350000D01*
G75*
G02*
X161595000Y-78500000I-150000J0D01*
G01*
X161295000Y-78500000D01*
G75*
G02*
X161145000Y-78350000I0J150000D01*
G01*
X161145000Y-76700000D01*
G75*
G02*
X161295000Y-76550000I150000J0D01*
G01*
G37*
G36*
G01*
X160025000Y-76550000D02*
X160325000Y-76550000D01*
G75*
G02*
X160475000Y-76700000I0J-150000D01*
G01*
X160475000Y-78350000D01*
G75*
G02*
X160325000Y-78500000I-150000J0D01*
G01*
X160025000Y-78500000D01*
G75*
G02*
X159875000Y-78350000I0J150000D01*
G01*
X159875000Y-76700000D01*
G75*
G02*
X160025000Y-76550000I150000J0D01*
G01*
G37*
G36*
G01*
X158755000Y-76550000D02*
X159055000Y-76550000D01*
G75*
G02*
X159205000Y-76700000I0J-150000D01*
G01*
X159205000Y-78350000D01*
G75*
G02*
X159055000Y-78500000I-150000J0D01*
G01*
X158755000Y-78500000D01*
G75*
G02*
X158605000Y-78350000I0J150000D01*
G01*
X158605000Y-76700000D01*
G75*
G02*
X158755000Y-76550000I150000J0D01*
G01*
G37*
G36*
G01*
X157485000Y-76550000D02*
X157785000Y-76550000D01*
G75*
G02*
X157935000Y-76700000I0J-150000D01*
G01*
X157935000Y-78350000D01*
G75*
G02*
X157785000Y-78500000I-150000J0D01*
G01*
X157485000Y-78500000D01*
G75*
G02*
X157335000Y-78350000I0J150000D01*
G01*
X157335000Y-76700000D01*
G75*
G02*
X157485000Y-76550000I150000J0D01*
G01*
G37*
G36*
G01*
X156215000Y-76550000D02*
X156515000Y-76550000D01*
G75*
G02*
X156665000Y-76700000I0J-150000D01*
G01*
X156665000Y-78350000D01*
G75*
G02*
X156515000Y-78500000I-150000J0D01*
G01*
X156215000Y-78500000D01*
G75*
G02*
X156065000Y-78350000I0J150000D01*
G01*
X156065000Y-76700000D01*
G75*
G02*
X156215000Y-76550000I150000J0D01*
G01*
G37*
G36*
G01*
X154945000Y-76550000D02*
X155245000Y-76550000D01*
G75*
G02*
X155395000Y-76700000I0J-150000D01*
G01*
X155395000Y-78350000D01*
G75*
G02*
X155245000Y-78500000I-150000J0D01*
G01*
X154945000Y-78500000D01*
G75*
G02*
X154795000Y-78350000I0J150000D01*
G01*
X154795000Y-76700000D01*
G75*
G02*
X154945000Y-76550000I150000J0D01*
G01*
G37*
G36*
G01*
X153675000Y-76550000D02*
X153975000Y-76550000D01*
G75*
G02*
X154125000Y-76700000I0J-150000D01*
G01*
X154125000Y-78350000D01*
G75*
G02*
X153975000Y-78500000I-150000J0D01*
G01*
X153675000Y-78500000D01*
G75*
G02*
X153525000Y-78350000I0J150000D01*
G01*
X153525000Y-76700000D01*
G75*
G02*
X153675000Y-76550000I150000J0D01*
G01*
G37*
G36*
G01*
X152405000Y-76550000D02*
X152705000Y-76550000D01*
G75*
G02*
X152855000Y-76700000I0J-150000D01*
G01*
X152855000Y-78350000D01*
G75*
G02*
X152705000Y-78500000I-150000J0D01*
G01*
X152405000Y-78500000D01*
G75*
G02*
X152255000Y-78350000I0J150000D01*
G01*
X152255000Y-76700000D01*
G75*
G02*
X152405000Y-76550000I150000J0D01*
G01*
G37*
G36*
G01*
X152405000Y-81500000D02*
X152705000Y-81500000D01*
G75*
G02*
X152855000Y-81650000I0J-150000D01*
G01*
X152855000Y-83300000D01*
G75*
G02*
X152705000Y-83450000I-150000J0D01*
G01*
X152405000Y-83450000D01*
G75*
G02*
X152255000Y-83300000I0J150000D01*
G01*
X152255000Y-81650000D01*
G75*
G02*
X152405000Y-81500000I150000J0D01*
G01*
G37*
G36*
G01*
X153675000Y-81500000D02*
X153975000Y-81500000D01*
G75*
G02*
X154125000Y-81650000I0J-150000D01*
G01*
X154125000Y-83300000D01*
G75*
G02*
X153975000Y-83450000I-150000J0D01*
G01*
X153675000Y-83450000D01*
G75*
G02*
X153525000Y-83300000I0J150000D01*
G01*
X153525000Y-81650000D01*
G75*
G02*
X153675000Y-81500000I150000J0D01*
G01*
G37*
G36*
G01*
X154945000Y-81500000D02*
X155245000Y-81500000D01*
G75*
G02*
X155395000Y-81650000I0J-150000D01*
G01*
X155395000Y-83300000D01*
G75*
G02*
X155245000Y-83450000I-150000J0D01*
G01*
X154945000Y-83450000D01*
G75*
G02*
X154795000Y-83300000I0J150000D01*
G01*
X154795000Y-81650000D01*
G75*
G02*
X154945000Y-81500000I150000J0D01*
G01*
G37*
G36*
G01*
X156215000Y-81500000D02*
X156515000Y-81500000D01*
G75*
G02*
X156665000Y-81650000I0J-150000D01*
G01*
X156665000Y-83300000D01*
G75*
G02*
X156515000Y-83450000I-150000J0D01*
G01*
X156215000Y-83450000D01*
G75*
G02*
X156065000Y-83300000I0J150000D01*
G01*
X156065000Y-81650000D01*
G75*
G02*
X156215000Y-81500000I150000J0D01*
G01*
G37*
G36*
G01*
X157485000Y-81500000D02*
X157785000Y-81500000D01*
G75*
G02*
X157935000Y-81650000I0J-150000D01*
G01*
X157935000Y-83300000D01*
G75*
G02*
X157785000Y-83450000I-150000J0D01*
G01*
X157485000Y-83450000D01*
G75*
G02*
X157335000Y-83300000I0J150000D01*
G01*
X157335000Y-81650000D01*
G75*
G02*
X157485000Y-81500000I150000J0D01*
G01*
G37*
G36*
G01*
X158755000Y-81500000D02*
X159055000Y-81500000D01*
G75*
G02*
X159205000Y-81650000I0J-150000D01*
G01*
X159205000Y-83300000D01*
G75*
G02*
X159055000Y-83450000I-150000J0D01*
G01*
X158755000Y-83450000D01*
G75*
G02*
X158605000Y-83300000I0J150000D01*
G01*
X158605000Y-81650000D01*
G75*
G02*
X158755000Y-81500000I150000J0D01*
G01*
G37*
G36*
G01*
X160025000Y-81500000D02*
X160325000Y-81500000D01*
G75*
G02*
X160475000Y-81650000I0J-150000D01*
G01*
X160475000Y-83300000D01*
G75*
G02*
X160325000Y-83450000I-150000J0D01*
G01*
X160025000Y-83450000D01*
G75*
G02*
X159875000Y-83300000I0J150000D01*
G01*
X159875000Y-81650000D01*
G75*
G02*
X160025000Y-81500000I150000J0D01*
G01*
G37*
G36*
G01*
X161295000Y-81500000D02*
X161595000Y-81500000D01*
G75*
G02*
X161745000Y-81650000I0J-150000D01*
G01*
X161745000Y-83300000D01*
G75*
G02*
X161595000Y-83450000I-150000J0D01*
G01*
X161295000Y-83450000D01*
G75*
G02*
X161145000Y-83300000I0J150000D01*
G01*
X161145000Y-81650000D01*
G75*
G02*
X161295000Y-81500000I150000J0D01*
G01*
G37*
G36*
G01*
X142650000Y-128743750D02*
X142650000Y-129256250D01*
G75*
G02*
X142431250Y-129475000I-218750J0D01*
G01*
X141993750Y-129475000D01*
G75*
G02*
X141775000Y-129256250I0J218750D01*
G01*
X141775000Y-128743750D01*
G75*
G02*
X141993750Y-128525000I218750J0D01*
G01*
X142431250Y-128525000D01*
G75*
G02*
X142650000Y-128743750I0J-218750D01*
G01*
G37*
G36*
G01*
X144225000Y-128743750D02*
X144225000Y-129256250D01*
G75*
G02*
X144006250Y-129475000I-218750J0D01*
G01*
X143568750Y-129475000D01*
G75*
G02*
X143350000Y-129256250I0J218750D01*
G01*
X143350000Y-128743750D01*
G75*
G02*
X143568750Y-128525000I218750J0D01*
G01*
X144006250Y-128525000D01*
G75*
G02*
X144225000Y-128743750I0J-218750D01*
G01*
G37*
G36*
G01*
X142650000Y-132243750D02*
X142650000Y-132756250D01*
G75*
G02*
X142431250Y-132975000I-218750J0D01*
G01*
X141993750Y-132975000D01*
G75*
G02*
X141775000Y-132756250I0J218750D01*
G01*
X141775000Y-132243750D01*
G75*
G02*
X141993750Y-132025000I218750J0D01*
G01*
X142431250Y-132025000D01*
G75*
G02*
X142650000Y-132243750I0J-218750D01*
G01*
G37*
G36*
G01*
X144225000Y-132243750D02*
X144225000Y-132756250D01*
G75*
G02*
X144006250Y-132975000I-218750J0D01*
G01*
X143568750Y-132975000D01*
G75*
G02*
X143350000Y-132756250I0J218750D01*
G01*
X143350000Y-132243750D01*
G75*
G02*
X143568750Y-132025000I218750J0D01*
G01*
X144006250Y-132025000D01*
G75*
G02*
X144225000Y-132243750I0J-218750D01*
G01*
G37*
G36*
G01*
X142650000Y-130493750D02*
X142650000Y-131006250D01*
G75*
G02*
X142431250Y-131225000I-218750J0D01*
G01*
X141993750Y-131225000D01*
G75*
G02*
X141775000Y-131006250I0J218750D01*
G01*
X141775000Y-130493750D01*
G75*
G02*
X141993750Y-130275000I218750J0D01*
G01*
X142431250Y-130275000D01*
G75*
G02*
X142650000Y-130493750I0J-218750D01*
G01*
G37*
G36*
G01*
X144225000Y-130493750D02*
X144225000Y-131006250D01*
G75*
G02*
X144006250Y-131225000I-218750J0D01*
G01*
X143568750Y-131225000D01*
G75*
G02*
X143350000Y-131006250I0J218750D01*
G01*
X143350000Y-130493750D01*
G75*
G02*
X143568750Y-130275000I218750J0D01*
G01*
X144006250Y-130275000D01*
G75*
G02*
X144225000Y-130493750I0J-218750D01*
G01*
G37*
G36*
G01*
X142650000Y-133993750D02*
X142650000Y-134506250D01*
G75*
G02*
X142431250Y-134725000I-218750J0D01*
G01*
X141993750Y-134725000D01*
G75*
G02*
X141775000Y-134506250I0J218750D01*
G01*
X141775000Y-133993750D01*
G75*
G02*
X141993750Y-133775000I218750J0D01*
G01*
X142431250Y-133775000D01*
G75*
G02*
X142650000Y-133993750I0J-218750D01*
G01*
G37*
G36*
G01*
X144225000Y-133993750D02*
X144225000Y-134506250D01*
G75*
G02*
X144006250Y-134725000I-218750J0D01*
G01*
X143568750Y-134725000D01*
G75*
G02*
X143350000Y-134506250I0J218750D01*
G01*
X143350000Y-133993750D01*
G75*
G02*
X143568750Y-133775000I218750J0D01*
G01*
X144006250Y-133775000D01*
G75*
G02*
X144225000Y-133993750I0J-218750D01*
G01*
G37*
D13*
X131500000Y-95790000D03*
X135500000Y-95790000D03*
G36*
G01*
X156650000Y-132243750D02*
X156650000Y-132756250D01*
G75*
G02*
X156431250Y-132975000I-218750J0D01*
G01*
X155993750Y-132975000D01*
G75*
G02*
X155775000Y-132756250I0J218750D01*
G01*
X155775000Y-132243750D01*
G75*
G02*
X155993750Y-132025000I218750J0D01*
G01*
X156431250Y-132025000D01*
G75*
G02*
X156650000Y-132243750I0J-218750D01*
G01*
G37*
G36*
G01*
X158225000Y-132243750D02*
X158225000Y-132756250D01*
G75*
G02*
X158006250Y-132975000I-218750J0D01*
G01*
X157568750Y-132975000D01*
G75*
G02*
X157350000Y-132756250I0J218750D01*
G01*
X157350000Y-132243750D01*
G75*
G02*
X157568750Y-132025000I218750J0D01*
G01*
X158006250Y-132025000D01*
G75*
G02*
X158225000Y-132243750I0J-218750D01*
G01*
G37*
D14*
X133500000Y-107850000D03*
D15*
X133500000Y-114150000D03*
X135800000Y-114150000D03*
X131200000Y-114150000D03*
G36*
G01*
X147295000Y-76550000D02*
X147595000Y-76550000D01*
G75*
G02*
X147745000Y-76700000I0J-150000D01*
G01*
X147745000Y-78350000D01*
G75*
G02*
X147595000Y-78500000I-150000J0D01*
G01*
X147295000Y-78500000D01*
G75*
G02*
X147145000Y-78350000I0J150000D01*
G01*
X147145000Y-76700000D01*
G75*
G02*
X147295000Y-76550000I150000J0D01*
G01*
G37*
G36*
G01*
X146025000Y-76550000D02*
X146325000Y-76550000D01*
G75*
G02*
X146475000Y-76700000I0J-150000D01*
G01*
X146475000Y-78350000D01*
G75*
G02*
X146325000Y-78500000I-150000J0D01*
G01*
X146025000Y-78500000D01*
G75*
G02*
X145875000Y-78350000I0J150000D01*
G01*
X145875000Y-76700000D01*
G75*
G02*
X146025000Y-76550000I150000J0D01*
G01*
G37*
G36*
G01*
X144755000Y-76550000D02*
X145055000Y-76550000D01*
G75*
G02*
X145205000Y-76700000I0J-150000D01*
G01*
X145205000Y-78350000D01*
G75*
G02*
X145055000Y-78500000I-150000J0D01*
G01*
X144755000Y-78500000D01*
G75*
G02*
X144605000Y-78350000I0J150000D01*
G01*
X144605000Y-76700000D01*
G75*
G02*
X144755000Y-76550000I150000J0D01*
G01*
G37*
G36*
G01*
X143485000Y-76550000D02*
X143785000Y-76550000D01*
G75*
G02*
X143935000Y-76700000I0J-150000D01*
G01*
X143935000Y-78350000D01*
G75*
G02*
X143785000Y-78500000I-150000J0D01*
G01*
X143485000Y-78500000D01*
G75*
G02*
X143335000Y-78350000I0J150000D01*
G01*
X143335000Y-76700000D01*
G75*
G02*
X143485000Y-76550000I150000J0D01*
G01*
G37*
G36*
G01*
X142215000Y-76550000D02*
X142515000Y-76550000D01*
G75*
G02*
X142665000Y-76700000I0J-150000D01*
G01*
X142665000Y-78350000D01*
G75*
G02*
X142515000Y-78500000I-150000J0D01*
G01*
X142215000Y-78500000D01*
G75*
G02*
X142065000Y-78350000I0J150000D01*
G01*
X142065000Y-76700000D01*
G75*
G02*
X142215000Y-76550000I150000J0D01*
G01*
G37*
G36*
G01*
X140945000Y-76550000D02*
X141245000Y-76550000D01*
G75*
G02*
X141395000Y-76700000I0J-150000D01*
G01*
X141395000Y-78350000D01*
G75*
G02*
X141245000Y-78500000I-150000J0D01*
G01*
X140945000Y-78500000D01*
G75*
G02*
X140795000Y-78350000I0J150000D01*
G01*
X140795000Y-76700000D01*
G75*
G02*
X140945000Y-76550000I150000J0D01*
G01*
G37*
G36*
G01*
X139675000Y-76550000D02*
X139975000Y-76550000D01*
G75*
G02*
X140125000Y-76700000I0J-150000D01*
G01*
X140125000Y-78350000D01*
G75*
G02*
X139975000Y-78500000I-150000J0D01*
G01*
X139675000Y-78500000D01*
G75*
G02*
X139525000Y-78350000I0J150000D01*
G01*
X139525000Y-76700000D01*
G75*
G02*
X139675000Y-76550000I150000J0D01*
G01*
G37*
G36*
G01*
X138405000Y-76550000D02*
X138705000Y-76550000D01*
G75*
G02*
X138855000Y-76700000I0J-150000D01*
G01*
X138855000Y-78350000D01*
G75*
G02*
X138705000Y-78500000I-150000J0D01*
G01*
X138405000Y-78500000D01*
G75*
G02*
X138255000Y-78350000I0J150000D01*
G01*
X138255000Y-76700000D01*
G75*
G02*
X138405000Y-76550000I150000J0D01*
G01*
G37*
G36*
G01*
X138405000Y-81500000D02*
X138705000Y-81500000D01*
G75*
G02*
X138855000Y-81650000I0J-150000D01*
G01*
X138855000Y-83300000D01*
G75*
G02*
X138705000Y-83450000I-150000J0D01*
G01*
X138405000Y-83450000D01*
G75*
G02*
X138255000Y-83300000I0J150000D01*
G01*
X138255000Y-81650000D01*
G75*
G02*
X138405000Y-81500000I150000J0D01*
G01*
G37*
G36*
G01*
X139675000Y-81500000D02*
X139975000Y-81500000D01*
G75*
G02*
X140125000Y-81650000I0J-150000D01*
G01*
X140125000Y-83300000D01*
G75*
G02*
X139975000Y-83450000I-150000J0D01*
G01*
X139675000Y-83450000D01*
G75*
G02*
X139525000Y-83300000I0J150000D01*
G01*
X139525000Y-81650000D01*
G75*
G02*
X139675000Y-81500000I150000J0D01*
G01*
G37*
G36*
G01*
X140945000Y-81500000D02*
X141245000Y-81500000D01*
G75*
G02*
X141395000Y-81650000I0J-150000D01*
G01*
X141395000Y-83300000D01*
G75*
G02*
X141245000Y-83450000I-150000J0D01*
G01*
X140945000Y-83450000D01*
G75*
G02*
X140795000Y-83300000I0J150000D01*
G01*
X140795000Y-81650000D01*
G75*
G02*
X140945000Y-81500000I150000J0D01*
G01*
G37*
G36*
G01*
X142215000Y-81500000D02*
X142515000Y-81500000D01*
G75*
G02*
X142665000Y-81650000I0J-150000D01*
G01*
X142665000Y-83300000D01*
G75*
G02*
X142515000Y-83450000I-150000J0D01*
G01*
X142215000Y-83450000D01*
G75*
G02*
X142065000Y-83300000I0J150000D01*
G01*
X142065000Y-81650000D01*
G75*
G02*
X142215000Y-81500000I150000J0D01*
G01*
G37*
G36*
G01*
X143485000Y-81500000D02*
X143785000Y-81500000D01*
G75*
G02*
X143935000Y-81650000I0J-150000D01*
G01*
X143935000Y-83300000D01*
G75*
G02*
X143785000Y-83450000I-150000J0D01*
G01*
X143485000Y-83450000D01*
G75*
G02*
X143335000Y-83300000I0J150000D01*
G01*
X143335000Y-81650000D01*
G75*
G02*
X143485000Y-81500000I150000J0D01*
G01*
G37*
G36*
G01*
X144755000Y-81500000D02*
X145055000Y-81500000D01*
G75*
G02*
X145205000Y-81650000I0J-150000D01*
G01*
X145205000Y-83300000D01*
G75*
G02*
X145055000Y-83450000I-150000J0D01*
G01*
X144755000Y-83450000D01*
G75*
G02*
X144605000Y-83300000I0J150000D01*
G01*
X144605000Y-81650000D01*
G75*
G02*
X144755000Y-81500000I150000J0D01*
G01*
G37*
G36*
G01*
X146025000Y-81500000D02*
X146325000Y-81500000D01*
G75*
G02*
X146475000Y-81650000I0J-150000D01*
G01*
X146475000Y-83300000D01*
G75*
G02*
X146325000Y-83450000I-150000J0D01*
G01*
X146025000Y-83450000D01*
G75*
G02*
X145875000Y-83300000I0J150000D01*
G01*
X145875000Y-81650000D01*
G75*
G02*
X146025000Y-81500000I150000J0D01*
G01*
G37*
G36*
G01*
X147295000Y-81500000D02*
X147595000Y-81500000D01*
G75*
G02*
X147745000Y-81650000I0J-150000D01*
G01*
X147745000Y-83300000D01*
G75*
G02*
X147595000Y-83450000I-150000J0D01*
G01*
X147295000Y-83450000D01*
G75*
G02*
X147145000Y-83300000I0J150000D01*
G01*
X147145000Y-81650000D01*
G75*
G02*
X147295000Y-81500000I150000J0D01*
G01*
G37*
G36*
G01*
X146500000Y-123400000D02*
X145175000Y-123400000D01*
G75*
G02*
X145100000Y-123325000I0J75000D01*
G01*
X145100000Y-123175000D01*
G75*
G02*
X145175000Y-123100000I75000J0D01*
G01*
X146500000Y-123100000D01*
G75*
G02*
X146575000Y-123175000I0J-75000D01*
G01*
X146575000Y-123325000D01*
G75*
G02*
X146500000Y-123400000I-75000J0D01*
G01*
G37*
G36*
G01*
X146500000Y-122900000D02*
X145175000Y-122900000D01*
G75*
G02*
X145100000Y-122825000I0J75000D01*
G01*
X145100000Y-122675000D01*
G75*
G02*
X145175000Y-122600000I75000J0D01*
G01*
X146500000Y-122600000D01*
G75*
G02*
X146575000Y-122675000I0J-75000D01*
G01*
X146575000Y-122825000D01*
G75*
G02*
X146500000Y-122900000I-75000J0D01*
G01*
G37*
G36*
G01*
X146500000Y-122400000D02*
X145175000Y-122400000D01*
G75*
G02*
X145100000Y-122325000I0J75000D01*
G01*
X145100000Y-122175000D01*
G75*
G02*
X145175000Y-122100000I75000J0D01*
G01*
X146500000Y-122100000D01*
G75*
G02*
X146575000Y-122175000I0J-75000D01*
G01*
X146575000Y-122325000D01*
G75*
G02*
X146500000Y-122400000I-75000J0D01*
G01*
G37*
G36*
G01*
X146500000Y-121900000D02*
X145175000Y-121900000D01*
G75*
G02*
X145100000Y-121825000I0J75000D01*
G01*
X145100000Y-121675000D01*
G75*
G02*
X145175000Y-121600000I75000J0D01*
G01*
X146500000Y-121600000D01*
G75*
G02*
X146575000Y-121675000I0J-75000D01*
G01*
X146575000Y-121825000D01*
G75*
G02*
X146500000Y-121900000I-75000J0D01*
G01*
G37*
G36*
G01*
X146500000Y-121400000D02*
X145175000Y-121400000D01*
G75*
G02*
X145100000Y-121325000I0J75000D01*
G01*
X145100000Y-121175000D01*
G75*
G02*
X145175000Y-121100000I75000J0D01*
G01*
X146500000Y-121100000D01*
G75*
G02*
X146575000Y-121175000I0J-75000D01*
G01*
X146575000Y-121325000D01*
G75*
G02*
X146500000Y-121400000I-75000J0D01*
G01*
G37*
G36*
G01*
X146500000Y-120900000D02*
X145175000Y-120900000D01*
G75*
G02*
X145100000Y-120825000I0J75000D01*
G01*
X145100000Y-120675000D01*
G75*
G02*
X145175000Y-120600000I75000J0D01*
G01*
X146500000Y-120600000D01*
G75*
G02*
X146575000Y-120675000I0J-75000D01*
G01*
X146575000Y-120825000D01*
G75*
G02*
X146500000Y-120900000I-75000J0D01*
G01*
G37*
G36*
G01*
X146500000Y-120400000D02*
X145175000Y-120400000D01*
G75*
G02*
X145100000Y-120325000I0J75000D01*
G01*
X145100000Y-120175000D01*
G75*
G02*
X145175000Y-120100000I75000J0D01*
G01*
X146500000Y-120100000D01*
G75*
G02*
X146575000Y-120175000I0J-75000D01*
G01*
X146575000Y-120325000D01*
G75*
G02*
X146500000Y-120400000I-75000J0D01*
G01*
G37*
G36*
G01*
X146500000Y-119900000D02*
X145175000Y-119900000D01*
G75*
G02*
X145100000Y-119825000I0J75000D01*
G01*
X145100000Y-119675000D01*
G75*
G02*
X145175000Y-119600000I75000J0D01*
G01*
X146500000Y-119600000D01*
G75*
G02*
X146575000Y-119675000I0J-75000D01*
G01*
X146575000Y-119825000D01*
G75*
G02*
X146500000Y-119900000I-75000J0D01*
G01*
G37*
G36*
G01*
X146500000Y-119400000D02*
X145175000Y-119400000D01*
G75*
G02*
X145100000Y-119325000I0J75000D01*
G01*
X145100000Y-119175000D01*
G75*
G02*
X145175000Y-119100000I75000J0D01*
G01*
X146500000Y-119100000D01*
G75*
G02*
X146575000Y-119175000I0J-75000D01*
G01*
X146575000Y-119325000D01*
G75*
G02*
X146500000Y-119400000I-75000J0D01*
G01*
G37*
G36*
G01*
X146500000Y-118900000D02*
X145175000Y-118900000D01*
G75*
G02*
X145100000Y-118825000I0J75000D01*
G01*
X145100000Y-118675000D01*
G75*
G02*
X145175000Y-118600000I75000J0D01*
G01*
X146500000Y-118600000D01*
G75*
G02*
X146575000Y-118675000I0J-75000D01*
G01*
X146575000Y-118825000D01*
G75*
G02*
X146500000Y-118900000I-75000J0D01*
G01*
G37*
G36*
G01*
X146500000Y-118400000D02*
X145175000Y-118400000D01*
G75*
G02*
X145100000Y-118325000I0J75000D01*
G01*
X145100000Y-118175000D01*
G75*
G02*
X145175000Y-118100000I75000J0D01*
G01*
X146500000Y-118100000D01*
G75*
G02*
X146575000Y-118175000I0J-75000D01*
G01*
X146575000Y-118325000D01*
G75*
G02*
X146500000Y-118400000I-75000J0D01*
G01*
G37*
G36*
G01*
X146500000Y-117900000D02*
X145175000Y-117900000D01*
G75*
G02*
X145100000Y-117825000I0J75000D01*
G01*
X145100000Y-117675000D01*
G75*
G02*
X145175000Y-117600000I75000J0D01*
G01*
X146500000Y-117600000D01*
G75*
G02*
X146575000Y-117675000I0J-75000D01*
G01*
X146575000Y-117825000D01*
G75*
G02*
X146500000Y-117900000I-75000J0D01*
G01*
G37*
G36*
G01*
X147325000Y-117075000D02*
X147175000Y-117075000D01*
G75*
G02*
X147100000Y-117000000I0J75000D01*
G01*
X147100000Y-115675000D01*
G75*
G02*
X147175000Y-115600000I75000J0D01*
G01*
X147325000Y-115600000D01*
G75*
G02*
X147400000Y-115675000I0J-75000D01*
G01*
X147400000Y-117000000D01*
G75*
G02*
X147325000Y-117075000I-75000J0D01*
G01*
G37*
G36*
G01*
X147825000Y-117075000D02*
X147675000Y-117075000D01*
G75*
G02*
X147600000Y-117000000I0J75000D01*
G01*
X147600000Y-115675000D01*
G75*
G02*
X147675000Y-115600000I75000J0D01*
G01*
X147825000Y-115600000D01*
G75*
G02*
X147900000Y-115675000I0J-75000D01*
G01*
X147900000Y-117000000D01*
G75*
G02*
X147825000Y-117075000I-75000J0D01*
G01*
G37*
G36*
G01*
X148325000Y-117075000D02*
X148175000Y-117075000D01*
G75*
G02*
X148100000Y-117000000I0J75000D01*
G01*
X148100000Y-115675000D01*
G75*
G02*
X148175000Y-115600000I75000J0D01*
G01*
X148325000Y-115600000D01*
G75*
G02*
X148400000Y-115675000I0J-75000D01*
G01*
X148400000Y-117000000D01*
G75*
G02*
X148325000Y-117075000I-75000J0D01*
G01*
G37*
G36*
G01*
X148825000Y-117075000D02*
X148675000Y-117075000D01*
G75*
G02*
X148600000Y-117000000I0J75000D01*
G01*
X148600000Y-115675000D01*
G75*
G02*
X148675000Y-115600000I75000J0D01*
G01*
X148825000Y-115600000D01*
G75*
G02*
X148900000Y-115675000I0J-75000D01*
G01*
X148900000Y-117000000D01*
G75*
G02*
X148825000Y-117075000I-75000J0D01*
G01*
G37*
G36*
G01*
X149325000Y-117075000D02*
X149175000Y-117075000D01*
G75*
G02*
X149100000Y-117000000I0J75000D01*
G01*
X149100000Y-115675000D01*
G75*
G02*
X149175000Y-115600000I75000J0D01*
G01*
X149325000Y-115600000D01*
G75*
G02*
X149400000Y-115675000I0J-75000D01*
G01*
X149400000Y-117000000D01*
G75*
G02*
X149325000Y-117075000I-75000J0D01*
G01*
G37*
G36*
G01*
X149825000Y-117075000D02*
X149675000Y-117075000D01*
G75*
G02*
X149600000Y-117000000I0J75000D01*
G01*
X149600000Y-115675000D01*
G75*
G02*
X149675000Y-115600000I75000J0D01*
G01*
X149825000Y-115600000D01*
G75*
G02*
X149900000Y-115675000I0J-75000D01*
G01*
X149900000Y-117000000D01*
G75*
G02*
X149825000Y-117075000I-75000J0D01*
G01*
G37*
G36*
G01*
X150325000Y-117075000D02*
X150175000Y-117075000D01*
G75*
G02*
X150100000Y-117000000I0J75000D01*
G01*
X150100000Y-115675000D01*
G75*
G02*
X150175000Y-115600000I75000J0D01*
G01*
X150325000Y-115600000D01*
G75*
G02*
X150400000Y-115675000I0J-75000D01*
G01*
X150400000Y-117000000D01*
G75*
G02*
X150325000Y-117075000I-75000J0D01*
G01*
G37*
G36*
G01*
X150825000Y-117075000D02*
X150675000Y-117075000D01*
G75*
G02*
X150600000Y-117000000I0J75000D01*
G01*
X150600000Y-115675000D01*
G75*
G02*
X150675000Y-115600000I75000J0D01*
G01*
X150825000Y-115600000D01*
G75*
G02*
X150900000Y-115675000I0J-75000D01*
G01*
X150900000Y-117000000D01*
G75*
G02*
X150825000Y-117075000I-75000J0D01*
G01*
G37*
G36*
G01*
X151325000Y-117075000D02*
X151175000Y-117075000D01*
G75*
G02*
X151100000Y-117000000I0J75000D01*
G01*
X151100000Y-115675000D01*
G75*
G02*
X151175000Y-115600000I75000J0D01*
G01*
X151325000Y-115600000D01*
G75*
G02*
X151400000Y-115675000I0J-75000D01*
G01*
X151400000Y-117000000D01*
G75*
G02*
X151325000Y-117075000I-75000J0D01*
G01*
G37*
G36*
G01*
X151825000Y-117075000D02*
X151675000Y-117075000D01*
G75*
G02*
X151600000Y-117000000I0J75000D01*
G01*
X151600000Y-115675000D01*
G75*
G02*
X151675000Y-115600000I75000J0D01*
G01*
X151825000Y-115600000D01*
G75*
G02*
X151900000Y-115675000I0J-75000D01*
G01*
X151900000Y-117000000D01*
G75*
G02*
X151825000Y-117075000I-75000J0D01*
G01*
G37*
G36*
G01*
X152325000Y-117075000D02*
X152175000Y-117075000D01*
G75*
G02*
X152100000Y-117000000I0J75000D01*
G01*
X152100000Y-115675000D01*
G75*
G02*
X152175000Y-115600000I75000J0D01*
G01*
X152325000Y-115600000D01*
G75*
G02*
X152400000Y-115675000I0J-75000D01*
G01*
X152400000Y-117000000D01*
G75*
G02*
X152325000Y-117075000I-75000J0D01*
G01*
G37*
G36*
G01*
X152825000Y-117075000D02*
X152675000Y-117075000D01*
G75*
G02*
X152600000Y-117000000I0J75000D01*
G01*
X152600000Y-115675000D01*
G75*
G02*
X152675000Y-115600000I75000J0D01*
G01*
X152825000Y-115600000D01*
G75*
G02*
X152900000Y-115675000I0J-75000D01*
G01*
X152900000Y-117000000D01*
G75*
G02*
X152825000Y-117075000I-75000J0D01*
G01*
G37*
G36*
G01*
X154825000Y-117900000D02*
X153500000Y-117900000D01*
G75*
G02*
X153425000Y-117825000I0J75000D01*
G01*
X153425000Y-117675000D01*
G75*
G02*
X153500000Y-117600000I75000J0D01*
G01*
X154825000Y-117600000D01*
G75*
G02*
X154900000Y-117675000I0J-75000D01*
G01*
X154900000Y-117825000D01*
G75*
G02*
X154825000Y-117900000I-75000J0D01*
G01*
G37*
G36*
G01*
X154825000Y-118400000D02*
X153500000Y-118400000D01*
G75*
G02*
X153425000Y-118325000I0J75000D01*
G01*
X153425000Y-118175000D01*
G75*
G02*
X153500000Y-118100000I75000J0D01*
G01*
X154825000Y-118100000D01*
G75*
G02*
X154900000Y-118175000I0J-75000D01*
G01*
X154900000Y-118325000D01*
G75*
G02*
X154825000Y-118400000I-75000J0D01*
G01*
G37*
G36*
G01*
X154825000Y-118900000D02*
X153500000Y-118900000D01*
G75*
G02*
X153425000Y-118825000I0J75000D01*
G01*
X153425000Y-118675000D01*
G75*
G02*
X153500000Y-118600000I75000J0D01*
G01*
X154825000Y-118600000D01*
G75*
G02*
X154900000Y-118675000I0J-75000D01*
G01*
X154900000Y-118825000D01*
G75*
G02*
X154825000Y-118900000I-75000J0D01*
G01*
G37*
G36*
G01*
X154825000Y-119400000D02*
X153500000Y-119400000D01*
G75*
G02*
X153425000Y-119325000I0J75000D01*
G01*
X153425000Y-119175000D01*
G75*
G02*
X153500000Y-119100000I75000J0D01*
G01*
X154825000Y-119100000D01*
G75*
G02*
X154900000Y-119175000I0J-75000D01*
G01*
X154900000Y-119325000D01*
G75*
G02*
X154825000Y-119400000I-75000J0D01*
G01*
G37*
G36*
G01*
X154825000Y-119900000D02*
X153500000Y-119900000D01*
G75*
G02*
X153425000Y-119825000I0J75000D01*
G01*
X153425000Y-119675000D01*
G75*
G02*
X153500000Y-119600000I75000J0D01*
G01*
X154825000Y-119600000D01*
G75*
G02*
X154900000Y-119675000I0J-75000D01*
G01*
X154900000Y-119825000D01*
G75*
G02*
X154825000Y-119900000I-75000J0D01*
G01*
G37*
G36*
G01*
X154825000Y-120400000D02*
X153500000Y-120400000D01*
G75*
G02*
X153425000Y-120325000I0J75000D01*
G01*
X153425000Y-120175000D01*
G75*
G02*
X153500000Y-120100000I75000J0D01*
G01*
X154825000Y-120100000D01*
G75*
G02*
X154900000Y-120175000I0J-75000D01*
G01*
X154900000Y-120325000D01*
G75*
G02*
X154825000Y-120400000I-75000J0D01*
G01*
G37*
G36*
G01*
X154825000Y-120900000D02*
X153500000Y-120900000D01*
G75*
G02*
X153425000Y-120825000I0J75000D01*
G01*
X153425000Y-120675000D01*
G75*
G02*
X153500000Y-120600000I75000J0D01*
G01*
X154825000Y-120600000D01*
G75*
G02*
X154900000Y-120675000I0J-75000D01*
G01*
X154900000Y-120825000D01*
G75*
G02*
X154825000Y-120900000I-75000J0D01*
G01*
G37*
G36*
G01*
X154825000Y-121400000D02*
X153500000Y-121400000D01*
G75*
G02*
X153425000Y-121325000I0J75000D01*
G01*
X153425000Y-121175000D01*
G75*
G02*
X153500000Y-121100000I75000J0D01*
G01*
X154825000Y-121100000D01*
G75*
G02*
X154900000Y-121175000I0J-75000D01*
G01*
X154900000Y-121325000D01*
G75*
G02*
X154825000Y-121400000I-75000J0D01*
G01*
G37*
G36*
G01*
X154825000Y-121900000D02*
X153500000Y-121900000D01*
G75*
G02*
X153425000Y-121825000I0J75000D01*
G01*
X153425000Y-121675000D01*
G75*
G02*
X153500000Y-121600000I75000J0D01*
G01*
X154825000Y-121600000D01*
G75*
G02*
X154900000Y-121675000I0J-75000D01*
G01*
X154900000Y-121825000D01*
G75*
G02*
X154825000Y-121900000I-75000J0D01*
G01*
G37*
G36*
G01*
X154825000Y-122400000D02*
X153500000Y-122400000D01*
G75*
G02*
X153425000Y-122325000I0J75000D01*
G01*
X153425000Y-122175000D01*
G75*
G02*
X153500000Y-122100000I75000J0D01*
G01*
X154825000Y-122100000D01*
G75*
G02*
X154900000Y-122175000I0J-75000D01*
G01*
X154900000Y-122325000D01*
G75*
G02*
X154825000Y-122400000I-75000J0D01*
G01*
G37*
G36*
G01*
X154825000Y-122900000D02*
X153500000Y-122900000D01*
G75*
G02*
X153425000Y-122825000I0J75000D01*
G01*
X153425000Y-122675000D01*
G75*
G02*
X153500000Y-122600000I75000J0D01*
G01*
X154825000Y-122600000D01*
G75*
G02*
X154900000Y-122675000I0J-75000D01*
G01*
X154900000Y-122825000D01*
G75*
G02*
X154825000Y-122900000I-75000J0D01*
G01*
G37*
G36*
G01*
X154825000Y-123400000D02*
X153500000Y-123400000D01*
G75*
G02*
X153425000Y-123325000I0J75000D01*
G01*
X153425000Y-123175000D01*
G75*
G02*
X153500000Y-123100000I75000J0D01*
G01*
X154825000Y-123100000D01*
G75*
G02*
X154900000Y-123175000I0J-75000D01*
G01*
X154900000Y-123325000D01*
G75*
G02*
X154825000Y-123400000I-75000J0D01*
G01*
G37*
G36*
G01*
X152825000Y-125400000D02*
X152675000Y-125400000D01*
G75*
G02*
X152600000Y-125325000I0J75000D01*
G01*
X152600000Y-124000000D01*
G75*
G02*
X152675000Y-123925000I75000J0D01*
G01*
X152825000Y-123925000D01*
G75*
G02*
X152900000Y-124000000I0J-75000D01*
G01*
X152900000Y-125325000D01*
G75*
G02*
X152825000Y-125400000I-75000J0D01*
G01*
G37*
G36*
G01*
X152325000Y-125400000D02*
X152175000Y-125400000D01*
G75*
G02*
X152100000Y-125325000I0J75000D01*
G01*
X152100000Y-124000000D01*
G75*
G02*
X152175000Y-123925000I75000J0D01*
G01*
X152325000Y-123925000D01*
G75*
G02*
X152400000Y-124000000I0J-75000D01*
G01*
X152400000Y-125325000D01*
G75*
G02*
X152325000Y-125400000I-75000J0D01*
G01*
G37*
G36*
G01*
X151825000Y-125400000D02*
X151675000Y-125400000D01*
G75*
G02*
X151600000Y-125325000I0J75000D01*
G01*
X151600000Y-124000000D01*
G75*
G02*
X151675000Y-123925000I75000J0D01*
G01*
X151825000Y-123925000D01*
G75*
G02*
X151900000Y-124000000I0J-75000D01*
G01*
X151900000Y-125325000D01*
G75*
G02*
X151825000Y-125400000I-75000J0D01*
G01*
G37*
G36*
G01*
X151325000Y-125400000D02*
X151175000Y-125400000D01*
G75*
G02*
X151100000Y-125325000I0J75000D01*
G01*
X151100000Y-124000000D01*
G75*
G02*
X151175000Y-123925000I75000J0D01*
G01*
X151325000Y-123925000D01*
G75*
G02*
X151400000Y-124000000I0J-75000D01*
G01*
X151400000Y-125325000D01*
G75*
G02*
X151325000Y-125400000I-75000J0D01*
G01*
G37*
G36*
G01*
X150825000Y-125400000D02*
X150675000Y-125400000D01*
G75*
G02*
X150600000Y-125325000I0J75000D01*
G01*
X150600000Y-124000000D01*
G75*
G02*
X150675000Y-123925000I75000J0D01*
G01*
X150825000Y-123925000D01*
G75*
G02*
X150900000Y-124000000I0J-75000D01*
G01*
X150900000Y-125325000D01*
G75*
G02*
X150825000Y-125400000I-75000J0D01*
G01*
G37*
G36*
G01*
X150325000Y-125400000D02*
X150175000Y-125400000D01*
G75*
G02*
X150100000Y-125325000I0J75000D01*
G01*
X150100000Y-124000000D01*
G75*
G02*
X150175000Y-123925000I75000J0D01*
G01*
X150325000Y-123925000D01*
G75*
G02*
X150400000Y-124000000I0J-75000D01*
G01*
X150400000Y-125325000D01*
G75*
G02*
X150325000Y-125400000I-75000J0D01*
G01*
G37*
G36*
G01*
X149825000Y-125400000D02*
X149675000Y-125400000D01*
G75*
G02*
X149600000Y-125325000I0J75000D01*
G01*
X149600000Y-124000000D01*
G75*
G02*
X149675000Y-123925000I75000J0D01*
G01*
X149825000Y-123925000D01*
G75*
G02*
X149900000Y-124000000I0J-75000D01*
G01*
X149900000Y-125325000D01*
G75*
G02*
X149825000Y-125400000I-75000J0D01*
G01*
G37*
G36*
G01*
X149325000Y-125400000D02*
X149175000Y-125400000D01*
G75*
G02*
X149100000Y-125325000I0J75000D01*
G01*
X149100000Y-124000000D01*
G75*
G02*
X149175000Y-123925000I75000J0D01*
G01*
X149325000Y-123925000D01*
G75*
G02*
X149400000Y-124000000I0J-75000D01*
G01*
X149400000Y-125325000D01*
G75*
G02*
X149325000Y-125400000I-75000J0D01*
G01*
G37*
G36*
G01*
X148825000Y-125400000D02*
X148675000Y-125400000D01*
G75*
G02*
X148600000Y-125325000I0J75000D01*
G01*
X148600000Y-124000000D01*
G75*
G02*
X148675000Y-123925000I75000J0D01*
G01*
X148825000Y-123925000D01*
G75*
G02*
X148900000Y-124000000I0J-75000D01*
G01*
X148900000Y-125325000D01*
G75*
G02*
X148825000Y-125400000I-75000J0D01*
G01*
G37*
G36*
G01*
X148325000Y-125400000D02*
X148175000Y-125400000D01*
G75*
G02*
X148100000Y-125325000I0J75000D01*
G01*
X148100000Y-124000000D01*
G75*
G02*
X148175000Y-123925000I75000J0D01*
G01*
X148325000Y-123925000D01*
G75*
G02*
X148400000Y-124000000I0J-75000D01*
G01*
X148400000Y-125325000D01*
G75*
G02*
X148325000Y-125400000I-75000J0D01*
G01*
G37*
G36*
G01*
X147825000Y-125400000D02*
X147675000Y-125400000D01*
G75*
G02*
X147600000Y-125325000I0J75000D01*
G01*
X147600000Y-124000000D01*
G75*
G02*
X147675000Y-123925000I75000J0D01*
G01*
X147825000Y-123925000D01*
G75*
G02*
X147900000Y-124000000I0J-75000D01*
G01*
X147900000Y-125325000D01*
G75*
G02*
X147825000Y-125400000I-75000J0D01*
G01*
G37*
G36*
G01*
X147325000Y-125400000D02*
X147175000Y-125400000D01*
G75*
G02*
X147100000Y-125325000I0J75000D01*
G01*
X147100000Y-124000000D01*
G75*
G02*
X147175000Y-123925000I75000J0D01*
G01*
X147325000Y-123925000D01*
G75*
G02*
X147400000Y-124000000I0J-75000D01*
G01*
X147400000Y-125325000D01*
G75*
G02*
X147325000Y-125400000I-75000J0D01*
G01*
G37*
G36*
G01*
X149650000Y-72768750D02*
X149650000Y-73281250D01*
G75*
G02*
X149431250Y-73500000I-218750J0D01*
G01*
X148993750Y-73500000D01*
G75*
G02*
X148775000Y-73281250I0J218750D01*
G01*
X148775000Y-72768750D01*
G75*
G02*
X148993750Y-72550000I218750J0D01*
G01*
X149431250Y-72550000D01*
G75*
G02*
X149650000Y-72768750I0J-218750D01*
G01*
G37*
G36*
G01*
X151225000Y-72768750D02*
X151225000Y-73281250D01*
G75*
G02*
X151006250Y-73500000I-218750J0D01*
G01*
X150568750Y-73500000D01*
G75*
G02*
X150350000Y-73281250I0J218750D01*
G01*
X150350000Y-72768750D01*
G75*
G02*
X150568750Y-72550000I218750J0D01*
G01*
X151006250Y-72550000D01*
G75*
G02*
X151225000Y-72768750I0J-218750D01*
G01*
G37*
G36*
G01*
X114090000Y-72768750D02*
X114090000Y-73281250D01*
G75*
G02*
X113871250Y-73500000I-218750J0D01*
G01*
X113433750Y-73500000D01*
G75*
G02*
X113215000Y-73281250I0J218750D01*
G01*
X113215000Y-72768750D01*
G75*
G02*
X113433750Y-72550000I218750J0D01*
G01*
X113871250Y-72550000D01*
G75*
G02*
X114090000Y-72768750I0J-218750D01*
G01*
G37*
G36*
G01*
X115665000Y-72768750D02*
X115665000Y-73281250D01*
G75*
G02*
X115446250Y-73500000I-218750J0D01*
G01*
X115008750Y-73500000D01*
G75*
G02*
X114790000Y-73281250I0J218750D01*
G01*
X114790000Y-72768750D01*
G75*
G02*
X115008750Y-72550000I218750J0D01*
G01*
X115446250Y-72550000D01*
G75*
G02*
X115665000Y-72768750I0J-218750D01*
G01*
G37*
G36*
G01*
X154730000Y-72768750D02*
X154730000Y-73281250D01*
G75*
G02*
X154511250Y-73500000I-218750J0D01*
G01*
X154073750Y-73500000D01*
G75*
G02*
X153855000Y-73281250I0J218750D01*
G01*
X153855000Y-72768750D01*
G75*
G02*
X154073750Y-72550000I218750J0D01*
G01*
X154511250Y-72550000D01*
G75*
G02*
X154730000Y-72768750I0J-218750D01*
G01*
G37*
G36*
G01*
X156305000Y-72768750D02*
X156305000Y-73281250D01*
G75*
G02*
X156086250Y-73500000I-218750J0D01*
G01*
X155648750Y-73500000D01*
G75*
G02*
X155430000Y-73281250I0J218750D01*
G01*
X155430000Y-72768750D01*
G75*
G02*
X155648750Y-72550000I218750J0D01*
G01*
X156086250Y-72550000D01*
G75*
G02*
X156305000Y-72768750I0J-218750D01*
G01*
G37*
G36*
G01*
X119170000Y-72768750D02*
X119170000Y-73281250D01*
G75*
G02*
X118951250Y-73500000I-218750J0D01*
G01*
X118513750Y-73500000D01*
G75*
G02*
X118295000Y-73281250I0J218750D01*
G01*
X118295000Y-72768750D01*
G75*
G02*
X118513750Y-72550000I218750J0D01*
G01*
X118951250Y-72550000D01*
G75*
G02*
X119170000Y-72768750I0J-218750D01*
G01*
G37*
G36*
G01*
X120745000Y-72768750D02*
X120745000Y-73281250D01*
G75*
G02*
X120526250Y-73500000I-218750J0D01*
G01*
X120088750Y-73500000D01*
G75*
G02*
X119870000Y-73281250I0J218750D01*
G01*
X119870000Y-72768750D01*
G75*
G02*
X120088750Y-72550000I218750J0D01*
G01*
X120526250Y-72550000D01*
G75*
G02*
X120745000Y-72768750I0J-218750D01*
G01*
G37*
G36*
G01*
X159810000Y-72768750D02*
X159810000Y-73281250D01*
G75*
G02*
X159591250Y-73500000I-218750J0D01*
G01*
X159153750Y-73500000D01*
G75*
G02*
X158935000Y-73281250I0J218750D01*
G01*
X158935000Y-72768750D01*
G75*
G02*
X159153750Y-72550000I218750J0D01*
G01*
X159591250Y-72550000D01*
G75*
G02*
X159810000Y-72768750I0J-218750D01*
G01*
G37*
G36*
G01*
X161385000Y-72768750D02*
X161385000Y-73281250D01*
G75*
G02*
X161166250Y-73500000I-218750J0D01*
G01*
X160728750Y-73500000D01*
G75*
G02*
X160510000Y-73281250I0J218750D01*
G01*
X160510000Y-72768750D01*
G75*
G02*
X160728750Y-72550000I218750J0D01*
G01*
X161166250Y-72550000D01*
G75*
G02*
X161385000Y-72768750I0J-218750D01*
G01*
G37*
G36*
G01*
X124250000Y-72768750D02*
X124250000Y-73281250D01*
G75*
G02*
X124031250Y-73500000I-218750J0D01*
G01*
X123593750Y-73500000D01*
G75*
G02*
X123375000Y-73281250I0J218750D01*
G01*
X123375000Y-72768750D01*
G75*
G02*
X123593750Y-72550000I218750J0D01*
G01*
X124031250Y-72550000D01*
G75*
G02*
X124250000Y-72768750I0J-218750D01*
G01*
G37*
G36*
G01*
X125825000Y-72768750D02*
X125825000Y-73281250D01*
G75*
G02*
X125606250Y-73500000I-218750J0D01*
G01*
X125168750Y-73500000D01*
G75*
G02*
X124950000Y-73281250I0J218750D01*
G01*
X124950000Y-72768750D01*
G75*
G02*
X125168750Y-72550000I218750J0D01*
G01*
X125606250Y-72550000D01*
G75*
G02*
X125825000Y-72768750I0J-218750D01*
G01*
G37*
G36*
G01*
X164890000Y-72768750D02*
X164890000Y-73281250D01*
G75*
G02*
X164671250Y-73500000I-218750J0D01*
G01*
X164233750Y-73500000D01*
G75*
G02*
X164015000Y-73281250I0J218750D01*
G01*
X164015000Y-72768750D01*
G75*
G02*
X164233750Y-72550000I218750J0D01*
G01*
X164671250Y-72550000D01*
G75*
G02*
X164890000Y-72768750I0J-218750D01*
G01*
G37*
G36*
G01*
X166465000Y-72768750D02*
X166465000Y-73281250D01*
G75*
G02*
X166246250Y-73500000I-218750J0D01*
G01*
X165808750Y-73500000D01*
G75*
G02*
X165590000Y-73281250I0J218750D01*
G01*
X165590000Y-72768750D01*
G75*
G02*
X165808750Y-72550000I218750J0D01*
G01*
X166246250Y-72550000D01*
G75*
G02*
X166465000Y-72768750I0J-218750D01*
G01*
G37*
G36*
G01*
X129330000Y-72768750D02*
X129330000Y-73281250D01*
G75*
G02*
X129111250Y-73500000I-218750J0D01*
G01*
X128673750Y-73500000D01*
G75*
G02*
X128455000Y-73281250I0J218750D01*
G01*
X128455000Y-72768750D01*
G75*
G02*
X128673750Y-72550000I218750J0D01*
G01*
X129111250Y-72550000D01*
G75*
G02*
X129330000Y-72768750I0J-218750D01*
G01*
G37*
G36*
G01*
X130905000Y-72768750D02*
X130905000Y-73281250D01*
G75*
G02*
X130686250Y-73500000I-218750J0D01*
G01*
X130248750Y-73500000D01*
G75*
G02*
X130030000Y-73281250I0J218750D01*
G01*
X130030000Y-72768750D01*
G75*
G02*
X130248750Y-72550000I218750J0D01*
G01*
X130686250Y-72550000D01*
G75*
G02*
X130905000Y-72768750I0J-218750D01*
G01*
G37*
G36*
G01*
X169970000Y-72768750D02*
X169970000Y-73281250D01*
G75*
G02*
X169751250Y-73500000I-218750J0D01*
G01*
X169313750Y-73500000D01*
G75*
G02*
X169095000Y-73281250I0J218750D01*
G01*
X169095000Y-72768750D01*
G75*
G02*
X169313750Y-72550000I218750J0D01*
G01*
X169751250Y-72550000D01*
G75*
G02*
X169970000Y-72768750I0J-218750D01*
G01*
G37*
G36*
G01*
X171545000Y-72768750D02*
X171545000Y-73281250D01*
G75*
G02*
X171326250Y-73500000I-218750J0D01*
G01*
X170888750Y-73500000D01*
G75*
G02*
X170670000Y-73281250I0J218750D01*
G01*
X170670000Y-72768750D01*
G75*
G02*
X170888750Y-72550000I218750J0D01*
G01*
X171326250Y-72550000D01*
G75*
G02*
X171545000Y-72768750I0J-218750D01*
G01*
G37*
G36*
G01*
X134410000Y-72768750D02*
X134410000Y-73281250D01*
G75*
G02*
X134191250Y-73500000I-218750J0D01*
G01*
X133753750Y-73500000D01*
G75*
G02*
X133535000Y-73281250I0J218750D01*
G01*
X133535000Y-72768750D01*
G75*
G02*
X133753750Y-72550000I218750J0D01*
G01*
X134191250Y-72550000D01*
G75*
G02*
X134410000Y-72768750I0J-218750D01*
G01*
G37*
G36*
G01*
X135985000Y-72768750D02*
X135985000Y-73281250D01*
G75*
G02*
X135766250Y-73500000I-218750J0D01*
G01*
X135328750Y-73500000D01*
G75*
G02*
X135110000Y-73281250I0J218750D01*
G01*
X135110000Y-72768750D01*
G75*
G02*
X135328750Y-72550000I218750J0D01*
G01*
X135766250Y-72550000D01*
G75*
G02*
X135985000Y-72768750I0J-218750D01*
G01*
G37*
G36*
G01*
X175050000Y-72768750D02*
X175050000Y-73281250D01*
G75*
G02*
X174831250Y-73500000I-218750J0D01*
G01*
X174393750Y-73500000D01*
G75*
G02*
X174175000Y-73281250I0J218750D01*
G01*
X174175000Y-72768750D01*
G75*
G02*
X174393750Y-72550000I218750J0D01*
G01*
X174831250Y-72550000D01*
G75*
G02*
X175050000Y-72768750I0J-218750D01*
G01*
G37*
G36*
G01*
X176625000Y-72768750D02*
X176625000Y-73281250D01*
G75*
G02*
X176406250Y-73500000I-218750J0D01*
G01*
X175968750Y-73500000D01*
G75*
G02*
X175750000Y-73281250I0J218750D01*
G01*
X175750000Y-72768750D01*
G75*
G02*
X175968750Y-72550000I218750J0D01*
G01*
X176406250Y-72550000D01*
G75*
G02*
X176625000Y-72768750I0J-218750D01*
G01*
G37*
G36*
G01*
X139540500Y-72768750D02*
X139540500Y-73281250D01*
G75*
G02*
X139321750Y-73500000I-218750J0D01*
G01*
X138884250Y-73500000D01*
G75*
G02*
X138665500Y-73281250I0J218750D01*
G01*
X138665500Y-72768750D01*
G75*
G02*
X138884250Y-72550000I218750J0D01*
G01*
X139321750Y-72550000D01*
G75*
G02*
X139540500Y-72768750I0J-218750D01*
G01*
G37*
G36*
G01*
X141115500Y-72768750D02*
X141115500Y-73281250D01*
G75*
G02*
X140896750Y-73500000I-218750J0D01*
G01*
X140459250Y-73500000D01*
G75*
G02*
X140240500Y-73281250I0J218750D01*
G01*
X140240500Y-72768750D01*
G75*
G02*
X140459250Y-72550000I218750J0D01*
G01*
X140896750Y-72550000D01*
G75*
G02*
X141115500Y-72768750I0J-218750D01*
G01*
G37*
G36*
G01*
X180130000Y-72768750D02*
X180130000Y-73281250D01*
G75*
G02*
X179911250Y-73500000I-218750J0D01*
G01*
X179473750Y-73500000D01*
G75*
G02*
X179255000Y-73281250I0J218750D01*
G01*
X179255000Y-72768750D01*
G75*
G02*
X179473750Y-72550000I218750J0D01*
G01*
X179911250Y-72550000D01*
G75*
G02*
X180130000Y-72768750I0J-218750D01*
G01*
G37*
G36*
G01*
X181705000Y-72768750D02*
X181705000Y-73281250D01*
G75*
G02*
X181486250Y-73500000I-218750J0D01*
G01*
X181048750Y-73500000D01*
G75*
G02*
X180830000Y-73281250I0J218750D01*
G01*
X180830000Y-72768750D01*
G75*
G02*
X181048750Y-72550000I218750J0D01*
G01*
X181486250Y-72550000D01*
G75*
G02*
X181705000Y-72768750I0J-218750D01*
G01*
G37*
G36*
G01*
X144570000Y-72768750D02*
X144570000Y-73281250D01*
G75*
G02*
X144351250Y-73500000I-218750J0D01*
G01*
X143913750Y-73500000D01*
G75*
G02*
X143695000Y-73281250I0J218750D01*
G01*
X143695000Y-72768750D01*
G75*
G02*
X143913750Y-72550000I218750J0D01*
G01*
X144351250Y-72550000D01*
G75*
G02*
X144570000Y-72768750I0J-218750D01*
G01*
G37*
G36*
G01*
X146145000Y-72768750D02*
X146145000Y-73281250D01*
G75*
G02*
X145926250Y-73500000I-218750J0D01*
G01*
X145488750Y-73500000D01*
G75*
G02*
X145270000Y-73281250I0J218750D01*
G01*
X145270000Y-72768750D01*
G75*
G02*
X145488750Y-72550000I218750J0D01*
G01*
X145926250Y-72550000D01*
G75*
G02*
X146145000Y-72768750I0J-218750D01*
G01*
G37*
G36*
G01*
X185075000Y-111816250D02*
X185075000Y-110903750D01*
G75*
G02*
X185318750Y-110660000I243750J0D01*
G01*
X185806250Y-110660000D01*
G75*
G02*
X186050000Y-110903750I0J-243750D01*
G01*
X186050000Y-111816250D01*
G75*
G02*
X185806250Y-112060000I-243750J0D01*
G01*
X185318750Y-112060000D01*
G75*
G02*
X185075000Y-111816250I0J243750D01*
G01*
G37*
G36*
G01*
X186950000Y-111816250D02*
X186950000Y-110903750D01*
G75*
G02*
X187193750Y-110660000I243750J0D01*
G01*
X187681250Y-110660000D01*
G75*
G02*
X187925000Y-110903750I0J-243750D01*
G01*
X187925000Y-111816250D01*
G75*
G02*
X187681250Y-112060000I-243750J0D01*
G01*
X187193750Y-112060000D01*
G75*
G02*
X186950000Y-111816250I0J243750D01*
G01*
G37*
G36*
G01*
X155575000Y-130956250D02*
X155575000Y-130043750D01*
G75*
G02*
X155818750Y-129800000I243750J0D01*
G01*
X156306250Y-129800000D01*
G75*
G02*
X156550000Y-130043750I0J-243750D01*
G01*
X156550000Y-130956250D01*
G75*
G02*
X156306250Y-131200000I-243750J0D01*
G01*
X155818750Y-131200000D01*
G75*
G02*
X155575000Y-130956250I0J243750D01*
G01*
G37*
G36*
G01*
X157450000Y-130956250D02*
X157450000Y-130043750D01*
G75*
G02*
X157693750Y-129800000I243750J0D01*
G01*
X158181250Y-129800000D01*
G75*
G02*
X158425000Y-130043750I0J-243750D01*
G01*
X158425000Y-130956250D01*
G75*
G02*
X158181250Y-131200000I-243750J0D01*
G01*
X157693750Y-131200000D01*
G75*
G02*
X157450000Y-130956250I0J243750D01*
G01*
G37*
G36*
G01*
X138956250Y-110550000D02*
X138043750Y-110550000D01*
G75*
G02*
X137800000Y-110306250I0J243750D01*
G01*
X137800000Y-109818750D01*
G75*
G02*
X138043750Y-109575000I243750J0D01*
G01*
X138956250Y-109575000D01*
G75*
G02*
X139200000Y-109818750I0J-243750D01*
G01*
X139200000Y-110306250D01*
G75*
G02*
X138956250Y-110550000I-243750J0D01*
G01*
G37*
G36*
G01*
X138956250Y-112425000D02*
X138043750Y-112425000D01*
G75*
G02*
X137800000Y-112181250I0J243750D01*
G01*
X137800000Y-111693750D01*
G75*
G02*
X138043750Y-111450000I243750J0D01*
G01*
X138956250Y-111450000D01*
G75*
G02*
X139200000Y-111693750I0J-243750D01*
G01*
X139200000Y-112181250D01*
G75*
G02*
X138956250Y-112425000I-243750J0D01*
G01*
G37*
D16*
X151350000Y-131000000D03*
X147650000Y-131000000D03*
G36*
G01*
X144225000Y-126993750D02*
X144225000Y-127506250D01*
G75*
G02*
X144006250Y-127725000I-218750J0D01*
G01*
X143568750Y-127725000D01*
G75*
G02*
X143350000Y-127506250I0J218750D01*
G01*
X143350000Y-126993750D01*
G75*
G02*
X143568750Y-126775000I218750J0D01*
G01*
X144006250Y-126775000D01*
G75*
G02*
X144225000Y-126993750I0J-218750D01*
G01*
G37*
G36*
G01*
X142650000Y-126993750D02*
X142650000Y-127506250D01*
G75*
G02*
X142431250Y-127725000I-218750J0D01*
G01*
X141993750Y-127725000D01*
G75*
G02*
X141775000Y-127506250I0J218750D01*
G01*
X141775000Y-126993750D01*
G75*
G02*
X141993750Y-126775000I218750J0D01*
G01*
X142431250Y-126775000D01*
G75*
G02*
X142650000Y-126993750I0J-218750D01*
G01*
G37*
G36*
G01*
X166006250Y-84487500D02*
X165493750Y-84487500D01*
G75*
G02*
X165275000Y-84268750I0J218750D01*
G01*
X165275000Y-83831250D01*
G75*
G02*
X165493750Y-83612500I218750J0D01*
G01*
X166006250Y-83612500D01*
G75*
G02*
X166225000Y-83831250I0J-218750D01*
G01*
X166225000Y-84268750D01*
G75*
G02*
X166006250Y-84487500I-218750J0D01*
G01*
G37*
G36*
G01*
X166006250Y-82912500D02*
X165493750Y-82912500D01*
G75*
G02*
X165275000Y-82693750I0J218750D01*
G01*
X165275000Y-82256250D01*
G75*
G02*
X165493750Y-82037500I218750J0D01*
G01*
X166006250Y-82037500D01*
G75*
G02*
X166225000Y-82256250I0J-218750D01*
G01*
X166225000Y-82693750D01*
G75*
G02*
X166006250Y-82912500I-218750J0D01*
G01*
G37*
G36*
G01*
X155775000Y-134506250D02*
X155775000Y-133993750D01*
G75*
G02*
X155993750Y-133775000I218750J0D01*
G01*
X156431250Y-133775000D01*
G75*
G02*
X156650000Y-133993750I0J-218750D01*
G01*
X156650000Y-134506250D01*
G75*
G02*
X156431250Y-134725000I-218750J0D01*
G01*
X155993750Y-134725000D01*
G75*
G02*
X155775000Y-134506250I0J218750D01*
G01*
G37*
G36*
G01*
X157350000Y-134506250D02*
X157350000Y-133993750D01*
G75*
G02*
X157568750Y-133775000I218750J0D01*
G01*
X158006250Y-133775000D01*
G75*
G02*
X158225000Y-133993750I0J-218750D01*
G01*
X158225000Y-134506250D01*
G75*
G02*
X158006250Y-134725000I-218750J0D01*
G01*
X157568750Y-134725000D01*
G75*
G02*
X157350000Y-134506250I0J218750D01*
G01*
G37*
G36*
G01*
X180160000Y-113103750D02*
X180160000Y-113616250D01*
G75*
G02*
X179941250Y-113835000I-218750J0D01*
G01*
X179503750Y-113835000D01*
G75*
G02*
X179285000Y-113616250I0J218750D01*
G01*
X179285000Y-113103750D01*
G75*
G02*
X179503750Y-112885000I218750J0D01*
G01*
X179941250Y-112885000D01*
G75*
G02*
X180160000Y-113103750I0J-218750D01*
G01*
G37*
G36*
G01*
X181735000Y-113103750D02*
X181735000Y-113616250D01*
G75*
G02*
X181516250Y-113835000I-218750J0D01*
G01*
X181078750Y-113835000D01*
G75*
G02*
X180860000Y-113616250I0J218750D01*
G01*
X180860000Y-113103750D01*
G75*
G02*
X181078750Y-112885000I218750J0D01*
G01*
X181516250Y-112885000D01*
G75*
G02*
X181735000Y-113103750I0J-218750D01*
G01*
G37*
G36*
G01*
X155775000Y-114006250D02*
X155775000Y-113493750D01*
G75*
G02*
X155993750Y-113275000I218750J0D01*
G01*
X156431250Y-113275000D01*
G75*
G02*
X156650000Y-113493750I0J-218750D01*
G01*
X156650000Y-114006250D01*
G75*
G02*
X156431250Y-114225000I-218750J0D01*
G01*
X155993750Y-114225000D01*
G75*
G02*
X155775000Y-114006250I0J218750D01*
G01*
G37*
G36*
G01*
X157350000Y-114006250D02*
X157350000Y-113493750D01*
G75*
G02*
X157568750Y-113275000I218750J0D01*
G01*
X158006250Y-113275000D01*
G75*
G02*
X158225000Y-113493750I0J-218750D01*
G01*
X158225000Y-114006250D01*
G75*
G02*
X158006250Y-114225000I-218750J0D01*
G01*
X157568750Y-114225000D01*
G75*
G02*
X157350000Y-114006250I0J218750D01*
G01*
G37*
D17*
X163250000Y-98000000D03*
X161250000Y-98950000D03*
X161250000Y-97050000D03*
G36*
G01*
X186850000Y-113616250D02*
X186850000Y-113103750D01*
G75*
G02*
X187068750Y-112885000I218750J0D01*
G01*
X187506250Y-112885000D01*
G75*
G02*
X187725000Y-113103750I0J-218750D01*
G01*
X187725000Y-113616250D01*
G75*
G02*
X187506250Y-113835000I-218750J0D01*
G01*
X187068750Y-113835000D01*
G75*
G02*
X186850000Y-113616250I0J218750D01*
G01*
G37*
G36*
G01*
X185275000Y-113616250D02*
X185275000Y-113103750D01*
G75*
G02*
X185493750Y-112885000I218750J0D01*
G01*
X185931250Y-112885000D01*
G75*
G02*
X186150000Y-113103750I0J-218750D01*
G01*
X186150000Y-113616250D01*
G75*
G02*
X185931250Y-113835000I-218750J0D01*
G01*
X185493750Y-113835000D01*
G75*
G02*
X185275000Y-113616250I0J218750D01*
G01*
G37*
G36*
G01*
X140756250Y-110650000D02*
X140243750Y-110650000D01*
G75*
G02*
X140025000Y-110431250I0J218750D01*
G01*
X140025000Y-109993750D01*
G75*
G02*
X140243750Y-109775000I218750J0D01*
G01*
X140756250Y-109775000D01*
G75*
G02*
X140975000Y-109993750I0J-218750D01*
G01*
X140975000Y-110431250D01*
G75*
G02*
X140756250Y-110650000I-218750J0D01*
G01*
G37*
G36*
G01*
X140756250Y-112225000D02*
X140243750Y-112225000D01*
G75*
G02*
X140025000Y-112006250I0J218750D01*
G01*
X140025000Y-111568750D01*
G75*
G02*
X140243750Y-111350000I218750J0D01*
G01*
X140756250Y-111350000D01*
G75*
G02*
X140975000Y-111568750I0J-218750D01*
G01*
X140975000Y-112006250D01*
G75*
G02*
X140756250Y-112225000I-218750J0D01*
G01*
G37*
G36*
G01*
X126256250Y-110650000D02*
X125743750Y-110650000D01*
G75*
G02*
X125525000Y-110431250I0J218750D01*
G01*
X125525000Y-109993750D01*
G75*
G02*
X125743750Y-109775000I218750J0D01*
G01*
X126256250Y-109775000D01*
G75*
G02*
X126475000Y-109993750I0J-218750D01*
G01*
X126475000Y-110431250D01*
G75*
G02*
X126256250Y-110650000I-218750J0D01*
G01*
G37*
G36*
G01*
X126256250Y-112225000D02*
X125743750Y-112225000D01*
G75*
G02*
X125525000Y-112006250I0J218750D01*
G01*
X125525000Y-111568750D01*
G75*
G02*
X125743750Y-111350000I218750J0D01*
G01*
X126256250Y-111350000D01*
G75*
G02*
X126475000Y-111568750I0J-218750D01*
G01*
X126475000Y-112006250D01*
G75*
G02*
X126256250Y-112225000I-218750J0D01*
G01*
G37*
G36*
G01*
X152355000Y-133993750D02*
X152355000Y-134506250D01*
G75*
G02*
X152136250Y-134725000I-218750J0D01*
G01*
X151698750Y-134725000D01*
G75*
G02*
X151480000Y-134506250I0J218750D01*
G01*
X151480000Y-133993750D01*
G75*
G02*
X151698750Y-133775000I218750J0D01*
G01*
X152136250Y-133775000D01*
G75*
G02*
X152355000Y-133993750I0J-218750D01*
G01*
G37*
G36*
G01*
X150780000Y-133993750D02*
X150780000Y-134506250D01*
G75*
G02*
X150561250Y-134725000I-218750J0D01*
G01*
X150123750Y-134725000D01*
G75*
G02*
X149905000Y-134506250I0J218750D01*
G01*
X149905000Y-133993750D01*
G75*
G02*
X150123750Y-133775000I218750J0D01*
G01*
X150561250Y-133775000D01*
G75*
G02*
X150780000Y-133993750I0J-218750D01*
G01*
G37*
G36*
G01*
X146666500Y-134506250D02*
X146666500Y-133993750D01*
G75*
G02*
X146885250Y-133775000I218750J0D01*
G01*
X147322750Y-133775000D01*
G75*
G02*
X147541500Y-133993750I0J-218750D01*
G01*
X147541500Y-134506250D01*
G75*
G02*
X147322750Y-134725000I-218750J0D01*
G01*
X146885250Y-134725000D01*
G75*
G02*
X146666500Y-134506250I0J218750D01*
G01*
G37*
G36*
G01*
X148241500Y-134506250D02*
X148241500Y-133993750D01*
G75*
G02*
X148460250Y-133775000I218750J0D01*
G01*
X148897750Y-133775000D01*
G75*
G02*
X149116500Y-133993750I0J-218750D01*
G01*
X149116500Y-134506250D01*
G75*
G02*
X148897750Y-134725000I-218750J0D01*
G01*
X148460250Y-134725000D01*
G75*
G02*
X148241500Y-134506250I0J218750D01*
G01*
G37*
G36*
G01*
X167000000Y-99755000D02*
X167000000Y-100055000D01*
G75*
G02*
X166850000Y-100205000I-150000J0D01*
G01*
X165200000Y-100205000D01*
G75*
G02*
X165050000Y-100055000I0J150000D01*
G01*
X165050000Y-99755000D01*
G75*
G02*
X165200000Y-99605000I150000J0D01*
G01*
X166850000Y-99605000D01*
G75*
G02*
X167000000Y-99755000I0J-150000D01*
G01*
G37*
G36*
G01*
X167000000Y-98485000D02*
X167000000Y-98785000D01*
G75*
G02*
X166850000Y-98935000I-150000J0D01*
G01*
X165200000Y-98935000D01*
G75*
G02*
X165050000Y-98785000I0J150000D01*
G01*
X165050000Y-98485000D01*
G75*
G02*
X165200000Y-98335000I150000J0D01*
G01*
X166850000Y-98335000D01*
G75*
G02*
X167000000Y-98485000I0J-150000D01*
G01*
G37*
G36*
G01*
X167000000Y-97215000D02*
X167000000Y-97515000D01*
G75*
G02*
X166850000Y-97665000I-150000J0D01*
G01*
X165200000Y-97665000D01*
G75*
G02*
X165050000Y-97515000I0J150000D01*
G01*
X165050000Y-97215000D01*
G75*
G02*
X165200000Y-97065000I150000J0D01*
G01*
X166850000Y-97065000D01*
G75*
G02*
X167000000Y-97215000I0J-150000D01*
G01*
G37*
G36*
G01*
X167000000Y-95945000D02*
X167000000Y-96245000D01*
G75*
G02*
X166850000Y-96395000I-150000J0D01*
G01*
X165200000Y-96395000D01*
G75*
G02*
X165050000Y-96245000I0J150000D01*
G01*
X165050000Y-95945000D01*
G75*
G02*
X165200000Y-95795000I150000J0D01*
G01*
X166850000Y-95795000D01*
G75*
G02*
X167000000Y-95945000I0J-150000D01*
G01*
G37*
G36*
G01*
X171950000Y-95945000D02*
X171950000Y-96245000D01*
G75*
G02*
X171800000Y-96395000I-150000J0D01*
G01*
X170150000Y-96395000D01*
G75*
G02*
X170000000Y-96245000I0J150000D01*
G01*
X170000000Y-95945000D01*
G75*
G02*
X170150000Y-95795000I150000J0D01*
G01*
X171800000Y-95795000D01*
G75*
G02*
X171950000Y-95945000I0J-150000D01*
G01*
G37*
G36*
G01*
X171950000Y-97215000D02*
X171950000Y-97515000D01*
G75*
G02*
X171800000Y-97665000I-150000J0D01*
G01*
X170150000Y-97665000D01*
G75*
G02*
X170000000Y-97515000I0J150000D01*
G01*
X170000000Y-97215000D01*
G75*
G02*
X170150000Y-97065000I150000J0D01*
G01*
X171800000Y-97065000D01*
G75*
G02*
X171950000Y-97215000I0J-150000D01*
G01*
G37*
G36*
G01*
X171950000Y-98485000D02*
X171950000Y-98785000D01*
G75*
G02*
X171800000Y-98935000I-150000J0D01*
G01*
X170150000Y-98935000D01*
G75*
G02*
X170000000Y-98785000I0J150000D01*
G01*
X170000000Y-98485000D01*
G75*
G02*
X170150000Y-98335000I150000J0D01*
G01*
X171800000Y-98335000D01*
G75*
G02*
X171950000Y-98485000I0J-150000D01*
G01*
G37*
G36*
G01*
X171950000Y-99755000D02*
X171950000Y-100055000D01*
G75*
G02*
X171800000Y-100205000I-150000J0D01*
G01*
X170150000Y-100205000D01*
G75*
G02*
X170000000Y-100055000I0J150000D01*
G01*
X170000000Y-99755000D01*
G75*
G02*
X170150000Y-99605000I150000J0D01*
G01*
X171800000Y-99605000D01*
G75*
G02*
X171950000Y-99755000I0J-150000D01*
G01*
G37*
G36*
G01*
X186785000Y-72768750D02*
X186785000Y-73281250D01*
G75*
G02*
X186566250Y-73500000I-218750J0D01*
G01*
X186128750Y-73500000D01*
G75*
G02*
X185910000Y-73281250I0J218750D01*
G01*
X185910000Y-72768750D01*
G75*
G02*
X186128750Y-72550000I218750J0D01*
G01*
X186566250Y-72550000D01*
G75*
G02*
X186785000Y-72768750I0J-218750D01*
G01*
G37*
G36*
G01*
X185210000Y-72768750D02*
X185210000Y-73281250D01*
G75*
G02*
X184991250Y-73500000I-218750J0D01*
G01*
X184553750Y-73500000D01*
G75*
G02*
X184335000Y-73281250I0J218750D01*
G01*
X184335000Y-72768750D01*
G75*
G02*
X184553750Y-72550000I218750J0D01*
G01*
X184991250Y-72550000D01*
G75*
G02*
X185210000Y-72768750I0J-218750D01*
G01*
G37*
G36*
G01*
X181735000Y-119243750D02*
X181735000Y-119756250D01*
G75*
G02*
X181516250Y-119975000I-218750J0D01*
G01*
X181078750Y-119975000D01*
G75*
G02*
X180860000Y-119756250I0J218750D01*
G01*
X180860000Y-119243750D01*
G75*
G02*
X181078750Y-119025000I218750J0D01*
G01*
X181516250Y-119025000D01*
G75*
G02*
X181735000Y-119243750I0J-218750D01*
G01*
G37*
G36*
G01*
X180160000Y-119243750D02*
X180160000Y-119756250D01*
G75*
G02*
X179941250Y-119975000I-218750J0D01*
G01*
X179503750Y-119975000D01*
G75*
G02*
X179285000Y-119756250I0J218750D01*
G01*
X179285000Y-119243750D01*
G75*
G02*
X179503750Y-119025000I218750J0D01*
G01*
X179941250Y-119025000D01*
G75*
G02*
X180160000Y-119243750I0J-218750D01*
G01*
G37*
X179510000Y-116710000D03*
X181510000Y-115760000D03*
X181510000Y-117660000D03*
G36*
G01*
X167475000Y-103493750D02*
X167475000Y-104006250D01*
G75*
G02*
X167256250Y-104225000I-218750J0D01*
G01*
X166818750Y-104225000D01*
G75*
G02*
X166600000Y-104006250I0J218750D01*
G01*
X166600000Y-103493750D01*
G75*
G02*
X166818750Y-103275000I218750J0D01*
G01*
X167256250Y-103275000D01*
G75*
G02*
X167475000Y-103493750I0J-218750D01*
G01*
G37*
G36*
G01*
X165900000Y-103493750D02*
X165900000Y-104006250D01*
G75*
G02*
X165681250Y-104225000I-218750J0D01*
G01*
X165243750Y-104225000D01*
G75*
G02*
X165025000Y-104006250I0J218750D01*
G01*
X165025000Y-103493750D01*
G75*
G02*
X165243750Y-103275000I218750J0D01*
G01*
X165681250Y-103275000D01*
G75*
G02*
X165900000Y-103493750I0J-218750D01*
G01*
G37*
G36*
G01*
X149743750Y-82037500D02*
X150256250Y-82037500D01*
G75*
G02*
X150475000Y-82256250I0J-218750D01*
G01*
X150475000Y-82693750D01*
G75*
G02*
X150256250Y-82912500I-218750J0D01*
G01*
X149743750Y-82912500D01*
G75*
G02*
X149525000Y-82693750I0J218750D01*
G01*
X149525000Y-82256250D01*
G75*
G02*
X149743750Y-82037500I218750J0D01*
G01*
G37*
G36*
G01*
X149743750Y-83612500D02*
X150256250Y-83612500D01*
G75*
G02*
X150475000Y-83831250I0J-218750D01*
G01*
X150475000Y-84268750D01*
G75*
G02*
X150256250Y-84487500I-218750J0D01*
G01*
X149743750Y-84487500D01*
G75*
G02*
X149525000Y-84268750I0J218750D01*
G01*
X149525000Y-83831250D01*
G75*
G02*
X149743750Y-83612500I218750J0D01*
G01*
G37*
G36*
G01*
X163743750Y-82037500D02*
X164256250Y-82037500D01*
G75*
G02*
X164475000Y-82256250I0J-218750D01*
G01*
X164475000Y-82693750D01*
G75*
G02*
X164256250Y-82912500I-218750J0D01*
G01*
X163743750Y-82912500D01*
G75*
G02*
X163525000Y-82693750I0J218750D01*
G01*
X163525000Y-82256250D01*
G75*
G02*
X163743750Y-82037500I218750J0D01*
G01*
G37*
G36*
G01*
X163743750Y-83612500D02*
X164256250Y-83612500D01*
G75*
G02*
X164475000Y-83831250I0J-218750D01*
G01*
X164475000Y-84268750D01*
G75*
G02*
X164256250Y-84487500I-218750J0D01*
G01*
X163743750Y-84487500D01*
G75*
G02*
X163525000Y-84268750I0J218750D01*
G01*
X163525000Y-83831250D01*
G75*
G02*
X163743750Y-83612500I218750J0D01*
G01*
G37*
G36*
G01*
X155775000Y-127506250D02*
X155775000Y-126993750D01*
G75*
G02*
X155993750Y-126775000I218750J0D01*
G01*
X156431250Y-126775000D01*
G75*
G02*
X156650000Y-126993750I0J-218750D01*
G01*
X156650000Y-127506250D01*
G75*
G02*
X156431250Y-127725000I-218750J0D01*
G01*
X155993750Y-127725000D01*
G75*
G02*
X155775000Y-127506250I0J218750D01*
G01*
G37*
G36*
G01*
X157350000Y-127506250D02*
X157350000Y-126993750D01*
G75*
G02*
X157568750Y-126775000I218750J0D01*
G01*
X158006250Y-126775000D01*
G75*
G02*
X158225000Y-126993750I0J-218750D01*
G01*
X158225000Y-127506250D01*
G75*
G02*
X158006250Y-127725000I-218750J0D01*
G01*
X157568750Y-127725000D01*
G75*
G02*
X157350000Y-127506250I0J218750D01*
G01*
G37*
G36*
G01*
X155775000Y-115756250D02*
X155775000Y-115243750D01*
G75*
G02*
X155993750Y-115025000I218750J0D01*
G01*
X156431250Y-115025000D01*
G75*
G02*
X156650000Y-115243750I0J-218750D01*
G01*
X156650000Y-115756250D01*
G75*
G02*
X156431250Y-115975000I-218750J0D01*
G01*
X155993750Y-115975000D01*
G75*
G02*
X155775000Y-115756250I0J218750D01*
G01*
G37*
G36*
G01*
X157350000Y-115756250D02*
X157350000Y-115243750D01*
G75*
G02*
X157568750Y-115025000I218750J0D01*
G01*
X158006250Y-115025000D01*
G75*
G02*
X158225000Y-115243750I0J-218750D01*
G01*
X158225000Y-115756250D01*
G75*
G02*
X158006250Y-115975000I-218750J0D01*
G01*
X157568750Y-115975000D01*
G75*
G02*
X157350000Y-115756250I0J218750D01*
G01*
G37*
G36*
G01*
X155775000Y-125756250D02*
X155775000Y-125243750D01*
G75*
G02*
X155993750Y-125025000I218750J0D01*
G01*
X156431250Y-125025000D01*
G75*
G02*
X156650000Y-125243750I0J-218750D01*
G01*
X156650000Y-125756250D01*
G75*
G02*
X156431250Y-125975000I-218750J0D01*
G01*
X155993750Y-125975000D01*
G75*
G02*
X155775000Y-125756250I0J218750D01*
G01*
G37*
G36*
G01*
X157350000Y-125756250D02*
X157350000Y-125243750D01*
G75*
G02*
X157568750Y-125025000I218750J0D01*
G01*
X158006250Y-125025000D01*
G75*
G02*
X158225000Y-125243750I0J-218750D01*
G01*
X158225000Y-125756250D01*
G75*
G02*
X158006250Y-125975000I-218750J0D01*
G01*
X157568750Y-125975000D01*
G75*
G02*
X157350000Y-125756250I0J218750D01*
G01*
G37*
G36*
G01*
X144225000Y-125243750D02*
X144225000Y-125756250D01*
G75*
G02*
X144006250Y-125975000I-218750J0D01*
G01*
X143568750Y-125975000D01*
G75*
G02*
X143350000Y-125756250I0J218750D01*
G01*
X143350000Y-125243750D01*
G75*
G02*
X143568750Y-125025000I218750J0D01*
G01*
X144006250Y-125025000D01*
G75*
G02*
X144225000Y-125243750I0J-218750D01*
G01*
G37*
G36*
G01*
X142650000Y-125243750D02*
X142650000Y-125756250D01*
G75*
G02*
X142431250Y-125975000I-218750J0D01*
G01*
X141993750Y-125975000D01*
G75*
G02*
X141775000Y-125756250I0J218750D01*
G01*
X141775000Y-125243750D01*
G75*
G02*
X141993750Y-125025000I218750J0D01*
G01*
X142431250Y-125025000D01*
G75*
G02*
X142650000Y-125243750I0J-218750D01*
G01*
G37*
G36*
G01*
X144225000Y-115243750D02*
X144225000Y-115756250D01*
G75*
G02*
X144006250Y-115975000I-218750J0D01*
G01*
X143568750Y-115975000D01*
G75*
G02*
X143350000Y-115756250I0J218750D01*
G01*
X143350000Y-115243750D01*
G75*
G02*
X143568750Y-115025000I218750J0D01*
G01*
X144006250Y-115025000D01*
G75*
G02*
X144225000Y-115243750I0J-218750D01*
G01*
G37*
G36*
G01*
X142650000Y-115243750D02*
X142650000Y-115756250D01*
G75*
G02*
X142431250Y-115975000I-218750J0D01*
G01*
X141993750Y-115975000D01*
G75*
G02*
X141775000Y-115756250I0J218750D01*
G01*
X141775000Y-115243750D01*
G75*
G02*
X141993750Y-115025000I218750J0D01*
G01*
X142431250Y-115025000D01*
G75*
G02*
X142650000Y-115243750I0J-218750D01*
G01*
G37*
M02*
