M48
; DRILL file {KiCad (5.1.8)-1} date 01/06/21 22:06:40
; FORMAT={-:-/ absolute / inch / decimal}
; #@! TF.CreationDate,2021-01-06T22:06:40-05:00
; #@! TF.GenerationSoftware,Kicad,Pcbnew,(5.1.8)-1
FMAT,2
INCH
T1C0.0118
T2C0.0354
T3C0.0394
T4C0.0669
T5C0.0454
T6C0.1260
T7C0.1299
%
G90
G05
T1
X3.983Y-2.7605
X3.983Y-3.1069
X3.983Y-3.4534
X3.983Y-3.7998
X3.983Y-4.1463
X3.983Y-4.4928
X3.983Y-4.8392
X3.983Y-5.1857
X3.983Y-5.5321
X4.172Y-2.603
X4.172Y-3.2644
X4.172Y-3.6109
X4.172Y-3.9573
X4.172Y-4.3038
X4.172Y-4.6502
X4.172Y-4.9967
X4.172Y-5.3431
X4.2035Y-2.918
X4.2035Y-5.6581
X4.3609Y-3.1069
X4.3609Y-3.4534
X4.3609Y-3.7998
X4.3609Y-4.1463
X4.3609Y-4.4928
X4.3609Y-4.8392
X4.3609Y-5.1857
X4.4554Y-2.666
X4.5499Y-2.9494
X4.5499Y-3.6424
X4.5499Y-3.9888
X4.5499Y-4.3353
X4.5499Y-5.0282
X4.5814Y-5.3431
X4.6129Y-5.6581
X4.7389Y-2.603
X4.7389Y-3.1069
X4.7389Y-3.4534
X4.7389Y-3.7998
X4.7389Y-4.1463
X4.7389Y-4.4928
X4.7389Y-4.8392
X4.7704Y-5.1542
X4.8334Y-2.855
X4.9279Y-3.2644
X4.9279Y-3.6109
X4.9279Y-3.9573
X4.9279Y-4.6502
X4.9594Y-4.9652
X4.9594Y-5.6581
X4.9606Y-4.3012
X4.9909Y-5.2802
X5.0197Y-4.2598
X5.0224Y-2.666
X5.0492Y-4.2598
X5.0539Y-3.0439
X5.0787Y-4.1024
X5.0787Y-4.1417
X5.0787Y-4.1811
X5.0787Y-4.2205
X5.0787Y-4.2598
X5.1169Y-3.4219
X5.1181Y-4.1024
X5.1181Y-4.1417
X5.1181Y-4.1811
X5.1181Y-4.2205
X5.1181Y-4.2598
X5.1483Y-4.7762
X5.1575Y-4.1024
X5.1575Y-4.1417
X5.1575Y-4.1811
X5.1575Y-4.2205
X5.1575Y-4.2598
X5.1575Y-4.3386
X5.1575Y-4.378
X5.1575Y-4.4173
X5.1798Y-3.7054
X5.1798Y-5.0912
X5.1969Y-4.1024
X5.1969Y-4.1417
X5.1969Y-4.1811
X5.1969Y-4.3386
X5.1969Y-4.378
X5.1969Y-4.4173
X5.2113Y-2.8235
X5.2113Y-4.0518
X5.2362Y-4.1024
X5.2362Y-4.1417
X5.2362Y-4.1811
X5.2362Y-4.3386
X5.2362Y-4.378
X5.2362Y-4.4173
X5.2428Y-3.2014
X5.2726Y-3.937
X5.2726Y-3.9764
X5.2726Y-4.0157
X5.2743Y-5.6266
X5.2756Y-4.1024
X5.2756Y-4.1417
X5.2756Y-4.1811
X5.2756Y-4.3386
X5.2756Y-4.378
X5.2756Y-4.4173
X5.3071Y-3.9026
X5.3071Y-4.0502
X5.315Y-4.1024
X5.315Y-4.1417
X5.315Y-4.1811
X5.315Y-4.3386
X5.315Y-4.378
X5.315Y-4.4173
X5.3373Y-2.603
X5.3373Y-4.5872
X5.3465Y-3.9026
X5.3465Y-4.0502
X5.3543Y-4.1024
X5.3543Y-4.1417
X5.3543Y-4.1811
X5.3543Y-4.2205
X5.3543Y-4.2598
X5.3543Y-4.3386
X5.3543Y-4.378
X5.3543Y-4.4173
X5.3688Y-3.5164
X5.3858Y-3.9026
X5.3858Y-4.0502
X5.3937Y-4.1024
X5.3937Y-4.1417
X5.3937Y-4.1811
X5.3937Y-4.2205
X5.3937Y-4.2598
X5.4003Y-3.8313
X5.4134Y-3.0522
X5.4203Y-3.937
X5.4203Y-3.9764
X5.4203Y-4.0157
X5.4318Y-5.3746
X5.4331Y-4.1024
X5.4331Y-4.1417
X5.4331Y-4.1811
X5.4331Y-4.2205
X5.4331Y-4.2598
X5.4331Y-4.2913
X5.4724Y-4.2913
X5.5263Y-3.1384
X5.5315Y-4.3012
X5.5578Y-2.8235
X5.5578Y-4.0203
X5.5578Y-5.0597
X5.561Y-4.5472
X5.561Y-4.9409
X5.561Y-5.0098
X5.5893Y-3.6424
X5.5893Y-4.3668
X5.5893Y-5.5636
X5.6496Y-5.3675
X5.6523Y-3.3589
X5.6838Y-2.603
X5.6929Y-4.8425
X5.6988Y-5.1476
X5.6988Y-5.2854
X5.701Y-5.04
X5.7244Y-4.6063
X5.7468Y-4.1778
X5.7549Y-3.3071
X5.7904Y-4.7736
X5.8098Y-3.8628
X5.8098Y-4.7132
X5.8169Y-4.5314
X5.8366Y-4.629
X5.8413Y-2.918
X5.8413Y-3.5164
X5.8413Y-5.6581
X5.8415Y-5.0197
X5.8661Y-3.0906
X5.885Y-4.66
X5.8858Y-5.3346
X5.9043Y-3.2014
X5.9055Y-3.3469
X5.9301Y-5.0197
X5.935Y-4.8591
X5.9357Y-4.3353
X5.95Y-3.21
X5.9646Y-3.0522
X5.9672Y-2.666
X5.9987Y-3.7054
X5.9987Y-4.0518
X6.0206Y-4.7146
X6.063Y-4.949
X6.0932Y-3.4219
X6.0932Y-5.5636
X6.1182Y-4.6457
X6.1247Y-4.9022
X6.1562Y-2.8235
X6.1877Y-3.1384
X6.1877Y-3.8943
X6.1877Y-4.2408
X6.2192Y-4.6502
X6.25Y-4.5472
X6.25Y-4.9409
X6.25Y-5.0098
X6.25Y-5.2854
X6.2507Y-3.6109
X6.2507Y-5.2172
X6.2598Y-5.123
X6.2598Y-5.1526
X6.2822Y-2.603
X6.3061Y-3.3071
X6.3452Y-5.4691
X6.3767Y-4.0518
X6.3767Y-4.4613
X6.3878Y-3.8583
X6.4082Y-3.2959
X6.4173Y-3.0906
X6.4397Y-3.7683
X6.4567Y-3.3469
X6.4712Y-4.9652
X6.4724Y-3.8583
X6.4764Y-4.0157
X6.4764Y-4.0846
X6.5027Y-3.0439
X6.5027Y-5.6581
X6.5256Y-3.3469
X6.5342Y-3.5164
X6.5342Y-4.2408
X6.5342Y-5.2802
X6.5657Y-2.666
X6.6287Y-3.9258
X6.6602Y-4.8077
X6.6917Y-5.4691
X6.7185Y-3.4941
X6.7231Y-3.1699
X6.7231Y-3.6739
X6.7231Y-5.0912
X6.7546Y-2.8235
X6.7913Y-3.8833
X6.8491Y-5.6581
X6.8806Y-2.603
X6.8806Y-5.2802
X6.9121Y-3.3274
X6.9121Y-4.6817
X6.9751Y-2.9494
X6.9751Y-4.9652
X6.995Y-4.555
X7.0066Y-3.5794
X7.0079Y-4.7047
X7.0079Y-4.8075
X7.0079Y-4.8764
X7.0381Y-5.4691
X7.1011Y-3.1699
X7.1326Y-5.1542
X7.1641Y-2.666
X7.1956Y-3.4219
X7.1956Y-5.6581
X7.2047Y-3.6441
X7.2047Y-3.7071
X7.2047Y-3.7701
X7.2047Y-3.8331
X7.2047Y-3.8961
X7.2047Y-3.9591
X7.2047Y-4.022
X7.2047Y-4.085
X7.2047Y-4.148
X7.2047Y-4.211
X7.2047Y-4.274
X7.2047Y-4.337
X7.2047Y-4.4
X7.2047Y-4.463
X7.2047Y-4.589
X7.2047Y-4.652
X7.2047Y-4.715
X7.2047Y-4.8409
X7.2244Y-3.6126
X7.2244Y-3.6756
X7.2244Y-3.8646
X7.2244Y-3.9276
X7.2244Y-3.9906
X7.2244Y-4.0535
X7.2244Y-4.1165
X7.2244Y-4.1795
X7.2244Y-4.2425
X7.2244Y-4.3055
X7.2244Y-4.3685
X7.2244Y-4.4315
X7.2244Y-4.4945
X7.2244Y-4.5575
X7.2244Y-4.6205
X7.2244Y-4.6835
X7.2244Y-4.7465
X7.2244Y-4.8094
X7.2586Y-4.9022
X7.2901Y-2.9809
X7.2901Y-5.3431
X7.3216Y-3.6424
X7.3216Y-3.9888
X7.3216Y-4.3353
X7.3846Y-3.2329
X7.4114Y-4.463
X7.4114Y-4.5319
X7.4114Y-4.6008
X7.4114Y-4.6697
X7.4114Y-4.7386
X7.4114Y-4.8075
X7.4114Y-4.8764
X7.4161Y-5.0912
X7.4213Y-4.3695
X7.4213Y-4.399
X7.4476Y-2.603
X7.4791Y-4.5243
X7.5106Y-3.4534
X7.5106Y-3.7998
X7.5106Y-4.1463
X7.542Y-2.855
X7.542Y-4.8077
X7.5735Y-5.2802
X7.668Y-4.3353
X7.668Y-5.6581
X7.6995Y-3.2014
X7.6995Y-3.6109
X7.6995Y-3.9573
X7.6995Y-4.9967
X7.731Y-4.6187
X7.7625Y-2.666
X7.794Y-5.4061
X7.8255Y-2.9494
T2
X5.6555Y-2.7559
X5.7555Y-2.7559
X6.8555Y-2.7559
X6.9555Y-2.7559
X4.8555Y-2.7559
X4.9555Y-2.7559
X4.4555Y-2.7559
X4.5555Y-2.7559
X6.4555Y-2.7559
X6.5555Y-2.7559
X6.6555Y-2.7559
X6.7555Y-2.7559
X5.2555Y-2.7559
X5.3555Y-2.7559
X7.0555Y-2.7559
X7.1555Y-2.7559
X7.2555Y-2.7559
X7.3555Y-2.7559
X5.4555Y-2.7559
X5.5555Y-2.7559
X6.0555Y-2.7559
X6.1555Y-2.7559
X6.2555Y-2.7559
X6.3555Y-2.7559
X4.6555Y-2.7559
X4.7555Y-2.7559
X5.8555Y-2.7559
X5.9555Y-2.7559
X5.0555Y-2.7559
X5.1555Y-2.7559
T3
X5.0669Y-5.4618
X5.0669Y-5.5618
X5.1669Y-5.4618
X5.1669Y-5.5618
X5.2669Y-5.4618
X5.2669Y-5.5618
X5.3669Y-5.4618
X5.3669Y-5.5618
X5.4669Y-5.4618
X5.4669Y-5.5618
T4
X5.7264Y-3.9453
X5.7303Y-3.7713
X6.0846Y-3.7713
X6.0846Y-3.9453
T5
X7.6772Y-5.2756
X4.1339Y-2.9921
T6
X7.6772Y-2.7559
X4.1339Y-5.5118
X7.6772Y-5.5118
X4.1339Y-2.7559
T7
X5.9055Y-4.1409
T0
M30
